<?xml version="1.0" encoding="utf-8"?>
<!-- Uploaded to: SVG Repo, www.svgrepo.com, Generator: SVG Repo Mixer Tools -->
<svg width="800px" height="800px" viewBox="0 0 1024 1024" class="icon"  version="1.1" xmlns="http://www.w3.org/2000/svg"><path d="M553.324012 664.737069h-11.674341l10.062745-21.969507c6.42488-14.028253-0.941974-25.506007-16.371926-25.506007h-53.949542c-15.429952 0-14.378422 11.580143-20.522757 25.73331l-17.939495 41.326059c-6.144336 14.153167 1.444702 25.285872 16.864415 24.738093l16.040188-0.56928c-0.010239 0.043003-0.028669 0.082935-0.037884 0.125938 0.274401-0.064505 0.556994-0.108532 0.837538-0.154607l0.168941-0.006143 2.144016-0.075767a10.725199 10.725199 0 0 1 9.953189 9.310189l0.070648 2.12149 0.012287 0.370647c-0.040955 0.392148-0.100341 0.779177-0.180204 1.159038 0.074744-0.017406 0.14232-0.051194 0.21604-0.070648l1.512279 45.627402c0.510919 15.420737 8.103028 17.650759 16.871582 4.954581l58.031772-84.030269c8.770602-12.696178 3.32046-23.084519-12.109491-23.084519z" fill="#FFDB02" /><path d="M455.576751 636.876126h99.266707v18.342905h-99.266707z" fill="#FF8602" /><path d="M587.549426 661.493401c-3.220119-6.141264-8.208489-10.901307-14.497192-14.031325 4.263458-12.149423 3.169949-24.466764-3.184283-34.365687-7.103716-11.0682-19.69341-17.415265-34.542819-17.415265h-53.949542c-27.392004 0-34.24794 20.959956-37.541779 31.031916-0.878494 2.692818-1.710912 5.235126-2.775754 7.687331l-17.940518 41.328107c-5.831027 13.430304-5.114307 27.32238 1.963812 38.110036 7.013614 10.688339 19.263379 16.817316 33.615179 16.817317 0.609212 0 1.224567-0.010239 1.846065-0.031741l7.171293-0.254947 1.234806 37.241781c0.834467 25.135361 15.670565 34.05545 28.12101 34.057497h0.002048c10.580831 0 20.026173-5.906794 28.072888-17.556562l58.029724-84.02822c8.895516-12.87331 10.488681-26.938423 4.375062-38.590238z m-22.127185 26.327163l-58.031773 84.030269c-8.76753 12.696178-16.35964 10.46718-16.871582-4.954581l-1.57064-47.393604-0.034812-1.041292c-0.357336-5.528981-4.837858-9.910186-10.418033-10.067864l-0.931736 0.032764-17.78284 0.631738c-15.419713 0.547779-23.008751-10.583903-16.864416-24.738094l17.940519-41.326059c6.144336-14.153167 5.092806-25.73331 20.522757-25.73331h53.949542c15.428928 0 22.796807 11.477754 16.371926 25.506007l-10.062745 21.969508h11.674341c15.42688 0 20.877022 10.388341 12.109492 23.084518z" fill="" /><path d="M825.408226 515.186331c0-49.440351-32.293343-91.319308-76.930647-105.7479a95.402563 95.402563 0 0 0 1.400675-16.178412c0-52.440335-42.510695-94.951029-94.95103-94.95103-19.984194 0-38.515494 6.187339-53.812341 16.73131-28.168109-53.558417-84.321052-90.101909-149.037772-90.101908-92.96162 0-168.322652 75.361032-168.322651 168.322652 0 4.457997 0.226279 8.861727 0.566208 13.23167-46.479274 13.715968-80.411858 56.690483-80.411858 107.614443 0 61.974755 50.240005 112.21476 112.21476 112.21476h410.016926v-0.637881c55.797655-5.925224 99.26773-53.12941 99.26773-110.497704z" fill="#FFFFFF" /><path d="M650.394484 301.12877a94.443182 94.443182 0 0 0-49.279601 16.612539c-26.612827-50.601437-78.209481-85.996128-138.403699-89.752764-71.153887 19.654503-123.421185 84.812517-123.421184 162.218248 0 4.457997 0.226279 8.861727 0.566208 13.23167-46.479274 13.718016-80.410834 56.69253-80.410834 107.616491 0 61.974755 50.240005 112.21476 112.21476 112.21476h377.885357c44.081335-14.74702 75.862735-56.338266 75.862735-105.381349 0-49.440351-32.293343-91.319308-76.930647-105.747901a95.402563 95.402563 0 0 0 1.400675-16.178412c0-46.134225-32.90665-84.568832-76.526213-93.148991l-22.957557-1.684291z" fill="#EFFAFF" /><path d="M748.478602 411.595757a95.402563 95.402563 0 0 0 1.400676-16.178412c0-52.440335-42.510695-94.951029-94.95103-94.951029-9.21804 0-18.121746 1.331051-26.547299 3.785304 44.693618 7.712928 78.700945 46.641048 78.700946 93.537044a95.508023 95.508023 0 0 1-1.400675 16.178412c44.636281 14.428592 76.930648 56.30755 76.930647 105.7479 0 53.553298-37.886829 98.237701-88.314204 108.76529h31.844881v-0.63788c55.796631-5.925224 99.266706-53.130433 99.266706-110.497705-0.001024-49.441375-32.294367-91.319308-76.930648-105.748924z" fill="#49BDFF" /><path d="M329.684931 289.5732a11.825876 11.825876 0 0 1-8.146031-3.239573c-4.766186-4.499976-4.982226-12.012223-0.481226-16.778409a181.545107 181.545107 0 0 1 13.822451-13.171261c4.980178-4.261411 12.470923-3.685987 16.73643 1.291119 4.264482 4.97813 3.687011 12.470923-1.291119 16.73643a157.607692 157.607692 0 0 0-12.008128 11.440895 11.833043 11.833043 0 0 1-8.632377 3.720799zM825.408226 527.05521c-6.55389 0-11.868879-5.313965-11.868878-11.868879 0-43.211032-27.613163-81.168509-68.711921-94.453421l-9.789367-3.163806 1.740605-10.139536a83.725151 83.725151 0 0 0 1.23071-14.169549c0-45.811701-37.271474-83.082151-83.082151-83.082151-16.906394 0-33.186171 5.061065-47.077223 14.634393l-11.012911 7.59211L590.610844 320.564161c-27.171869-51.66423-80.255203-83.757915-138.533733-83.757915-25.947302 0-51.641704 6.478122-74.306429 18.735053-5.764474 3.121826-12.966484 0.972691-16.086263-4.794855-3.117731-5.765498-0.971667-12.967508 4.794855-16.086262 26.121362-14.125522 55.720863-21.592718 85.597837-21.592718 62.917753 0 120.57376 32.472523 153.319661 85.539476 15.220055-7.992449 32.117235-12.168877 49.530452-12.168877 58.900027 0 106.819908 47.918857 106.819908 106.819908 0 2.74606-0.111604 5.518742-0.330715 8.299615 45.758459 18.914234 75.860688 63.40717 75.860688 113.626697 0.001024 6.556962-5.313965 11.870926-11.868879 11.870927zM814.239685 575.653927c-1.742653 0-3.512951-0.386005-5.185979-1.199994-5.894508-2.868927-8.345689-9.973667-5.476763-15.867151a98.759883 98.759883 0 0 0 4.610556-11.154206c2.130705-6.199626 8.874014-9.499608 15.082855-7.369927 6.197578 2.129681 9.498584 8.881181 7.369926 15.080807a123.611627 123.611627 0 0 1-5.719423 13.832691 11.873998 11.873998 0 0 1-10.681172 6.67778zM726.769162 638.190795h-28.321692c-6.55389 0-11.868879-5.313965-11.868879-11.868879s5.314989-11.868879 11.868879-11.868879h27.045931c23.088614-2.604764 44.872798-13.810165 61.401379-31.596077 4.467212-4.803046 11.974339-5.074376 16.775337-0.614331 4.800998 4.462092 5.076423 11.972291 0.615355 16.774313-20.574976 22.138448-47.879949 36.027453-76.890716 39.108324l-0.625594 0.065529zM662.120019 638.190795H316.124594c-68.420113 0-124.083639-55.663526-124.083639-124.083639 0-51.427712 32.426448-97.819956 79.925513-115.959109a154.176652 154.176652 0 0 1-0.079863-4.888028c0-34.570464 9.81906-68.159022 28.397459-97.133953 3.538548-5.51567 10.878782-7.122146 16.397524-3.584623 5.517718 3.537524 7.12317 10.879805 3.584622 16.397524-16.121074 25.143552-24.641848 54.300734-24.641848 84.320028 0 3.695202 0.174061 7.721119 0.531397 12.311197l0.746412 9.583567-9.220087 2.720463c-42.334587 12.493449-71.902347 52.065593-71.902347 96.23191 0 55.330763 45.015118 100.345881 100.345881 100.345881h345.994401c6.554914 0 11.868879 5.313965 11.868878 11.868879s-5.313965 11.869903-11.868878 11.869903z" fill="#020202" /><path d="M452.699634 471.306702m-18.70229 0a18.702289 18.702289 0 1 0 37.404579 0 18.702289 18.702289 0 1 0-37.404579 0Z" fill="#050101" /><path d="M427.358472 514.661078m-12.78628 0a12.78628 12.78628 0 1 0 25.57256 0 12.78628 12.78628 0 1 0-25.57256 0Z" fill="#A9E3FD" /><path d="M606.276289 514.661078m-12.78628 0a12.78628 12.78628 0 1 0 25.57256 0 12.78628 12.78628 0 1 0-25.57256 0Z" fill="#A9E3FD" /><path d="M577.862447 473.465052m-18.702289 0a18.702289 18.702289 0 1 0 37.404579 0 18.702289 18.702289 0 1 0-37.404579 0Z" fill="#050101" /><path d="M542.075608 492.167341H489.205241a4.855264 4.855264 0 0 0-4.759019 3.899979c0.059385 0.976787 0.162798 1.938215 0.309213 2.889405 2.312957 14.998896 15.239509 26.494057 30.885501 26.494057 15.645992 0 28.572544-11.496184 30.885501-26.494057 0.146416-0.950166 0.249828-1.912618 0.309213-2.889405a4.857312 4.857312 0 0 0-4.760042-3.899979z" fill="#050101" /><path d="M498.73659 508.262819a15.915273 8.002688 0 1 0 31.830546 0 15.915273 8.002688 0 1 0-31.830546 0Z" fill="#FE8500" /><path d="M110.597021 885.666949H74.992433c-6.554914 0-11.868879-5.314989-11.868879-11.868878 0-6.55389 5.313965-11.868879 11.868879-11.868879h35.604588c6.554914 0 11.868879 5.314989 11.868879 11.868879 0 6.55389-5.313965 11.868879-11.868879 11.868878zM774.144336 885.666949H149.438111c-6.554914 0-11.868879-5.314989-11.868879-11.868878 0-6.55389 5.313965-11.868879 11.868879-11.868879h624.705201c6.55389 0 11.868879 5.314989 11.868879 11.868879 0.001024 6.55389-5.313965 11.868879-11.867855 11.868878zM832.405459 885.666949h-22.656535c-6.55389 0-11.868879-5.314989-11.868879-11.868878 0-6.55389 5.314989-11.868879 11.868879-11.868879h22.656535c6.55389 0 11.868879 5.314989 11.868878 11.868879 0 6.55389-5.314989 11.868879-11.868878 11.868878zM945.695298 885.666949h-71.211224c-6.55389 0-11.868879-5.314989-11.868879-11.868878 0-6.55389 5.314989-11.868879 11.868879-11.868879h71.211224c6.55389 0 11.868879 5.314989 11.868879 11.868879 0 6.55389-5.314989 11.868879-11.868879 11.868878z" fill="#020202" /><path d="M89.731262 313.170685c-11.106084 0-20.141872-9.035788-20.141872-20.141872 0-11.10506 9.035788-20.140848 20.141872-20.140848s20.140848 9.035788 20.140848 20.140848c0 11.106084-9.034764 20.141872-20.140848 20.141872z m0-31.650343c-6.346041 0-11.509495 5.163454-11.509495 11.508471 0 6.346041 5.163454 11.509495 11.509495 11.509495 6.345017 0 11.508471-5.163454 11.508471-11.509495 0-6.345017-5.16243-11.508471-11.508471-11.508471z" fill="#49BEFE" /><path d="M121.381605 419.294351c-11.106084 0-20.141872-9.035788-20.141872-20.141872 0-11.106084 9.035788-20.140848 20.141872-20.140848s20.141872 9.034764 20.141872 20.140848-9.035788 20.141872-20.141872 20.141872z m0-31.650343c-6.346041 0-11.509495 5.163454-11.509495 11.508471 0 6.346041 5.163454 11.509495 11.509495 11.509495 6.346041 0 11.509495-5.163454 11.509495-11.509495 0-6.345017-5.163454-11.508471-11.509495-11.508471z" fill="#FEDC01" /><path d="M907.742941 351.905291c-11.106084 0-20.142896-9.034764-20.142896-20.140849s9.036812-20.141872 20.142896-20.141872 20.140848 9.035788 20.140848 20.141872c0 11.106084-9.034764 20.140848-20.140848 20.140849z m0-31.650344c-6.347065 0-11.510519 5.163454-11.510519 11.509495 0 6.345017 5.163454 11.508471 11.510519 11.508471 6.345017 0 11.508471-5.163454 11.508471-11.508471 0-6.346041-5.163454-11.509495-11.508471-11.509495z" fill="#4BBFFF" /><path d="M268.12485 228.290591m-7.912586 0a7.912586 7.912586 0 1 0 15.825172 0 7.912586 7.912586 0 1 0-15.825172 0Z" fill="#2D96F8" /><path d="M137.206777 339.677028m-7.912586 0a7.912586 7.912586 0 1 0 15.825172 0 7.912586 7.912586 0 1 0-15.825172 0Z" fill="#FFDA05" /><path d="M741.442462 230.447918m-7.912585 0a7.912586 7.912586 0 1 0 15.825171 0 7.912586 7.912586 0 1 0-15.825171 0Z" fill="#FEDA01" /><path d="M819.129761 183.692194m-7.912585 0a7.912586 7.912586 0 1 0 15.825171 0 7.912586 7.912586 0 1 0-15.825171 0Z" fill="#FF8602" /><path d="M839.990401 371.100069m-7.912586 0a7.912586 7.912586 0 1 0 15.825172 0 7.912586 7.912586 0 1 0-15.825172 0Z" fill="#FF8504" /><path d="M150.012511 274.334715c1.474395 1.474395 3.941959 1.398627 5.51055-0.169965l11.360008-11.360008c1.568592-1.568592 1.64436-4.035132 0.169965-5.510551-1.474395-1.474395-3.941959-1.398627-5.510551 0.169965l-11.360007 11.360008c-1.568592 1.568592-1.64436 4.035132-0.169965 5.510551zM187.207193 237.140032c1.474395 1.474395 3.941959 1.398627 5.510551-0.169965l11.360007-11.360007c1.568592-1.568592 1.64436-4.035132 0.169965-5.510551-1.474395-1.474395-3.941959-1.398627-5.510551 0.169965l-11.360007 11.360007c-1.569616 1.568592-1.645384 4.036156-0.169965 5.510551zM138.780489 247.217112c0 2.085654 1.797943 3.776089 4.016702 3.776089h16.06476c2.217736 0 4.016702-1.690435 4.016703-3.776089s-1.797943-3.776089-4.016703-3.776089h-16.06476c-2.218759 0-4.016702 1.690435-4.016702 3.776089zM191.381573 247.217112c0 2.085654 1.797943 3.776089 4.016702 3.776089h16.064761c2.217736 0 4.015678-1.690435 4.015678-3.776089s-1.797943-3.776089-4.015678-3.776089h-16.064761c-2.218759 0-4.016702 1.690435-4.016702 3.776089z" fill="#FFDC01" /><path d="M150.012511 220.100533c-1.474395 1.474395-1.398627 3.941959 0.169965 5.510551l11.360007 11.360007c1.568592 1.568592 4.035132 1.64436 5.510551 0.169965 1.474395-1.474395 1.398627-3.941959-0.169965-5.510551l-11.360008-11.360007c-1.568592-1.568592-4.036156-1.64436-5.51055-0.169965zM187.207193 257.295215c-1.474395 1.474395-1.398627 3.941959 0.169965 5.510551l11.360007 11.360007c1.568592 1.568592 4.035132 1.64436 5.510551 0.169965 1.474395-1.474395 1.398627-3.941959-0.169965-5.51055l-11.360007-11.360008c-1.568592-1.568592-4.036156-1.645384-5.510551-0.169965z" fill="#FFDC01" /><path d="M177.12909 208.868511c-2.085654 0-3.776089 1.797943-3.77609 4.016702v16.064761c0 2.217736 1.690435 4.015678 3.77609 4.015678s3.776089-1.797943 3.776089-4.015678v-16.064761c0.001024-2.218759-1.690435-4.016702-3.776089-4.016702zM177.12909 261.469595c-2.085654 0-3.776089 1.797943-3.77609 4.016703v16.06476c0 2.217736 1.690435 4.015678 3.77609 4.015679s3.776089-1.797943 3.776089-4.015679v-16.06476c0.001024-2.218759-1.690435-4.016702-3.776089-4.016703z" fill="#FFDC01" /><path d="M810.721615 270.191051a6.12693 6.12693 0 0 1-6.119762-6.118739v-6.069592c-0.027645-2.230022-1.734462-3.955269-3.885645-3.955269a1.969955 1.969955 0 0 0-0.402387-0.037884h-5.774713a6.124882 6.124882 0 0 1-6.115667-6.117715 6.122834 6.122834 0 0 1 6.115667-6.116691h6.117714c2.198282-0.03174 3.915337-1.716032 3.945031-3.836498v-6.227271a6.12693 6.12693 0 0 1 6.119762-6.117714 6.124882 6.124882 0 0 1 6.117715 6.117714v5.777785c0 0.140272 0.012287 0.279521 0.039932 0.415698-0.002048 2.091798 1.720127 3.836498 3.835474 3.870286h6.187339a6.123858 6.123858 0 0 1 6.117715 6.116691 6.124882 6.124882 0 0 1-6.117715 6.117715h-5.940583c-0.126962 0-0.28464 0.01843-0.432079 0.045051a3.901003 3.901003 0 0 0-3.644008 3.635817c-0.016382 0.081911-0.029693 0.163822-0.035836 0.225254l-0.010239 6.155599a6.124882 6.124882 0 0 1-6.117715 6.119763z" fill="#FFDB02" /><path d="M665.057546 187.107876a4.348441 4.348441 0 0 1-4.343322-4.342298v-4.307485c-0.019454-1.581903-1.23071-2.807494-2.757323-2.807494a1.412962 1.412962 0 0 0-0.285664-0.026621h-4.097589a4.346393 4.346393 0 0 1-4.34025-4.341274 4.346393 4.346393 0 0 1 4.34025-4.341273h4.341274c1.559377-0.022525 2.778825-1.218424 2.799302-2.722512v-4.419089a4.347417 4.347417 0 0 1 4.343322-4.341273 4.346393 4.346393 0 0 1 4.341273 4.341273v4.099637c0 0.099317 0.009215 0.198634 0.028669 0.294879-0.001024 1.484634 1.220471 2.722511 2.721487 2.747085h4.391444a4.345369 4.345369 0 0 1 4.341274 4.341273 4.346393 4.346393 0 0 1-4.341274 4.341274h-4.216359c-0.090102 0-0.201705 0.012287-0.306142 0.031741a2.768586 2.768586 0 0 0-2.586334 2.580191c-0.012287 0.058361-0.020478 0.115699-0.025597 0.159726l-0.007168 4.368918a4.345369 4.345369 0 0 1-4.341273 4.343322z" fill="#2D97F9" /><path d="M342.12309 164.08991a4.348441 4.348441 0 0 1-4.343321-4.342298v-4.307485c-0.019454-1.581903-1.23071-2.807494-2.758347-2.807494a1.412962 1.412962 0 0 0-0.285664-0.026621h-4.097589a4.346393 4.346393 0 0 1-4.34025-4.341274 4.346393 4.346393 0 0 1 4.34025-4.341273h4.341273c1.559377-0.022525 2.778825-1.218424 2.799303-2.722512v-4.419089c0-2.393844 1.948454-4.341274 4.343321-4.341273s4.341274 1.948454 4.341274 4.341273v4.099637c0 0.099317 0.009215 0.198634 0.028669 0.294879-0.001024 1.484634 1.220471 2.722511 2.721487 2.747085h4.391444a4.345369 4.345369 0 0 1 4.341274 4.341273 4.346393 4.346393 0 0 1-4.341274 4.341274h-4.21636c-0.090102 0-0.201705 0.012287-0.306141 0.031741a2.768586 2.768586 0 0 0-2.586335 2.580191c-0.012287 0.058361-0.020478 0.115699-0.025597 0.159726l-0.007167 4.368918a4.345369 4.345369 0 0 1-4.34025 4.343322z" fill="#FF8604" /></svg>