<?xml version="1.0" encoding="iso-8859-1"?>
<!-- Generator: Adobe Illustrator 19.0.0, SVG Export Plug-In . SVG Version: 6.00 Build 0)  -->
<svg xmlns="http://www.w3.org/2000/svg" xmlns:xlink="http://www.w3.org/1999/xlink" version="1.1" id="Capa_1" x="0px" y="0px" viewBox="0 0 512 512" style="enable-background:new 0 0 512 512;" xml:space="preserve">
<polygon style="fill:#FF415D;" points="256,7.5 216,256 256,405.5 444.5,504.5 444.5,7.5 "/>
<polygon style="fill:#FF903D;" points="67.5,7.5 67.5,504.5 256,405.5 256,7.5 "/>
<polygon style="fill:#FFD89D;" points="414.5,37.5 384.5,37.5 354.5,256 384.5,439.103 414.5,454.858 "/>
<polygon style="fill:#FFEBCE;" points="97.5,37.5 97.5,454.858 256,371.614 384.5,439.103 384.5,37.5 "/>
<polygon style="fill:#FFB03B;" points="384.804,175.639 295.803,162.706 256,82.057 226,221.602 256,285.206 335.605,327.057   320.402,238.415 "/>
<g>
	<polygon style="fill:#FFC46C;" points="216.197,162.706 127.196,175.639 191.598,238.415 176.395,327.057 256,285.206 256,82.057     "/>
	<polygon style="fill:#FFC46C;" points="256,251.313 216.238,272.217 223.832,227.942 191.664,196.586 236.119,190.126 256,149.843    275.881,190.126 320.336,196.586 288.168,227.942 295.762,272.217  "/>
</g>
<path d="M391.937,173.321c-0.882-2.716-3.229-4.694-6.055-5.104l-85.099-12.366l-38.058-77.113c-1.264-2.56-3.871-4.181-6.726-4.181  c-2.855,0-5.462,1.621-6.726,4.181l-39.803,80.649c-1.833,3.715-0.308,8.212,3.406,10.045c3.716,1.833,8.212,0.307,10.045-3.406  L256,99.003l33.077,67.022c1.093,2.214,3.204,3.748,5.647,4.103l73.962,10.748l-53.52,52.168c-1.768,1.724-2.574,4.206-2.156,6.639  l12.634,73.664l-66.154-34.779c-2.186-1.148-4.795-1.148-6.98,0l-66.154,34.779l12.634-73.664c0.418-2.433-0.389-4.915-2.156-6.639  l-53.52-52.168l43.962-6.389c4.1-0.596,6.939-4.401,6.344-8.5c-0.596-4.101-4.414-6.947-8.5-6.344l-59.001,8.573  c-2.825,0.41-5.173,2.389-6.055,5.104s-0.146,5.695,1.897,7.688l61.578,60.023l-14.536,84.756c-0.483,2.813,0.674,5.657,2.983,7.335  c2.309,1.678,5.37,1.898,7.898,0.571L256,293.68l76.115,40.016c1.098,0.577,2.296,0.861,3.489,0.861  c1.556,0,3.103-0.483,4.409-1.433c2.31-1.678,3.467-4.521,2.983-7.335l-14.536-84.756l61.578-60.023  C392.083,179.017,392.818,176.036,391.937,173.321z"/>
<path d="M444.5,0h-377C63.357,0,60,3.357,60,7.5v497c0,2.626,1.373,5.061,3.621,6.419c2.247,1.358,5.042,1.441,7.366,0.221  L256,413.972l185.013,97.168c1.094,0.575,2.291,0.86,3.487,0.86c1.346,0,2.689-0.362,3.879-1.081  c2.248-1.358,3.621-3.793,3.621-6.419V7.5C452,3.357,448.643,0,444.5,0z M437,492.09l-177.513-93.23  c-1.092-0.573-2.289-0.86-3.487-0.86c-1.198,0-2.396,0.287-3.487,0.86L75,492.09V15h362V492.09z"/>
<path d="M93.621,461.277c2.247,1.358,5.043,1.443,7.366,0.221L256,380.086l155.013,81.412c1.094,0.575,2.291,0.86,3.487,0.86  c1.346,0,2.689-0.362,3.879-1.081c2.248-1.358,3.621-3.793,3.621-6.419v-83.244c0-4.143-3.357-7.5-7.5-7.5s-7.5,3.357-7.5,7.5  v70.834l-147.513-77.474c-2.184-1.146-4.791-1.146-6.975,0L105,442.448V45h302v296.614c0,4.143,3.357,7.5,7.5,7.5s7.5-3.357,7.5-7.5  V37.5c0-4.143-3.357-7.5-7.5-7.5h-317c-4.143,0-7.5,3.357-7.5,7.5v417.358C90,457.484,91.373,459.919,93.621,461.277z"/>
<g>
</g>
<g>
</g>
<g>
</g>
<g>
</g>
<g>
</g>
<g>
</g>
<g>
</g>
<g>
</g>
<g>
</g>
<g>
</g>
<g>
</g>
<g>
</g>
<g>
</g>
<g>
</g>
<g>
</g>
</svg>
