<svg xmlns="http://www.w3.org/2000/svg" viewBox="0 0 64 64"><defs><style>.cls-1{opacity:0.2;}</style></defs><title>Star</title><g id="Star"><path d="M34.75,36.82c-.21-.65.15-.39-8-2.89l-4.4-6.26a1,1,0,0,0-1.63,0l-4.4,6.26L9,36.18a1,1,0,0,0-.5,1.55l4.59,6.12L13,51.5a1,1,0,0,0,1,1c.25,0-.31.17,7.56-2.54,7.58,2.61,7.55,2.78,8.16,2.35s.42-.11.29-8.48C34.85,37.4,35,37.52,34.75,36.82Zm-6.55,6.1c-.29.4-.21.17-.09,7.19-6.68-2.29-6.29-2.18-6.55-2.18s.17-.12-6.54,2.18c.12-7,.2-6.78-.09-7.19L11,37.67l6.28-1.93c.48-.16.23,0,4.3-5.76,4.14,5.89,3.85,5.61,4.31,5.76l6.28,1.93Z"/><path class="cls-1" d="M28.2,42.92c-.29.4-.21.17-.09,7.19-6.68-2.29-6.29-2.18-6.55-2.18s.17-.12-6.54,2.18c.12-7,.2-6.78-.09-7.19L11,37.67l6.28-1.93c.48-.16.23,0,4.3-5.76,4.14,5.89,3.85,5.61,4.31,5.76l6.28,1.93Z"/><path d="M54,44a1,1,0,0,0-1-1,1,1,0,0,1,0-2,1,1,0,0,0,1-1,1,1,0,0,1,2,0,1,1,0,0,0,1,1,1,1,0,0,1,0,2,1,1,0,0,0-1,1A1,1,0,0,1,54,44Z"/><path d="M9,21a1,1,0,0,0-1-1,1,1,0,0,1,0-2,1,1,0,0,0,1-1,1,1,0,0,1,2,0,1,1,0,0,0,1,1,1,1,0,0,1,0,2,1,1,0,0,0-1,1A1,1,0,0,1,9,21Z"/><path d="M27,27a1,1,0,0,1-.73-1.69l17-18a1,1,0,0,1,1.46,1.38C26.35,28.14,27.63,27,27,27Z"/><path d="M39,29a1,1,0,0,1-.71-1.71l9-9a1,1,0,0,1,1.42,1.42C39,29.47,39.59,29,39,29Z"/><path d="M36,32a1,1,0,0,1-.71-1.71l1-1a1,1,0,0,1,1.42,1.42C36.65,31.77,36.52,32,36,32Z"/><path d="M53,27a1,1,0,0,1-.71-1.71l3.5-3.5a1,1,0,0,1,1.42,1.42C53.45,27,53.56,27,53,27Z"/><path d="M35,45a1,1,0,0,1-.71-1.71l13-13a1,1,0,0,1,1.42,1.42C34.62,45.79,35.59,45,35,45Z"/><path d="M17,26a1,1,0,0,1-.71-1.71l11-11a1,1,0,0,1,1.42,1.42C16.74,26.67,17.59,26,17,26Z"/><path d="M13,30a1,1,0,0,1-.71-1.71l1-1a1,1,0,0,1,1.42,1.42C13.65,29.77,13.52,30,13,30Z"/><path d="M47,45a1,1,0,0,1-2,0A1,1,0,0,1,47,45Z"/><path d="M42,17a1,1,0,0,1-2,0A1,1,0,0,1,42,17Z"/><path d="M49,11a1,1,0,0,1-2,0A1,1,0,0,1,49,11Z"/><path d="M20,17a1,1,0,0,1-2,0A1,1,0,0,1,20,17Z"/><path d="M55,18a1,1,0,0,1-2,0A1,1,0,0,1,55,18Z"/><path d="M10,44a1,1,0,0,1-2,0A1,1,0,0,1,10,44Z"/><path d="M59,31a1,1,0,0,1-2,0A1,1,0,0,1,59,31Z"/><path d="M24,56a1,1,0,0,1-2,0A1,1,0,0,1,24,56Z"/><path d="M23,8a1,1,0,0,1-2,0A1,1,0,0,1,23,8Z"/><path d="M9,30a1,1,0,0,1-2,0A1,1,0,0,1,9,30Z"/><path d="M40,52V51a1,1,0,0,1,2,0v1A1,1,0,0,1,40,52Z"/><path d="M44,55H43a1,1,0,0,1,0-2h1A1,1,0,0,1,44,55Z"/><path d="M39,55H38a1,1,0,0,1,0-2h1A1,1,0,0,1,39,55Z"/><path d="M40,57V56a1,1,0,0,1,2,0v1A1,1,0,0,1,40,57Z"/><path d="M31,6V5a1,1,0,0,1,2,0V6A1,1,0,0,1,31,6Z"/><path d="M35,9H34a1,1,0,0,1,0-2h1A1,1,0,0,1,35,9Z"/><path d="M30,9H29a1,1,0,0,1,0-2h1A1,1,0,0,1,30,9Z"/><path d="M31,11V10a1,1,0,0,1,2,0v1A1,1,0,0,1,31,11Z"/></g></svg>