<?xml version="1.0" encoding="UTF-8"?>
<svg version="1.1" xmlns="http://www.w3.org/2000/svg" width="512" height="512">
<path d="M0 0 C1.39237013 0.54454952 2.7804169 1.10023646 4.16479492 1.66479492 C4.93236618 1.96798141 5.69993744 2.27116791 6.49076843 2.58354187 C9.04599692 3.59498416 11.59541984 4.62033107 14.14526367 5.64526367 C15.96510719 6.36780017 17.78543114 7.08912763 19.60620117 7.80932617 C22.4951396 8.95223478 25.38373085 10.09595625 28.27090454 11.24331665 C38.4015172 15.2683215 48.56608796 19.20415715 58.73373413 23.13446045 C63.92420002 25.14146036 69.11289967 27.15301317 74.30151367 29.16479492 C75.31779343 29.55880493 76.33407318 29.95281494 77.38114929 30.35876465 C87.37015236 34.23278895 97.35263876 38.12343301 107.33276367 42.02026367 C108.15756226 42.3422876 108.98236084 42.66431152 109.83215332 42.99609375 C117.47038815 45.97853194 125.1078669 48.96290341 132.74487305 51.94848633 C134.58145945 52.66642798 136.418048 53.38436417 138.25463867 54.10229492 C139.6103598 54.6323111 139.6103598 54.6323111 140.99346924 55.17303467 C147.88435119 57.86629483 154.77865142 60.55071092 161.67401123 63.23248291 C166.25648015 65.01684865 170.82914143 66.82339251 175.39526367 68.64916992 C176.38429687 69.03975586 177.37333008 69.4303418 178.39233398 69.83276367 C180.10407902 70.50876316 181.81223953 71.19396515 183.51538086 71.89135742 C187.52946821 73.46169577 190.22794814 74.3695419 194.33276367 72.83276367 C196.4598378 71.77339734 198.56204586 70.6634631 200.64526367 69.52026367 C216.20655795 61.46896736 234.50419791 58.77560264 251.52026367 63.78588867 C258.03921231 66.21238622 264.60910829 68.84881475 269.52026367 73.89526367 C272.03782542 76.11507649 272.03782542 76.11507649 274.23765564 75.49494934 C274.95345291 75.227202 275.66925018 74.95945465 276.40673828 74.68359375 C277.20804169 74.39030182 278.00934509 74.09700989 278.83493042 73.79483032 C279.65921539 73.47734833 280.48350037 73.15986633 281.33276367 72.83276367 C282.09541534 72.54823334 282.85806702 72.263703 283.64382935 71.97055054 C286.0899741 71.04969479 288.52630251 70.10596143 290.96166992 69.15698242 C291.8833345 68.79970062 292.80499908 68.44241882 293.7545929 68.0743103 C296.80238338 66.89193188 299.84886655 65.70622706 302.89526367 64.52026367 C305.07053668 63.67507883 307.2458301 62.82994653 309.42114258 61.98486328 C331.57429033 53.37199161 353.69359427 44.67292514 375.81134033 35.96965027 C383.98383133 32.75456147 392.15934614 29.54725798 400.33666992 26.34448242 C401.47406616 25.89891495 402.6114624 25.45334747 403.7833252 24.99427795 C408.14061348 23.28742304 412.49790212 21.58057151 416.855896 19.8755188 C418.83733865 19.10025861 420.81860363 18.32454414 422.79968262 17.5483551 C424.71834656 16.79687974 426.63752733 16.04672246 428.55725098 15.29795837 C433.76369529 13.26068185 438.94577186 11.17471734 444.1105957 9.03393555 C445.80273949 8.33865753 445.80273949 8.33865753 447.52906799 7.6293335 C449.69961098 6.73566277 451.86617613 5.83224704 454.02793884 4.9175415 C459.33905006 2.73940763 463.57030193 1.08907956 469.33276367 1.83276367 C471.25854492 3.40698242 471.25854492 3.40698242 472.64526367 5.52026367 C473.12995117 6.25374023 473.61463867 6.9872168 474.11401367 7.74291992 C479.35923043 16.73712174 479.36926715 27.00629049 477.14526367 36.95776367 C473.77149658 48.86517694 473.77149658 48.86517694 467.97705078 52.18066406 C458.08393693 56.61232395 448.03740752 60.63633795 437.96099854 64.63034058 C432.39050276 66.83868726 426.82491737 69.05936168 421.25854492 71.27807617 C420.10598206 71.73711838 418.95341919 72.19616058 417.76593018 72.66911316 C405.64776012 77.49796974 393.5512434 82.37996763 381.45776367 87.27026367 C379.32454922 88.13258061 377.19132982 88.99488528 375.05810547 89.85717773 C370.73644363 91.60425562 366.41494277 93.35173108 362.09350586 95.09936523 C351.2672543 99.47711779 340.43848802 103.84864602 329.61004639 108.22097778 C324.03315991 110.47287573 318.45640216 112.72509242 312.87963867 114.97729492 C311.01342838 115.73095863 309.14721751 116.48462092 307.28100586 117.23828125 C306.5140741 117.54800369 305.74714233 117.85772614 304.95697021 118.17683411 C304.42098206 118.39329086 303.8849939 118.60974762 303.33276367 118.83276367 C305.72464303 120.42734991 307.57077001 121.42272829 310.19091797 122.45483398 C310.97323288 122.76496933 311.75554779 123.07510468 312.56156921 123.39463806 C313.41805557 123.73000076 314.27454193 124.06536346 315.15698242 124.41088867 C316.06466873 124.76949478 316.97235504 125.12810089 317.907547 125.49757385 C320.94378079 126.69606243 323.98200228 127.8894255 327.02026367 129.08276367 C329.17922606 129.93364473 331.33807799 130.78480611 333.49682617 131.63623047 C339.2658889 133.91034922 345.03678375 136.17978 350.80828857 138.44769287 C354.26803969 139.80732803 357.72745961 141.16780223 361.18676758 142.52856445 C380.81942985 150.25085627 400.45548626 157.96452792 420.09901619 165.65913677 C425.28568098 167.69084372 430.47185154 169.72380881 435.65771294 171.7575655 C438.74637316 172.96873875 441.83543202 174.17887116 444.92504883 175.38760376 C448.34162197 176.72426462 451.75720959 178.06341561 455.17260742 179.40307617 C456.17319687 179.79376785 457.17378632 180.18445953 458.20469666 180.58699036 C474.36978826 186.93697259 474.36978826 186.93697259 478.02026367 190.33276367 C480.333822 196.50225256 478.73593314 202.47121379 476.24682617 208.43432617 C473.88292154 212.93628468 471.18324942 216.46358864 467.33276367 219.83276367 C466.61088867 220.51338867 465.88901367 221.19401367 465.14526367 221.89526367 C457.72346916 227.00805545 449.33405293 229.4552205 440.33276367 228.83276367 C437.12207031 227.875 437.12207031 227.875 433.55541992 226.47729492 C432.87700546 226.21383774 432.198591 225.95038055 431.49961853 225.67893982 C429.10536064 224.74313311 426.71884478 223.78922169 424.33276367 222.83276367 C422.95918701 222.28549622 422.95918701 222.28549622 421.55786133 221.72717285 C413.82588111 218.64392879 406.11021469 215.52081524 398.39526367 212.39526367 C395.86338471 211.3710433 393.33123749 210.34748701 390.79907227 209.32397461 C386.21486141 207.47081303 381.63090315 205.61702946 377.04729843 203.76236916 C365.67171147 199.15952662 354.29189839 194.56717119 342.91152954 189.97616577 C339.45115844 188.58009883 335.9909429 187.18364697 332.53076172 185.78710938 C319.8360354 180.6639271 307.13937901 175.5455708 294.4406929 170.43221283 C292.11068982 169.4939671 289.78072555 168.55562506 287.45077515 167.61724854 C285.90997323 166.99670389 284.36917123 166.37615945 282.82836914 165.75561523 C282.06959661 165.45002308 281.31082409 165.14443092 280.52905846 164.8295784 C276.03137662 163.01824741 271.5334012 161.2076478 267.03520966 159.39758301 C264.23845806 158.27199642 261.44196273 157.14577418 258.6455307 156.01939392 C257.34594569 155.49609311 256.04625098 154.97306465 254.74643707 154.45033264 C252.95509912 153.72989566 251.16418639 153.00840167 249.37329102 152.28686523 C248.30649109 151.8605481 247.23969116 151.43423096 246.14056396 150.99499512 C243.85395758 150.04850122 241.65648578 149.02167109 239.43676758 147.93334961 C233.45801604 145.81346508 228.06470581 148.12198359 222.4296875 150.45800781 C221.76486296 150.73062124 221.10003841 151.00323467 220.41506767 151.28410912 C218.95756879 151.88274198 217.50154954 152.48498705 216.0468502 153.09039116 C212.80122056 154.44070429 209.54810622 155.77257115 206.29553318 157.10605335 C204.50864897 157.8388525 202.72214195 158.57257197 200.9359808 159.30713177 C190.67292197 163.52531307 180.37627794 167.65941365 170.07885361 171.79282761 C166.68815813 173.15393172 163.29789024 174.51609567 159.90774536 175.87857056 C155.27980085 177.73845128 150.65170002 179.59794202 146.0234375 181.45703125 C140.19867866 183.79676492 134.37423322 186.13727756 128.54989147 188.47804928 C122.81489706 190.78283863 117.07970503 193.087136 111.34448242 195.39135742 C110.22909781 195.83952253 109.11371319 196.28768764 107.96452904 196.74943352 C96.50353018 201.35407789 85.0404686 205.95337069 73.56835938 210.53027344 C72.64808047 210.89760055 71.72780157 211.26492765 70.77963543 211.64338589 C66.54361019 213.33407706 62.30697263 215.02318904 58.06889343 216.70872498 C48.0281399 220.70925274 38.05239672 224.83371232 28.1701355 229.213974 C19.34742979 233.05756567 10.7187446 231.97715583 1.64526367 229.33276367 C-5.79586006 226.33020497 -12.3561756 220.90018171 -16.16723633 213.77026367 C-18.85026099 207.40440799 -21.22886622 200.18963976 -18.81176758 193.44604492 C-15.41356381 189.30506438 -10.96704698 188.0859726 -6.04223633 186.20776367 C-4.87329834 185.74668213 -3.70436035 185.28560059 -2.5 184.81054688 C0.97291774 183.44244298 4.45457762 182.09781467 7.93792725 180.75653076 C11.37380421 179.43120013 14.80564346 178.09554392 18.23780823 176.76063538 C25.26610255 174.02715395 32.29642166 171.29895936 39.33056641 168.58056641 C57.76626051 161.45531402 76.16580684 154.24001929 94.55688477 147.00048828 C96.88580228 146.08384891 99.21474099 145.16726339 101.54370117 144.25073242 C102.68737152 143.80064316 103.83104187 143.35055389 105.0093689 142.88682556 C112.99901021 139.74478059 120.99600097 136.62198937 128.99682617 133.50854492 C131.15414511 132.66815973 133.3114533 131.82774696 135.46875 130.98730469 C138.52940168 129.79505235 141.59048743 128.60399382 144.65316772 127.41696167 C147.4186718 126.34510652 150.18250561 125.26904719 152.94604492 124.19213867 C153.7588089 123.87863968 154.57157288 123.56514069 155.40896606 123.24214172 C158.62820869 121.98391462 161.44581593 120.7573955 164.33276367 118.83276367 C162.61955457 118.14748003 160.90634528 117.46219688 159.19313526 116.77691555 C157.61489985 116.14561917 156.03666754 115.51431504 154.45843792 114.88300419 C149.84722568 113.03847851 145.23595296 111.19410421 140.62458801 109.34996033 C131.13966187 105.55664123 121.65517487 101.76223802 112.17253208 97.96321392 C106.70928529 95.77452545 101.24571548 93.58664421 95.78198242 91.39916992 C94.68127096 90.95847231 93.5805595 90.5177747 92.44649315 90.06372261 C77.71933171 84.16900314 62.97807224 78.31141887 48.22093582 72.49216843 C42.66121368 70.29811736 37.10443807 68.09661286 31.54773903 65.89491844 C26.31589018 63.823058 21.07916401 61.76418073 15.83864307 59.71436214 C12.60370965 58.44551051 9.37366186 57.16458573 6.14487267 55.8801899 C4.65843015 55.29182377 3.16995643 54.70855895 1.67933083 54.13087273 C-0.34506202 53.3456525 -2.36147662 52.54264174 -4.37695312 51.73486328 C-5.50272263 51.29210556 -6.62849213 50.84934784 -7.78837585 50.39317322 C-12.05001486 48.08326544 -14.06481784 45.25514065 -15.93286133 40.84448242 C-19.31405771 29.42623591 -21.44650185 15.87920789 -15.66723633 4.83276367 C-11.21922437 -1.6370719 -7.52178791 -2.3940928 0 0 Z M211.33276367 82.83276367 C213.21894871 86.60513374 218.26098986 87.50863989 222.02026367 89.02026367 C222.91938477 89.40118164 223.81850586 89.78209961 224.74487305 90.17456055 C232.68396422 93.38398038 237.15974864 92.49410374 244.90307617 89.2565918 C245.66362305 88.93110352 246.42416992 88.60561523 247.20776367 88.27026367 C247.99151367 87.9409082 248.77526367 87.61155273 249.58276367 87.2722168 C251.50185124 86.46479581 253.41765017 85.64956598 255.33276367 84.83276367 C242.59982993 74.58919001 225.53112368 77.53845994 211.33276367 82.83276367 Z " fill="#000000" transform="translate(26.667236328125,242.167236328125)"/>
<path d="M0 0 C0.75563232 -0.0093457 1.51126465 -0.01869141 2.28979492 -0.02832031 C7.33510763 0.00172163 12.14322207 0.17634479 15.89318275 3.86734867 C17.72970175 7.09238465 17.66581608 9.99590081 17.63095093 13.60679626 C17.6356309 14.34989266 17.64031087 15.09298906 17.64513266 15.85860354 C17.65710345 18.34984601 17.64761748 20.8405405 17.63818359 23.33178711 C17.64224841 25.11734844 17.64758979 26.90290726 17.65411377 28.6884613 C17.66780486 33.5397077 17.66248106 38.39076295 17.65297651 43.24201274 C17.64538803 48.31658495 17.65242338 53.39114066 17.65713501 58.4657135 C17.66259542 66.98913515 17.65539396 75.51247885 17.64111328 84.03588867 C17.62479147 93.8913822 17.63007074 103.74668951 17.6465925 113.60217851 C17.66020545 122.06088224 17.66212779 130.51952989 17.65427649 138.97824103 C17.64959826 144.03150933 17.64897916 149.08469011 17.65888596 154.1379528 C17.66755036 158.88958135 17.66154328 163.6409698 17.64420319 168.3925724 C17.64023531 170.1368711 17.64137753 171.88118998 17.64799118 173.62548065 C17.65618512 176.00600018 17.64591157 178.38574967 17.63095093 180.76622009 C17.63764309 181.45708 17.64433526 182.1479399 17.65123022 182.85973495 C17.59898828 187.14331086 16.85954226 189.83605624 14.25 193.25 C11.60363629 194.57318185 9.23886704 194.68033476 6.29296875 195.01171875 C5.04974854 195.15778564 3.80652832 195.30385254 2.52563477 195.4543457 C1.52755295 195.57140366 1.52755295 195.57140366 0.50930786 195.69082642 C-41.17683639 200.65406205 -87.5133958 209.80648191 -120.75 237.25 C-121.57113281 237.91902344 -122.39226562 238.58804688 -123.23828125 239.27734375 C-127.94322105 243.27061198 -131.44269669 247.27799011 -134.65625 252.5625 C-137.20784394 254.61900855 -138.17778073 254.43278938 -141.38085938 254.35546875 C-142.19727905 254.3402417 -143.01369873 254.32501465 -143.8548584 254.30932617 C-144.48025513 254.28974854 -145.10565186 254.2701709 -145.75 254.25 C-146.0774706 228.26782024 -146.32412863 202.28595104 -146.47537041 176.30212116 C-146.54747119 164.23643705 -146.64571365 152.17203728 -146.80615234 140.10717773 C-146.94597348 129.58770101 -147.03607973 119.06915459 -147.06723893 108.54877442 C-147.08544628 102.98096798 -147.12802978 97.41582216 -147.23022079 91.84887123 C-147.32577424 86.60062777 -147.35446381 81.35612074 -147.33350754 76.10709 C-147.33733658 74.18856243 -147.36489069 72.26990066 -147.41887665 70.35212898 C-147.82495648 55.17290592 -147.82495648 55.17290592 -142.67773819 49.24916649 C-139.29876466 45.88273298 -135.62228077 43.02095376 -131.75 40.25 C-130.9289723 39.60851171 -130.1079446 38.96702341 -129.26203728 38.30609608 C-127.51333219 36.94362142 -125.73177028 35.70976828 -123.875 34.5 C-123.21338867 34.05938232 -122.55177734 33.61876465 -121.87011719 33.16479492 C-119.84474557 31.83489666 -117.8036899 30.5356716 -115.75 29.25 C-115.10836914 28.84797363 -114.46673828 28.44594727 -113.80566406 28.03173828 C-79.85019066 7.12213366 -39.32552393 0.32683724 0 0 Z " fill="#000000" transform="translate(410.75,36.75)"/>
<path d="M0 0 C23.07755001 7.88641895 43.61437749 20.42916323 61.71875 36.6640625 C62.59064563 37.37245112 63.46254126 38.08083975 64.36085796 38.81069469 C67.39269145 42.47962267 67.4064228 45.34288364 67.32002258 49.89607239 C67.32643077 51.13367161 67.32643077 51.13367161 67.33296841 52.39627284 C67.34119983 55.15902252 67.31371169 57.9202517 67.28637695 60.68286133 C67.28496651 62.66386886 67.28575838 64.644879 67.28858948 66.62588501 C67.29002518 72.00374528 67.26060998 77.38104895 67.22571969 82.75877976 C67.19448219 88.37884598 67.1915275 93.99892469 67.18559265 99.61906433 C67.17004659 110.26151917 67.12900761 120.90371748 67.0788452 131.54605931 C67.02297563 143.66199073 66.99547121 155.77793435 66.97036803 167.8939625 C66.91809258 192.81747144 66.83013528 217.7407526 66.71875 242.6640625 C60.68847656 243.62193298 60.68847656 243.62193298 58.71875 243.6640625 C56.46875 241.85546875 56.46875 241.85546875 54.71875 239.2265625 C54.05101562 238.29972656 53.38328125 237.37289062 52.6953125 236.41796875 C52.04304687 235.50917969 51.39078125 234.60039062 50.71875 233.6640625 C20.28044772 197.97548538 -39.02927124 187.01808577 -83.0378418 182.82714844 C-88.2433126 182.2585355 -91.51711556 181.63392898 -95.28125 177.6640625 C-96.74484949 174.73686352 -96.42569209 171.7943919 -96.42169189 168.58573914 C-96.42466302 167.84843514 -96.42763414 167.11113114 -96.4306953 166.3514846 C-96.43940296 163.86801941 -96.44089228 161.38460231 -96.44238281 158.90112305 C-96.44700954 157.12571102 -96.452034 155.3503 -96.45742798 153.57489014 C-96.47056833 148.74218273 -96.47700016 143.90948922 -96.48143864 139.07676673 C-96.48436684 136.05919503 -96.48847117 133.04162716 -96.49294281 130.02405739 C-96.50662228 120.5878036 -96.51628664 111.15155852 -96.5201447 101.71529549 C-96.52462619 90.81328318 -96.5421764 79.9113962 -96.5711453 69.009422 C-96.59274538 60.58898844 -96.60284809 52.16859017 -96.60418582 43.74812919 C-96.60523509 38.71605194 -96.61116861 33.68409244 -96.62900543 28.6520443 C-96.64545711 23.91852525 -96.64765577 19.18521282 -96.63886642 14.45167542 C-96.63809448 12.71381897 -96.64245944 10.97595155 -96.65232468 9.23812294 C-96.66499986 6.86628021 -96.6591919 4.49517411 -96.64874268 2.12333679 C-96.66082728 1.090837 -96.66082728 1.090837 -96.67315602 0.03747863 C-96.62903306 -4.24245887 -95.88777451 -6.9252402 -93.28125 -10.3359375 C-70.91856328 -21.51728086 -22.10512435 -7.1436607 0 0 Z " fill="#000000" transform="translate(183.28125,49.3359375)"/>
<path d="M0 0 C1.44430741 0.96027231 2.8882725 1.9210595 4.33209229 2.88206482 C5.13623692 3.4170481 5.94038155 3.95203138 6.7688942 4.50322628 C10.84822486 7.23991179 14.794568 10.15112541 18.75 13.0625 C19.57371094 13.66126953 20.39742187 14.26003906 21.24609375 14.87695312 C22.04660156 15.46541016 22.84710938 16.05386719 23.671875 16.66015625 C24.3844043 17.18230713 25.09693359 17.70445801 25.83105469 18.24243164 C32.77558255 23.86981301 32.77558255 23.86981301 33.61523914 28.09840107 C33.61063018 29.26631278 33.60602121 30.43422449 33.60127258 31.63752747 C33.60768077 32.61786289 33.60768077 32.61786289 33.61421841 33.61800307 C33.62243215 35.8004837 33.59499513 37.98102762 33.56762695 40.16333008 C33.56621611 41.73054967 33.56700917 43.29777256 33.56983948 44.86499023 C33.57127364 49.11484866 33.54188429 53.36400101 33.50696969 57.61369538 C33.47570603 62.05661069 33.47277545 66.49954232 33.46684265 70.94255066 C33.45130421 79.35383244 33.41027581 87.76478916 33.3600952 96.17592782 C33.3042017 105.75259915 33.27671523 115.32928604 33.25161803 124.90607989 C33.19935991 144.60423467 33.11141765 164.30209685 33 184 C25.12157434 187.12696421 17.24309722 190.25379873 9.36455911 193.38047963 C5.70396814 194.83322818 2.04339316 196.28601699 -1.61714172 197.73890686 C-28.46806842 208.39615322 -55.32974662 219.0250759 -82.21875 229.5859375 C-82.84410204 229.83155993 -83.46945408 230.07718235 -84.11375618 230.33024788 C-90.97767218 233.02618771 -97.84190758 235.72130929 -104.70678711 238.41479492 C-105.86304092 238.86891251 -107.01929474 239.32303009 -108.21058655 239.79090881 C-110.45579186 240.67173937 -112.70181536 241.55048773 -114.94871521 242.42698669 C-119.59714818 244.2443926 -124.23026934 246.076199 -128.81298828 248.05419922 C-129.85786156 248.49867653 -129.85786156 248.49867653 -130.92384338 248.95213318 C-132.67672839 249.70402504 -134.42103435 250.47583792 -136.16430664 251.24975586 C-139.60815937 252.16090174 -140.90984083 251.65940825 -144 250 C-144.95519531 249.50242187 -145.91039062 249.00484375 -146.89453125 248.4921875 C-147.85746094 247.95851563 -148.82039063 247.42484375 -149.8125 246.875 C-150.78832031 246.33617187 -151.76414062 245.79734375 -152.76953125 245.2421875 C-153.50558594 244.83226562 -154.24164063 244.42234375 -155 244 C-126.92527678 209.4464945 -74.47994369 199.09542974 -32.7265625 192.859375 C-31.79231445 192.71870605 -30.85806641 192.57803711 -29.89550781 192.43310547 C-27.85939047 192.12854626 -25.82216417 191.83135451 -23.78417969 191.53955078 C-22.72875977 191.3795459 -21.67333984 191.21954102 -20.5859375 191.0546875 C-19.15967041 190.84561768 -19.15967041 190.84561768 -17.70458984 190.63232422 C-12.29860884 189.36842362 -7.76792237 186.55366565 -4.59375 181.96875 C-1.62781531 176.2911036 -0.87446223 171.39459712 -0.84178162 164.98919678 C-0.83684364 164.28340807 -0.83190566 163.57761937 -0.82681805 162.85044312 C-0.81146219 160.48590974 -0.80308762 158.12140347 -0.79467773 155.75683594 C-0.78509771 154.06168377 -0.77508755 152.366534 -0.76467896 150.67138672 C-0.73763734 146.06847984 -0.71662373 141.46556271 -0.69667697 136.86262035 C-0.67481286 132.05262064 -0.64742624 127.24265248 -0.62062073 122.43267822 C-0.57069961 113.32384191 -0.52575861 104.21498807 -0.48259836 95.10611749 C-0.43322104 84.73618911 -0.37830474 74.36629239 -0.32291877 63.99639463 C-0.20910764 42.66429259 -0.10226669 21.33216031 0 0 Z " fill="#000000" transform="translate(442,52)"/>
<path d="M0 0 C0.82185249 23.6655005 1.0757085 47.31691716 0.99897289 70.99505997 C0.9921769 73.12832772 0.98612234 75.26159635 0.98029327 77.39486694 C0.943862 90.60705756 0.89798542 103.81918906 0.82861328 117.03125 C0.79402787 123.63629114 0.77027862 130.24128113 0.75840485 136.84640312 C0.7516928 140.30641824 0.73946053 143.76620755 0.71337509 147.22613525 C0.68688394 151.04929222 0.67900435 154.87207514 0.67529297 158.6953125 C0.6629361 159.81413818 0.65057922 160.93296387 0.6378479 162.08569336 C0.65863113 170.20834392 1.5869028 178.03428002 7.125 184.375 C7.64320312 185.00148437 8.16140625 185.62796875 8.6953125 186.2734375 C15.8373616 191.62392174 25.31318422 191.83556709 33.875 192.8125 C74.3079747 197.76598753 127.549853 208.68001024 155 242 C155.33 242.99 155.66 243.98 156 245 C154.41800369 245.64910154 152.83434276 246.29414694 151.25 246.9375 C149.92742187 247.47697266 149.92742187 247.47697266 148.578125 248.02734375 C144.53268882 249.55357649 142.20112056 250.40463605 138.08496094 248.76269531 C136.93353607 248.31288551 136.93353607 248.31288551 135.7588501 247.85398865 C134.50923492 247.34618614 134.50923492 247.34618614 133.234375 246.828125 C132.34989685 246.47899551 131.4654187 246.12986603 130.55413818 245.77015686 C127.61517929 244.60716993 124.68273881 243.4285748 121.75 242.25 C119.68335756 241.42888673 117.61629286 240.60883555 115.54882812 239.78979492 C111.21574789 238.07127005 106.88523188 236.34649914 102.55664062 234.61669922 C96.24653245 232.09599525 89.92923049 229.59380607 83.609375 227.09765625 C75.54631606 223.91223028 67.48495177 220.72259543 59.42578125 217.52734375 C49.94866805 213.77045758 40.46800509 210.02265579 30.98471069 206.28140259 C28.7140313 205.38546837 26.44353498 204.48907182 24.1730957 203.5925293 C16.51065866 200.56714321 8.84673505 197.54559668 1.18034363 194.53024292 C-2.83774899 192.94933362 -6.85501828 191.36633907 -10.87216187 189.78302002 C-12.82281708 189.0147758 -14.77384332 188.24747294 -16.72525024 187.48114014 C-19.4284485 186.41947831 -22.13037306 185.35463608 -24.83203125 184.2890625 C-25.64667847 183.97003967 -26.46132568 183.65101685 -27.30065918 183.32232666 C-32.88607787 181.11392213 -32.88607787 181.11392213 -34 180 C-34.10767332 178.0141621 -34.14413049 176.02445164 -34.15390015 174.03572083 C-34.16250061 172.73882324 -34.17110107 171.44192566 -34.17996216 170.10572815 C-34.18439784 168.65487711 -34.18869615 167.20402564 -34.19287109 165.75317383 C-34.20076879 164.23568533 -34.20903753 162.71819872 -34.21765137 161.20071411 C-34.24391592 156.20283818 -34.25918611 151.2049537 -34.2734375 146.20703125 C-34.27879587 144.48820172 -34.28417338 142.76937224 -34.28956985 141.05054283 C-34.31120751 133.90045937 -34.32994393 126.75037821 -34.34119225 119.60027027 C-34.35742759 109.34647885 -34.39058492 99.09306666 -34.44759309 88.83941823 C-34.48628804 81.6342683 -34.50582456 74.4292198 -34.51111281 67.22396868 C-34.5147677 62.91886803 -34.52680252 58.61417143 -34.55921555 54.30918312 C-34.58928762 50.25679394 -34.59561141 46.2050534 -34.58383179 42.15257645 C-34.58361096 40.66668086 -34.59192404 39.18075528 -34.60948563 37.69496346 C-34.75059395 25.06703925 -34.75059395 25.06703925 -31.62295532 21.19096375 C-29.04626049 19.03864155 -26.529458 17.10128545 -23.6875 15.3125 C-22.13675781 14.31669922 -22.13675781 14.31669922 -20.5546875 13.30078125 C-19.99233398 12.94064941 -19.42998047 12.58051758 -18.85058594 12.20947266 C-14.55888601 9.40458065 -10.37390657 6.43742085 -6.16870117 3.50512695 C-1.10725569 0 -1.10725569 0 0 0 Z " fill="#000000" transform="translate(73,53)"/>
</svg>
