<svg xmlns="http://www.w3.org/2000/svg" xmlns:xlink="http://www.w3.org/1999/xlink" width="800" zoomAndPan="magnify" viewBox="0 0 600 37.5" height="50" preserveAspectRatio="xMidYMid meet" version="1.0"><defs><clipPath id="886a40c27e"><path d="M 3.949219 0 L 596.050781 0 L 596.050781 14.867188 L 3.949219 14.867188 Z M 3.949219 0 " clip-rule="nonzero"/></clipPath><clipPath id="409c63e136"><path d="M 588.652344 14.867188 L 596.050781 14.867188 L 596.050781 22.269531 L 588.652344 22.269531 Z M 588.652344 14.867188 " clip-rule="nonzero"/></clipPath><clipPath id="c2d6aad5cd"><path d="M 3.949219 14.867188 L 11.347656 14.867188 L 11.347656 22.269531 L 3.949219 22.269531 Z M 3.949219 14.867188 " clip-rule="nonzero"/></clipPath><clipPath id="b49fd57c0b"><path d="M 448.203125 1.882812 L 480.683594 1.882812 L 480.683594 12.984375 L 448.203125 12.984375 Z M 448.203125 1.882812 " clip-rule="nonzero"/></clipPath><clipPath id="147eaeacc3"><path d="M 451.902344 1.882812 L 476.945312 1.882812 C 477.925781 1.882812 478.867188 2.273438 479.5625 2.96875 C 480.253906 3.660156 480.644531 4.601562 480.644531 5.582031 L 480.644531 9.285156 C 480.644531 10.265625 480.253906 11.207031 479.5625 11.902344 C 478.867188 12.59375 477.925781 12.984375 476.945312 12.984375 L 451.902344 12.984375 C 450.921875 12.984375 449.980469 12.59375 449.285156 11.902344 C 448.59375 11.207031 448.203125 10.265625 448.203125 9.285156 L 448.203125 5.582031 C 448.203125 4.601562 448.59375 3.660156 449.285156 2.96875 C 449.980469 2.273438 450.921875 1.882812 451.902344 1.882812 Z M 451.902344 1.882812 " clip-rule="nonzero"/></clipPath><clipPath id="5aaf124457"><path d="M 154.738281 1.882812 L 230.285156 1.882812 L 230.285156 12.984375 L 154.738281 12.984375 Z M 154.738281 1.882812 " clip-rule="nonzero"/></clipPath><clipPath id="e98857f159"><path d="M 158.4375 1.882812 L 226.582031 1.882812 C 227.5625 1.882812 228.503906 2.273438 229.199219 2.96875 C 229.890625 3.660156 230.28125 4.601562 230.28125 5.582031 L 230.28125 9.285156 C 230.28125 10.265625 229.890625 11.207031 229.199219 11.902344 C 228.503906 12.59375 227.5625 12.984375 226.582031 12.984375 L 158.4375 12.984375 C 157.457031 12.984375 156.515625 12.59375 155.820312 11.902344 C 155.128906 11.207031 154.738281 10.265625 154.738281 9.285156 L 154.738281 5.582031 C 154.738281 4.601562 155.128906 3.660156 155.820312 2.96875 C 156.515625 2.273438 157.457031 1.882812 158.4375 1.882812 Z M 158.4375 1.882812 " clip-rule="nonzero"/></clipPath><clipPath id="dbaf6bdf1c"><path d="M 91.910156 1.929688 L 150.324219 1.929688 L 150.324219 13.03125 L 91.910156 13.03125 Z M 91.910156 1.929688 " clip-rule="nonzero"/></clipPath><clipPath id="5eec9fc706"><path d="M 95.609375 1.929688 L 146.597656 1.929688 C 147.578125 1.929688 148.519531 2.320312 149.214844 3.011719 C 149.90625 3.707031 150.296875 4.648438 150.296875 5.628906 L 150.296875 9.332031 C 150.296875 10.3125 149.90625 11.253906 149.214844 11.945312 C 148.519531 12.640625 147.578125 13.03125 146.597656 13.03125 L 95.609375 13.03125 C 94.628906 13.03125 93.6875 12.640625 92.996094 11.945312 C 92.300781 11.253906 91.910156 10.3125 91.910156 9.332031 L 91.910156 5.628906 C 91.910156 4.648438 92.300781 3.707031 92.996094 3.011719 C 93.6875 2.320312 94.628906 1.929688 95.609375 1.929688 Z M 95.609375 1.929688 " clip-rule="nonzero"/></clipPath><clipPath id="70a13e256c"><path d="M 234.722656 1.929688 L 338.757812 1.929688 L 338.757812 13.03125 L 234.722656 13.03125 Z M 234.722656 1.929688 " clip-rule="nonzero"/></clipPath><clipPath id="b9777bf62a"><path d="M 238.421875 1.929688 L 335.019531 1.929688 C 336 1.929688 336.941406 2.320312 337.636719 3.011719 C 338.328125 3.707031 338.71875 4.648438 338.71875 5.628906 L 338.71875 9.332031 C 338.71875 10.3125 338.328125 11.253906 337.636719 11.945312 C 336.941406 12.640625 336 13.03125 335.019531 13.03125 L 238.421875 13.03125 C 237.441406 13.03125 236.5 12.640625 235.804688 11.945312 C 235.113281 11.253906 234.722656 10.3125 234.722656 9.332031 L 234.722656 5.628906 C 234.722656 4.648438 235.113281 3.707031 235.804688 3.011719 C 236.5 2.320312 237.441406 1.929688 238.421875 1.929688 Z M 238.421875 1.929688 " clip-rule="nonzero"/></clipPath><clipPath id="53cb9d2c01"><path d="M 409.226562 1.882812 L 443.789062 1.882812 L 443.789062 12.984375 L 409.226562 12.984375 Z M 409.226562 1.882812 " clip-rule="nonzero"/></clipPath><clipPath id="9a89d3dbb0"><path d="M 412.925781 1.882812 L 440.0625 1.882812 C 441.042969 1.882812 441.984375 2.273438 442.679688 2.96875 C 443.371094 3.660156 443.761719 4.601562 443.761719 5.582031 L 443.761719 9.285156 C 443.761719 10.265625 443.371094 11.207031 442.679688 11.902344 C 441.984375 12.59375 441.042969 12.984375 440.0625 12.984375 L 412.925781 12.984375 C 411.945312 12.984375 411.003906 12.59375 410.3125 11.902344 C 409.617188 11.207031 409.226562 10.265625 409.226562 9.285156 L 409.226562 5.582031 C 409.226562 4.601562 409.617188 3.660156 410.3125 2.96875 C 411.003906 2.273438 411.945312 1.882812 412.925781 1.882812 Z M 412.925781 1.882812 " clip-rule="nonzero"/></clipPath><clipPath id="a79ececbea"><path d="M 343.46875 1.882812 L 404.792969 1.882812 L 404.792969 12.984375 L 343.46875 12.984375 Z M 343.46875 1.882812 " clip-rule="nonzero"/></clipPath><clipPath id="f22679bedd"><path d="M 347.171875 1.882812 L 401.085938 1.882812 C 402.066406 1.882812 403.007812 2.273438 403.703125 2.96875 C 404.394531 3.660156 404.785156 4.601562 404.785156 5.582031 L 404.785156 9.285156 C 404.785156 10.265625 404.394531 11.207031 403.703125 11.902344 C 403.007812 12.59375 402.066406 12.984375 401.085938 12.984375 L 347.171875 12.984375 C 346.191406 12.984375 345.25 12.59375 344.554688 11.902344 C 343.859375 11.207031 343.46875 10.265625 343.46875 9.285156 L 343.46875 5.582031 C 343.46875 4.601562 343.859375 3.660156 344.554688 2.96875 C 345.25 2.273438 346.191406 1.882812 347.171875 1.882812 Z M 347.171875 1.882812 " clip-rule="nonzero"/></clipPath></defs><g clip-path="url(#886a40c27e)"><path fill="#f5e8da" d="M 3.949219 0 L 596.054688 0 L 596.054688 14.867188 L 3.949219 14.867188 Z M 3.949219 0 " fill-opacity="1" fill-rule="nonzero"/></g><g clip-path="url(#409c63e136)"><path fill="#f5e8da" d="M 596.050781 14.867188 L 596.050781 22.269531 C 595.210938 18.597656 592.320312 15.710938 588.652344 14.867188 Z M 596.050781 14.867188 " fill-opacity="1" fill-rule="nonzero"/></g><g clip-path="url(#c2d6aad5cd)"><path fill="#f5e8da" d="M 3.949219 14.867188 L 3.949219 22.269531 C 4.789062 18.597656 7.679688 15.710938 11.347656 14.867188 Z M 3.949219 14.867188 " fill-opacity="1" fill-rule="nonzero"/></g><g clip-path="url(#b49fd57c0b)"><g clip-path="url(#147eaeacc3)"><path fill="#50006c" d="M 448.203125 1.882812 L 480.640625 1.882812 L 480.640625 12.984375 L 448.203125 12.984375 Z M 448.203125 1.882812 " fill-opacity="1" fill-rule="nonzero"/></g></g><g clip-path="url(#5aaf124457)"><g clip-path="url(#e98857f159)"><path fill="#50006c" d="M 154.738281 1.882812 L 230.285156 1.882812 L 230.285156 12.984375 L 154.738281 12.984375 Z M 154.738281 1.882812 " fill-opacity="1" fill-rule="nonzero"/></g></g><g clip-path="url(#dbaf6bdf1c)"><g clip-path="url(#5eec9fc706)"><path fill="#50006c" d="M 91.910156 1.929688 L 150.28125 1.929688 L 150.28125 13.03125 L 91.910156 13.03125 Z M 91.910156 1.929688 " fill-opacity="1" fill-rule="nonzero"/></g></g><g clip-path="url(#70a13e256c)"><g clip-path="url(#b9777bf62a)"><path fill="#50006c" d="M 234.722656 1.929688 L 338.714844 1.929688 L 338.714844 13.03125 L 234.722656 13.03125 Z M 234.722656 1.929688 " fill-opacity="1" fill-rule="nonzero"/></g></g><g clip-path="url(#53cb9d2c01)"><g clip-path="url(#9a89d3dbb0)"><path fill="#50006c" d="M 409.226562 1.882812 L 443.746094 1.882812 L 443.746094 12.984375 L 409.226562 12.984375 Z M 409.226562 1.882812 " fill-opacity="1" fill-rule="nonzero"/></g></g><g clip-path="url(#a79ececbea)"><g clip-path="url(#f22679bedd)"><path fill="#50006c" d="M 343.46875 1.882812 L 404.792969 1.882812 L 404.792969 12.984375 L 343.46875 12.984375 Z M 343.46875 1.882812 " fill-opacity="1" fill-rule="nonzero"/></g></g></svg>