<svg xmlns="http://www.w3.org/2000/svg" xmlns:xlink="http://www.w3.org/1999/xlink" width="800" zoomAndPan="magnify" viewBox="0 0 600 37.5" height="50" preserveAspectRatio="xMidYMid meet" version="1.0"><defs><clipPath id="6b40cc4a5d"><path d="M 3.949219 0 L 596.050781 0 L 596.050781 14.867188 L 3.949219 14.867188 Z M 3.949219 0 " clip-rule="nonzero"/></clipPath><clipPath id="320bb3e0ef"><path d="M 588.652344 14.867188 L 596.050781 14.867188 L 596.050781 22.269531 L 588.652344 22.269531 Z M 588.652344 14.867188 " clip-rule="nonzero"/></clipPath><clipPath id="6596a909c6"><path d="M 3.949219 14.867188 L 11.347656 14.867188 L 11.347656 22.269531 L 3.949219 22.269531 Z M 3.949219 14.867188 " clip-rule="nonzero"/></clipPath><clipPath id="3cca02b897"><path d="M 47.261719 1.882812 L 105.675781 1.882812 L 105.675781 12.984375 L 47.261719 12.984375 Z M 47.261719 1.882812 " clip-rule="nonzero"/></clipPath><clipPath id="ade41a2768"><path d="M 50.960938 1.882812 L 101.949219 1.882812 C 102.929688 1.882812 103.871094 2.273438 104.566406 2.96875 C 105.257812 3.660156 105.648438 4.601562 105.648438 5.582031 L 105.648438 9.285156 C 105.648438 10.265625 105.257812 11.207031 104.566406 11.902344 C 103.871094 12.59375 102.929688 12.984375 101.949219 12.984375 L 50.960938 12.984375 C 49.980469 12.984375 49.039062 12.59375 48.347656 11.902344 C 47.652344 11.207031 47.261719 10.265625 47.261719 9.285156 L 47.261719 5.582031 C 47.261719 4.601562 47.652344 3.660156 48.347656 2.96875 C 49.039062 2.273438 49.980469 1.882812 50.960938 1.882812 Z M 50.960938 1.882812 " clip-rule="nonzero"/></clipPath><clipPath id="4d42e9189c"><path d="M 11.347656 1.882812 L 42.269531 1.882812 L 42.269531 12.984375 L 11.347656 12.984375 Z M 11.347656 1.882812 " clip-rule="nonzero"/></clipPath><clipPath id="222b969f50"><path d="M 15.050781 1.882812 L 38.539062 1.882812 C 39.523438 1.882812 40.460938 2.273438 41.15625 2.96875 C 41.851562 3.660156 42.242188 4.601562 42.242188 5.582031 L 42.242188 9.285156 C 42.242188 10.265625 41.851562 11.207031 41.15625 11.902344 C 40.460938 12.59375 39.523438 12.984375 38.539062 12.984375 L 15.050781 12.984375 C 14.066406 12.984375 13.125 12.59375 12.433594 11.902344 C 11.738281 11.207031 11.347656 10.265625 11.347656 9.285156 L 11.347656 5.582031 C 11.347656 4.601562 11.738281 3.660156 12.433594 2.96875 C 13.125 2.273438 14.066406 1.882812 15.050781 1.882812 Z M 15.050781 1.882812 " clip-rule="nonzero"/></clipPath><clipPath id="80d3dc1549"><path d="M 270.808594 1.882812 L 329.222656 1.882812 L 329.222656 12.984375 L 270.808594 12.984375 Z M 270.808594 1.882812 " clip-rule="nonzero"/></clipPath><clipPath id="7381f5c0cc"><path d="M 274.507812 1.882812 L 325.492188 1.882812 C 326.472656 1.882812 327.414062 2.273438 328.109375 2.96875 C 328.804688 3.660156 329.191406 4.601562 329.191406 5.582031 L 329.191406 9.285156 C 329.191406 10.265625 328.804688 11.207031 328.109375 11.902344 C 327.414062 12.59375 326.472656 12.984375 325.492188 12.984375 L 274.507812 12.984375 C 273.527344 12.984375 272.585938 12.59375 271.890625 11.902344 C 271.195312 11.207031 270.808594 10.265625 270.808594 9.285156 L 270.808594 5.582031 C 270.808594 4.601562 271.195312 3.660156 271.890625 2.96875 C 272.585938 2.273438 273.527344 1.882812 274.507812 1.882812 Z M 274.507812 1.882812 " clip-rule="nonzero"/></clipPath><clipPath id="766058abdb"><path d="M 388.855469 1.882812 L 440.984375 1.882812 L 440.984375 12.984375 L 388.855469 12.984375 Z M 388.855469 1.882812 " clip-rule="nonzero"/></clipPath><clipPath id="4874650b07"><path d="M 392.554688 1.882812 L 437.265625 1.882812 C 438.246094 1.882812 439.1875 2.273438 439.882812 2.96875 C 440.574219 3.660156 440.964844 4.601562 440.964844 5.582031 L 440.964844 9.285156 C 440.964844 10.265625 440.574219 11.207031 439.882812 11.902344 C 439.1875 12.59375 438.246094 12.984375 437.265625 12.984375 L 392.554688 12.984375 C 391.574219 12.984375 390.632812 12.59375 389.941406 11.902344 C 389.246094 11.207031 388.855469 10.265625 388.855469 9.285156 L 388.855469 5.582031 C 388.855469 4.601562 389.246094 3.660156 389.941406 2.96875 C 390.632812 2.273438 391.574219 1.882812 392.554688 1.882812 Z M 392.554688 1.882812 " clip-rule="nonzero"/></clipPath><clipPath id="214402834b"><path d="M 488.300781 1.882812 L 582.625 1.882812 L 582.625 12.984375 L 488.300781 12.984375 Z M 488.300781 1.882812 " clip-rule="nonzero"/></clipPath><clipPath id="c99a95a32e"><path d="M 492 1.882812 L 578.898438 1.882812 C 579.882812 1.882812 580.824219 2.273438 581.515625 2.96875 C 582.210938 3.660156 582.601562 4.601562 582.601562 5.582031 L 582.601562 9.285156 C 582.601562 10.265625 582.210938 11.207031 581.515625 11.902344 C 580.824219 12.59375 579.882812 12.984375 578.898438 12.984375 L 492 12.984375 C 491.019531 12.984375 490.078125 12.59375 489.382812 11.902344 C 488.691406 11.207031 488.300781 10.265625 488.300781 9.285156 L 488.300781 5.582031 C 488.300781 4.601562 488.691406 3.660156 489.382812 2.96875 C 490.078125 2.273438 491.019531 1.882812 492 1.882812 Z M 492 1.882812 " clip-rule="nonzero"/></clipPath><clipPath id="e1debc81cf"><path d="M 446.148438 1.882812 L 483.140625 1.882812 L 483.140625 12.984375 L 446.148438 12.984375 Z M 446.148438 1.882812 " clip-rule="nonzero"/></clipPath><clipPath id="b1fb389ede"><path d="M 449.847656 1.882812 L 479.417969 1.882812 C 480.402344 1.882812 481.34375 2.273438 482.035156 2.96875 C 482.730469 3.660156 483.121094 4.601562 483.121094 5.582031 L 483.121094 9.285156 C 483.121094 10.265625 482.730469 11.207031 482.035156 11.902344 C 481.34375 12.59375 480.402344 12.984375 479.417969 12.984375 L 449.847656 12.984375 C 448.867188 12.984375 447.925781 12.59375 447.230469 11.902344 C 446.535156 11.207031 446.148438 10.265625 446.148438 9.285156 L 446.148438 5.582031 C 446.148438 4.601562 446.535156 3.660156 447.230469 2.96875 C 447.925781 2.273438 448.867188 1.882812 449.847656 1.882812 Z M 449.847656 1.882812 " clip-rule="nonzero"/></clipPath><clipPath id="39f2762d77"><path d="M 110.828125 5.527344 L 162.941406 5.527344 L 162.941406 9.703125 L 110.828125 9.703125 Z M 110.828125 5.527344 " clip-rule="nonzero"/></clipPath><clipPath id="295ed942cd"><path d="M 112.917969 5.527344 L 160.851562 5.527344 C 162.003906 5.527344 162.941406 6.460938 162.941406 7.613281 C 162.941406 8.769531 162.003906 9.703125 160.851562 9.703125 L 112.917969 9.703125 C 111.765625 9.703125 110.828125 8.769531 110.828125 7.613281 C 110.828125 6.460938 111.765625 5.527344 112.917969 5.527344 Z M 112.917969 5.527344 " clip-rule="nonzero"/></clipPath><clipPath id="059f79bfde"><path d="M 110.828125 1.882812 L 151.261719 1.882812 L 151.261719 13.34375 L 110.828125 13.34375 Z M 110.828125 1.882812 " clip-rule="nonzero"/></clipPath><clipPath id="045cb960df"><path d="M 116.5625 1.882812 L 145.492188 1.882812 C 147.011719 1.882812 148.46875 2.488281 149.542969 3.5625 C 150.621094 4.636719 151.222656 6.09375 151.222656 7.613281 C 151.222656 9.132812 150.621094 10.59375 149.542969 11.667969 C 148.46875 12.742188 147.011719 13.34375 145.492188 13.34375 L 116.5625 13.34375 C 115.039062 13.34375 113.582031 12.742188 112.507812 11.667969 C 111.433594 10.59375 110.828125 9.132812 110.828125 7.613281 C 110.828125 6.09375 111.433594 4.636719 112.507812 3.5625 C 113.582031 2.488281 115.039062 1.882812 116.5625 1.882812 Z M 116.5625 1.882812 " clip-rule="nonzero"/></clipPath></defs><g clip-path="url(#6b40cc4a5d)"><path fill="#f5e8da" d="M 3.949219 0 L 596.054688 0 L 596.054688 14.867188 L 3.949219 14.867188 Z M 3.949219 0 " fill-opacity="1" fill-rule="nonzero"/></g><g clip-path="url(#320bb3e0ef)"><path fill="#f5e8da" d="M 596.050781 14.867188 L 596.050781 22.269531 C 595.210938 18.597656 592.320312 15.710938 588.652344 14.867188 Z M 596.050781 14.867188 " fill-opacity="1" fill-rule="nonzero"/></g><g clip-path="url(#6596a909c6)"><path fill="#f5e8da" d="M 3.949219 14.867188 L 3.949219 22.269531 C 4.789062 18.597656 7.679688 15.710938 11.347656 14.867188 Z M 3.949219 14.867188 " fill-opacity="1" fill-rule="nonzero"/></g><g clip-path="url(#3cca02b897)"><g clip-path="url(#ade41a2768)"><path fill="#50006c" d="M 47.261719 1.882812 L 105.632812 1.882812 L 105.632812 12.984375 L 47.261719 12.984375 Z M 47.261719 1.882812 " fill-opacity="1" fill-rule="nonzero"/></g></g><g clip-path="url(#4d42e9189c)"><g clip-path="url(#222b969f50)"><path fill="#50006c" d="M 11.347656 1.882812 L 42.226562 1.882812 L 42.226562 12.984375 L 11.347656 12.984375 Z M 11.347656 1.882812 " fill-opacity="1" fill-rule="nonzero"/></g></g><g clip-path="url(#80d3dc1549)"><g clip-path="url(#7381f5c0cc)"><path fill="#50006c" d="M 270.808594 1.882812 L 329.179688 1.882812 L 329.179688 12.984375 L 270.808594 12.984375 Z M 270.808594 1.882812 " fill-opacity="1" fill-rule="nonzero"/></g></g><g clip-path="url(#766058abdb)"><g clip-path="url(#4874650b07)"><path fill="#50006c" d="M 388.855469 1.882812 L 440.984375 1.882812 L 440.984375 12.984375 L 388.855469 12.984375 Z M 388.855469 1.882812 " fill-opacity="1" fill-rule="nonzero"/></g></g><g clip-path="url(#214402834b)"><g clip-path="url(#c99a95a32e)"><path fill="#50006c" d="M 488.300781 1.882812 L 582.582031 1.882812 L 582.582031 12.984375 L 488.300781 12.984375 Z M 488.300781 1.882812 " fill-opacity="1" fill-rule="nonzero"/></g></g><g clip-path="url(#e1debc81cf)"><g clip-path="url(#b1fb389ede)"><path fill="#50006c" d="M 446.148438 1.882812 L 483.140625 1.882812 L 483.140625 12.984375 L 446.148438 12.984375 Z M 446.148438 1.882812 " fill-opacity="1" fill-rule="nonzero"/></g></g><g clip-path="url(#39f2762d77)"><g clip-path="url(#295ed942cd)"><path fill="#50006c" d="M 110.828125 5.527344 L 162.941406 5.527344 L 162.941406 9.703125 L 110.828125 9.703125 Z M 110.828125 5.527344 " fill-opacity="1" fill-rule="nonzero"/></g></g><g clip-path="url(#059f79bfde)"><g clip-path="url(#045cb960df)"><path fill="#50006c" d="M 110.828125 1.882812 L 151.21875 1.882812 L 151.21875 13.34375 L 110.828125 13.34375 Z M 110.828125 1.882812 " fill-opacity="1" fill-rule="nonzero"/></g></g></svg>