<svg xmlns="http://www.w3.org/2000/svg" xmlns:xlink="http://www.w3.org/1999/xlink" width="80" zoomAndPan="magnify" viewBox="0 0 60 374.999991" height="500" preserveAspectRatio="xMidYMid meet" version="1.0"><defs><g/><clipPath id="6341e2b2dc"><path d="M 0 0 L 19.128906 0 L 19.128906 375 L 0 375 Z M 0 0 " clip-rule="nonzero"/></clipPath><clipPath id="5211548e0c"><path d="M 2.257812 133.5 L 15.902344 133.5 L 15.902344 241.511719 L 2.257812 241.511719 Z M 2.257812 133.5 " clip-rule="nonzero"/></clipPath><clipPath id="47f44557b6"><path d="M 5.257812 133.5 L 12.902344 133.5 C 13.695312 133.5 14.460938 133.816406 15.023438 134.378906 C 15.585938 134.941406 15.902344 135.707031 15.902344 136.5 L 15.902344 238.5 C 15.902344 239.292969 15.585938 240.058594 15.023438 240.621094 C 14.460938 241.183594 13.695312 241.5 12.902344 241.5 L 5.257812 241.5 C 4.464844 241.5 3.699219 241.183594 3.136719 240.621094 C 2.574219 240.058594 2.257812 239.292969 2.257812 238.5 L 2.257812 136.5 C 2.257812 135.707031 2.574219 134.941406 3.136719 134.378906 C 3.699219 133.816406 4.464844 133.5 5.257812 133.5 Z M 5.257812 133.5 " clip-rule="nonzero"/></clipPath><clipPath id="b9ce9895d2"><path d="M 2.464844 26.335938 L 15.691406 26.335938 L 15.691406 73.921875 L 2.464844 73.921875 Z M 2.464844 26.335938 " clip-rule="nonzero"/></clipPath><clipPath id="f47dd52a12"><path d="M 5.464844 26.335938 L 12.691406 26.335938 C 13.488281 26.335938 14.25 26.652344 14.8125 27.214844 C 15.378906 27.777344 15.691406 28.542969 15.691406 29.335938 L 15.691406 70.886719 C 15.691406 71.683594 15.378906 72.449219 14.8125 73.011719 C 14.25 73.574219 13.488281 73.886719 12.691406 73.886719 L 5.464844 73.886719 C 4.671875 73.886719 3.90625 73.574219 3.34375 73.011719 C 2.78125 72.449219 2.464844 71.683594 2.464844 70.886719 L 2.464844 29.335938 C 2.464844 28.542969 2.78125 27.777344 3.34375 27.214844 C 3.90625 26.652344 4.671875 26.335938 5.464844 26.335938 Z M 5.464844 26.335938 " clip-rule="nonzero"/></clipPath><clipPath id="519daa977e"><path d="M 1.636719 4.757812 L 17.492188 4.757812 L 17.492188 20.613281 L 1.636719 20.613281 Z M 1.636719 4.757812 " clip-rule="nonzero"/></clipPath><clipPath id="138ec957e1"><path d="M 9.5625 4.757812 C 5.1875 4.757812 1.636719 8.304688 1.636719 12.683594 C 1.636719 17.0625 5.1875 20.613281 9.5625 20.613281 C 13.941406 20.613281 17.492188 17.0625 17.492188 12.683594 C 17.492188 8.304688 13.941406 4.757812 9.5625 4.757812 Z M 9.5625 4.757812 " clip-rule="nonzero"/></clipPath><clipPath id="1f38945d55"><path d="M 3.683594 7.125 L 14.800781 7.125 L 14.800781 18.242188 L 3.683594 18.242188 Z M 3.683594 7.125 " clip-rule="nonzero"/></clipPath><clipPath id="5b0778b317"><path d="M 9.242188 7.125 C 6.171875 7.125 3.683594 9.613281 3.683594 12.683594 C 3.683594 15.753906 6.171875 18.242188 9.242188 18.242188 C 12.3125 18.242188 14.800781 15.753906 14.800781 12.683594 C 14.800781 9.613281 12.3125 7.125 9.242188 7.125 Z M 9.242188 7.125 " clip-rule="nonzero"/></clipPath><clipPath id="e74ddb1df7"><path d="M 3.160156 329.386719 L 16.386719 329.386719 L 16.386719 370.101562 L 3.160156 370.101562 Z M 3.160156 329.386719 " clip-rule="nonzero"/></clipPath><clipPath id="3e1b2a399b"><path d="M 6.160156 329.386719 L 13.386719 329.386719 C 14.179688 329.386719 14.945312 329.703125 15.507812 330.265625 C 16.070312 330.828125 16.386719 331.589844 16.386719 332.386719 L 16.386719 367.066406 C 16.386719 367.863281 16.070312 368.625 15.507812 369.1875 C 14.945312 369.75 14.179688 370.066406 13.386719 370.066406 L 6.160156 370.066406 C 5.363281 370.066406 4.601562 369.75 4.039062 369.1875 C 3.472656 368.625 3.160156 367.863281 3.160156 367.066406 L 3.160156 332.386719 C 3.160156 331.589844 3.472656 330.828125 4.039062 330.265625 C 4.601562 329.703125 5.363281 329.386719 6.160156 329.386719 Z M 6.160156 329.386719 " clip-rule="nonzero"/></clipPath><clipPath id="f1ad250d4b"><path d="M 5.601562 315.316406 L 13.101562 315.316406 L 13.101562 323.566406 L 5.601562 323.566406 Z M 5.601562 315.316406 " clip-rule="nonzero"/></clipPath><clipPath id="661ad30c19"><path d="M 5.378906 298.488281 L 12 298.488281 L 12 309.738281 L 5.378906 309.738281 Z M 5.378906 298.488281 " clip-rule="nonzero"/></clipPath><clipPath id="f67ec280bb"><path d="M 6.421875 33.410156 L 11.507812 33.410156 L 11.507812 40.160156 L 6.421875 40.160156 Z M 6.421875 33.410156 " clip-rule="nonzero"/></clipPath><clipPath id="64bb5107e8"><path d="M 7.039062 55.632812 L 12.289062 55.632812 L 12.289062 62.382812 L 7.039062 62.382812 Z M 7.039062 55.632812 " clip-rule="nonzero"/></clipPath><clipPath id="cbe76a8f2d"><path d="M 9 43.867188 L 11.054688 43.867188 L 11.054688 49.867188 L 9 49.867188 Z M 9 43.867188 " clip-rule="nonzero"/></clipPath><clipPath id="7a6460d660"><path d="M 6.554688 43.867188 L 9 43.867188 L 9 49.867188 L 6.554688 49.867188 Z M 6.554688 43.867188 " clip-rule="nonzero"/></clipPath><clipPath id="dc81fe3ecb"><path d="M 17.492188 0.046875 L 29.492188 0.046875 L 29.492188 12.046875 L 17.492188 12.046875 Z M 17.492188 0.046875 " clip-rule="nonzero"/></clipPath><clipPath id="15385e904e"><path d="M 17.492188 363.046875 L 29.492188 363.046875 L 29.492188 374.941406 L 17.492188 374.941406 Z M 17.492188 363.046875 " clip-rule="nonzero"/></clipPath><clipPath id="9c1584b794"><path d="M 7.375 9.484375 L 11.875 9.484375 L 11.875 18.484375 L 7.375 18.484375 Z M 7.375 9.484375 " clip-rule="nonzero"/></clipPath></defs><g clip-path="url(#6341e2b2dc)"><path fill="#f5e8da" d="M 0 0 L 19.128906 0 L 19.128906 375.023438 L 0 375.023438 Z M 0 0 " fill-opacity="1" fill-rule="nonzero"/></g><g clip-path="url(#5211548e0c)"><g clip-path="url(#47f44557b6)"><path fill="#50006c" d="M 2.257812 133.5 L 15.902344 133.5 L 15.902344 241.511719 L 2.257812 241.511719 Z M 2.257812 133.5 " fill-opacity="1" fill-rule="nonzero"/></g></g><g clip-path="url(#b9ce9895d2)"><g clip-path="url(#f47dd52a12)"><path fill="#50006c" d="M 2.464844 26.335938 L 15.691406 26.335938 L 15.691406 73.871094 L 2.464844 73.871094 Z M 2.464844 26.335938 " fill-opacity="1" fill-rule="nonzero"/></g></g><g clip-path="url(#519daa977e)"><g clip-path="url(#138ec957e1)"><path fill="#50006c" d="M 1.636719 4.757812 L 17.492188 4.757812 L 17.492188 20.613281 L 1.636719 20.613281 Z M 1.636719 4.757812 " fill-opacity="1" fill-rule="nonzero"/></g></g><g clip-path="url(#1f38945d55)"><g clip-path="url(#5b0778b317)"><path fill="#f5e8da" d="M 3.683594 7.125 L 14.800781 7.125 L 14.800781 18.242188 L 3.683594 18.242188 Z M 3.683594 7.125 " fill-opacity="1" fill-rule="nonzero"/></g></g><g clip-path="url(#e74ddb1df7)"><g clip-path="url(#3e1b2a399b)"><path fill="#50006c" d="M 3.160156 329.386719 L 16.386719 329.386719 L 16.386719 370.046875 L 3.160156 370.046875 Z M 3.160156 329.386719 " fill-opacity="1" fill-rule="nonzero"/></g></g><g clip-path="url(#f1ad250d4b)"><path fill="#50006c" d="M 9.261719 323.585938 C 9.617188 323.585938 9.941406 323.378906 10.089844 323.058594 L 13.085938 316.699219 C 13.101562 316.660156 13.113281 316.617188 13.113281 316.570312 C 13.113281 316.277344 12.933594 316.046875 12.71875 315.878906 C 12.503906 315.707031 12.207031 315.566406 11.867188 315.453125 C 11.1875 315.226562 10.265625 315.089844 9.261719 315.089844 C 8.253906 315.089844 7.332031 315.226562 6.652344 315.453125 C 6.3125 315.566406 6.015625 315.707031 5.800781 315.878906 C 5.585938 316.046875 5.40625 316.277344 5.40625 316.570312 C 5.40625 316.617188 5.417969 316.660156 5.433594 316.699219 L 8.429688 323.058594 C 8.578125 323.378906 8.902344 323.585938 9.261719 323.585938 Z M 9.261719 323.585938 " fill-opacity="1" fill-rule="evenodd"/></g><g clip-path="url(#661ad30c19)"><path fill="#50006c" d="M 8.722656 298.507812 C 8.570312 298.503906 8.4375 298.554688 8.324219 298.660156 C 8.214844 298.769531 8.160156 298.898438 8.160156 299.054688 L 8.160156 302.554688 L 6.355469 300.839844 C 6.246094 300.730469 6.113281 300.679688 5.957031 300.683594 C 5.714844 300.691406 5.546875 300.808594 5.460938 301.039062 C 5.375 301.265625 5.421875 301.464844 5.601562 301.628906 L 8.054688 303.960938 L 5.601562 306.292969 C 5.492188 306.394531 5.4375 306.523438 5.433594 306.675781 C 5.429688 306.824219 5.480469 306.953125 5.582031 307.0625 C 5.6875 307.171875 5.816406 307.230469 5.964844 307.234375 C 6.117188 307.238281 6.246094 307.1875 6.355469 307.082031 L 8.160156 305.367188 L 8.160156 308.867188 C 8.160156 309.105469 8.265625 309.269531 8.484375 309.367188 C 8.699219 309.464844 8.894531 309.433594 9.070312 309.273438 L 11.796875 306.820312 C 11.914062 306.714844 11.976562 306.582031 11.976562 306.421875 C 11.980469 306.265625 11.921875 306.128906 11.808594 306.019531 L 9.640625 303.960938 L 11.808594 301.902344 C 11.921875 301.792969 11.980469 301.660156 11.976562 301.5 C 11.976562 301.339844 11.914062 301.207031 11.796875 301.101562 L 9.070312 298.648438 C 8.972656 298.558594 8.855469 298.511719 8.722656 298.507812 Z M 9.25 300.277344 L 10.628906 301.519531 L 9.25 302.828125 Z M 9.25 305.09375 L 10.628906 306.402344 L 9.25 307.644531 Z M 9.25 305.09375 " fill-opacity="1" fill-rule="nonzero"/></g><g clip-path="url(#f67ec280bb)"><path fill="#f5e8da" d="M 6.722656 33.433594 C 6.867188 33.433594 6.941406 33.503906 6.941406 33.652344 L 6.941406 36.523438 L 11.101562 33.472656 C 11.171875 33.421875 11.25 33.414062 11.332031 33.457031 C 11.410156 33.496094 11.453125 33.5625 11.453125 33.652344 L 11.453125 40.265625 C 11.453125 40.359375 11.410156 40.421875 11.332031 40.464844 C 11.25 40.503906 11.171875 40.5 11.101562 40.445312 L 6.941406 37.394531 L 6.941406 40.265625 C 6.941406 40.414062 6.867188 40.488281 6.722656 40.488281 C 6.574219 40.488281 6.5 40.414062 6.5 40.265625 L 6.5 33.652344 C 6.5 33.503906 6.574219 33.433594 6.722656 33.433594 Z M 6.722656 33.433594 " fill-opacity="1" fill-rule="nonzero"/></g><g clip-path="url(#64bb5107e8)"><path fill="#f5e8da" d="M 11.789062 55.65625 C 11.644531 55.65625 11.570312 55.726562 11.570312 55.875 L 11.570312 58.722656 L 7.445312 55.699219 C 7.375 55.644531 7.296875 55.636719 7.21875 55.679688 C 7.136719 55.71875 7.097656 55.785156 7.097656 55.875 L 7.097656 62.433594 C 7.097656 62.523438 7.136719 62.589844 7.21875 62.628906 C 7.296875 62.671875 7.375 62.664062 7.445312 62.609375 L 11.570312 59.585938 L 11.570312 62.433594 C 11.570312 62.582031 11.644531 62.652344 11.789062 62.652344 C 11.9375 62.652344 12.007812 62.582031 12.007812 62.433594 L 12.007812 55.875 C 12.007812 55.726562 11.9375 55.65625 11.789062 55.65625 Z M 11.789062 55.65625 " fill-opacity="1" fill-rule="nonzero"/></g><g clip-path="url(#cbe76a8f2d)"><path fill="#f5e8da" d="M 10.023438 43.867188 L 10.84375 43.867188 C 10.980469 43.867188 11.09375 43.914062 11.191406 44.011719 C 11.289062 44.105469 11.335938 44.222656 11.335938 44.359375 L 11.335938 49.609375 C 11.335938 49.746094 11.289062 49.859375 11.191406 49.957031 C 11.09375 50.054688 10.980469 50.101562 10.84375 50.101562 L 10.023438 50.101562 C 9.886719 50.101562 9.769531 50.054688 9.675781 49.957031 C 9.578125 49.859375 9.53125 49.746094 9.53125 49.609375 L 9.53125 44.359375 C 9.53125 44.222656 9.578125 44.105469 9.675781 44.011719 C 9.769531 43.914062 9.886719 43.867188 10.023438 43.867188 Z M 10.023438 43.867188 " fill-opacity="1" fill-rule="nonzero"/></g><g clip-path="url(#7a6460d660)"><path fill="#f5e8da" d="M 7.070312 43.867188 L 7.890625 43.867188 C 8.027344 43.867188 8.140625 43.914062 8.238281 44.011719 C 8.335938 44.105469 8.382812 44.222656 8.382812 44.359375 L 8.382812 49.609375 C 8.382812 49.746094 8.335938 49.859375 8.238281 49.957031 C 8.140625 50.054688 8.027344 50.101562 7.890625 50.101562 L 7.070312 50.101562 C 6.933594 50.101562 6.816406 50.054688 6.722656 49.957031 C 6.625 49.859375 6.578125 49.746094 6.578125 49.609375 L 6.578125 44.359375 C 6.578125 44.222656 6.625 44.105469 6.722656 44.011719 C 6.816406 43.914062 6.933594 43.867188 7.070312 43.867188 Z M 7.070312 43.867188 " fill-opacity="1" fill-rule="nonzero"/></g><g clip-path="url(#dc81fe3ecb)"><path fill="#f5e8da" d="M 17.492188 -0.0585938 L 29.597656 -0.0585938 C 23.59375 1.320312 18.871094 6.042969 17.492188 12.046875 Z M 17.492188 -0.0585938 " fill-opacity="1" fill-rule="nonzero"/></g><g fill="#f5e8da" fill-opacity="1"><g transform="translate(4.955315, 347.063675)"><g><path d="M 0.4375 0 L 0.4375 -0.59375 L 2.09375 -0.59375 L 2.09375 -5.234375 L 2 -5.265625 C 1.726562 -5.128906 1.488281 -5.023438 1.28125 -4.953125 C 1.082031 -4.890625 0.828125 -4.820312 0.515625 -4.75 L 0.515625 -5.40625 C 0.828125 -5.476562 1.132812 -5.566406 1.4375 -5.671875 C 1.75 -5.785156 2.03125 -5.921875 2.28125 -6.078125 L 2.796875 -6.078125 L 2.796875 -0.59375 L 4.28125 -0.59375 L 4.28125 0 Z M 0.4375 0 "/></g></g></g><g fill="#f5e8da" fill-opacity="1"><g transform="translate(9.490358, 347.063675)"><g><path d="M 0.359375 -0.28125 C 0.359375 -0.613281 0.394531 -0.878906 0.46875 -1.078125 C 0.550781 -1.285156 0.679688 -1.476562 0.859375 -1.65625 C 1.035156 -1.832031 1.316406 -2.066406 1.703125 -2.359375 L 2.375 -2.84375 C 2.613281 -3.019531 2.8125 -3.179688 2.96875 -3.328125 C 3.125 -3.484375 3.242188 -3.648438 3.328125 -3.828125 C 3.421875 -4.015625 3.46875 -4.21875 3.46875 -4.4375 C 3.46875 -4.800781 3.375 -5.070312 3.1875 -5.25 C 3 -5.4375 2.703125 -5.53125 2.296875 -5.53125 C 1.972656 -5.53125 1.6875 -5.453125 1.4375 -5.296875 C 1.1875 -5.148438 0.984375 -4.941406 0.828125 -4.671875 L 0.734375 -4.65625 L 0.3125 -5.09375 C 0.519531 -5.425781 0.789062 -5.6875 1.125 -5.875 C 1.457031 -6.070312 1.847656 -6.171875 2.296875 -6.171875 C 2.722656 -6.171875 3.078125 -6.09375 3.359375 -5.9375 C 3.648438 -5.789062 3.863281 -5.585938 4 -5.328125 C 4.132812 -5.078125 4.203125 -4.78125 4.203125 -4.4375 C 4.203125 -4.164062 4.144531 -3.910156 4.03125 -3.671875 C 3.914062 -3.441406 3.753906 -3.222656 3.546875 -3.015625 C 3.335938 -2.804688 3.078125 -2.585938 2.765625 -2.359375 L 2.09375 -1.859375 C 1.84375 -1.671875 1.648438 -1.507812 1.515625 -1.375 C 1.378906 -1.25 1.28125 -1.125 1.21875 -1 C 1.15625 -0.875 1.125 -0.738281 1.125 -0.59375 L 4.203125 -0.59375 L 4.203125 0 L 0.359375 0 Z M 0.359375 -0.28125 "/></g></g></g><g fill="#f5e8da" fill-opacity="1"><g transform="translate(5.236224, 357.717385)"><g><path d="M 2.34375 0 C 2.289062 0 2.242188 -0.015625 2.203125 -0.046875 C 2.171875 -0.0859375 2.15625 -0.140625 2.15625 -0.203125 L 2.15625 -4.96875 L 0.734375 -3.875 C 0.691406 -3.84375 0.644531 -3.828125 0.59375 -3.828125 C 0.539062 -3.835938 0.5 -3.863281 0.46875 -3.90625 L 0.25 -4.1875 C 0.21875 -4.238281 0.203125 -4.289062 0.203125 -4.34375 C 0.210938 -4.394531 0.242188 -4.4375 0.296875 -4.46875 L 2.140625 -5.90625 C 2.179688 -5.925781 2.21875 -5.9375 2.25 -5.9375 C 2.289062 -5.945312 2.332031 -5.953125 2.375 -5.953125 L 2.796875 -5.953125 C 2.859375 -5.953125 2.90625 -5.929688 2.9375 -5.890625 C 2.976562 -5.859375 3 -5.816406 3 -5.765625 L 3 -0.203125 C 3 -0.140625 2.976562 -0.0859375 2.9375 -0.046875 C 2.90625 -0.015625 2.859375 0 2.796875 0 Z M 2.34375 0 "/></g></g></g><g fill="#f5e8da" fill-opacity="1"><g transform="translate(8.883166, 357.717385)"><g><path d="M 0.609375 0 C 0.554688 0 0.507812 -0.015625 0.46875 -0.046875 C 0.4375 -0.0859375 0.421875 -0.140625 0.421875 -0.203125 L 0.421875 -0.46875 C 0.421875 -0.519531 0.429688 -0.578125 0.453125 -0.640625 C 0.484375 -0.703125 0.539062 -0.769531 0.625 -0.84375 L 2.4375 -2.640625 C 2.726562 -2.890625 2.957031 -3.097656 3.125 -3.265625 C 3.289062 -3.441406 3.40625 -3.609375 3.46875 -3.765625 C 3.539062 -3.929688 3.578125 -4.097656 3.578125 -4.265625 C 3.578125 -4.585938 3.488281 -4.84375 3.3125 -5.03125 C 3.132812 -5.226562 2.863281 -5.328125 2.5 -5.328125 C 2.269531 -5.328125 2.070312 -5.28125 1.90625 -5.1875 C 1.75 -5.09375 1.625 -4.960938 1.53125 -4.796875 C 1.4375 -4.640625 1.375 -4.457031 1.34375 -4.25 C 1.332031 -4.175781 1.300781 -4.125 1.25 -4.09375 C 1.207031 -4.0625 1.164062 -4.046875 1.125 -4.046875 L 0.6875 -4.046875 C 0.632812 -4.046875 0.585938 -4.0625 0.546875 -4.09375 C 0.515625 -4.125 0.5 -4.164062 0.5 -4.21875 C 0.507812 -4.425781 0.554688 -4.640625 0.640625 -4.859375 C 0.722656 -5.078125 0.847656 -5.273438 1.015625 -5.453125 C 1.179688 -5.640625 1.390625 -5.785156 1.640625 -5.890625 C 1.890625 -5.992188 2.175781 -6.046875 2.5 -6.046875 C 2.945312 -6.046875 3.3125 -5.960938 3.59375 -5.796875 C 3.882812 -5.640625 4.097656 -5.425781 4.234375 -5.15625 C 4.367188 -4.894531 4.4375 -4.609375 4.4375 -4.296875 C 4.4375 -4.046875 4.394531 -3.816406 4.3125 -3.609375 C 4.226562 -3.398438 4.101562 -3.195312 3.9375 -3 C 3.78125 -2.800781 3.582031 -2.601562 3.34375 -2.40625 L 1.71875 -0.734375 L 4.375 -0.734375 C 4.4375 -0.734375 4.484375 -0.71875 4.515625 -0.6875 C 4.554688 -0.65625 4.578125 -0.609375 4.578125 -0.546875 L 4.578125 -0.203125 C 4.578125 -0.140625 4.554688 -0.0859375 4.515625 -0.046875 C 4.484375 -0.015625 4.4375 0 4.375 0 Z M 0.609375 0 "/></g></g></g><g clip-path="url(#15385e904e)"><path fill="#f5e8da" d="M 17.492188 375.046875 L 29.597656 375.046875 C 23.59375 373.667969 18.871094 368.945312 17.492188 362.941406 Z M 17.492188 375.046875 " fill-opacity="1" fill-rule="nonzero"/></g><g clip-path="url(#9c1584b794)"><path fill="#2b192e" d="M 11.257812 9.539062 L 9.082031 9.539062 C 8.953125 9.539062 8.839844 9.621094 8.792969 9.742188 L 7.449219 13.40625 C 7.375 13.609375 7.523438 13.824219 7.742188 13.824219 L 9.285156 13.824219 C 9.335938 13.824219 9.382812 13.847656 9.410156 13.886719 C 9.441406 13.929688 9.445312 13.980469 9.429688 14.027344 L 7.90625 17.875 C 7.835938 18.050781 8.074219 18.183594 8.1875 18.03125 C 9.21875 16.636719 11.054688 14.144531 11.832031 13.089844 C 11.980469 12.886719 11.832031 12.597656 11.578125 12.597656 L 10.355469 12.597656 C 10.304688 12.597656 10.253906 12.570312 10.226562 12.523438 C 10.199219 12.476562 10.195312 12.421875 10.222656 12.371094 L 11.527344 9.996094 C 11.640625 9.792969 11.492188 9.539062 11.257812 9.539062 " fill-opacity="1" fill-rule="nonzero"/></g></svg>