<svg xmlns="http://www.w3.org/2000/svg" xmlns:xlink="http://www.w3.org/1999/xlink" width="800" zoomAndPan="magnify" viewBox="0 0 600 37.5" height="50" preserveAspectRatio="xMidYMid meet" version="1.0"><defs><clipPath id="a3f9bc48f2"><path d="M 3.949219 0 L 596.050781 0 L 596.050781 14.867188 L 3.949219 14.867188 Z M 3.949219 0 " clip-rule="nonzero"/></clipPath><clipPath id="fa2e9f58a5"><path d="M 588.652344 14.867188 L 596.050781 14.867188 L 596.050781 22.269531 L 588.652344 22.269531 Z M 588.652344 14.867188 " clip-rule="nonzero"/></clipPath><clipPath id="4c6bb2b821"><path d="M 3.949219 14.867188 L 11.347656 14.867188 L 11.347656 22.269531 L 3.949219 22.269531 Z M 3.949219 14.867188 " clip-rule="nonzero"/></clipPath><clipPath id="1f2ee49b04"><path d="M 22.226562 1.882812 L 127.089844 1.882812 L 127.089844 12.984375 L 22.226562 12.984375 Z M 22.226562 1.882812 " clip-rule="nonzero"/></clipPath><clipPath id="2b5444b23b"><path d="M 25.929688 1.882812 L 123.363281 1.882812 C 124.34375 1.882812 125.285156 2.273438 125.980469 2.96875 C 126.671875 3.660156 127.0625 4.601562 127.0625 5.582031 L 127.0625 9.285156 C 127.0625 10.265625 126.671875 11.207031 125.980469 11.902344 C 125.285156 12.59375 124.34375 12.984375 123.363281 12.984375 L 25.929688 12.984375 C 24.949219 12.984375 24.007812 12.59375 23.3125 11.902344 C 22.617188 11.207031 22.226562 10.265625 22.226562 9.285156 L 22.226562 5.582031 C 22.226562 4.601562 22.617188 3.660156 23.3125 2.96875 C 24.007812 2.273438 24.949219 1.882812 25.929688 1.882812 Z M 25.929688 1.882812 " clip-rule="nonzero"/></clipPath><clipPath id="8682e02107"><path d="M 257.992188 1.882812 L 341.519531 1.882812 L 341.519531 12.984375 L 257.992188 12.984375 Z M 257.992188 1.882812 " clip-rule="nonzero"/></clipPath><clipPath id="d05a7b7c03"><path d="M 261.695312 1.882812 L 337.785156 1.882812 C 338.769531 1.882812 339.710938 2.273438 340.402344 2.96875 C 341.097656 3.660156 341.488281 4.601562 341.488281 5.582031 L 341.488281 9.285156 C 341.488281 10.265625 341.097656 11.207031 340.402344 11.902344 C 339.710938 12.59375 338.769531 12.984375 337.785156 12.984375 L 261.695312 12.984375 C 260.710938 12.984375 259.773438 12.59375 259.078125 11.902344 C 258.382812 11.207031 257.992188 10.265625 257.992188 9.285156 L 257.992188 5.582031 C 257.992188 4.601562 258.382812 3.660156 259.078125 2.96875 C 259.773438 2.273438 260.710938 1.882812 261.695312 1.882812 Z M 261.695312 1.882812 " clip-rule="nonzero"/></clipPath><clipPath id="be59cc725a"><path d="M 557.117188 1.882812 L 588.691406 1.882812 L 588.691406 12.984375 L 557.117188 12.984375 Z M 557.117188 1.882812 " clip-rule="nonzero"/></clipPath><clipPath id="07e1d8f670"><path d="M 560.820312 1.882812 L 584.949219 1.882812 C 585.933594 1.882812 586.875 2.273438 587.566406 2.96875 C 588.261719 3.660156 588.652344 4.601562 588.652344 5.582031 L 588.652344 9.285156 C 588.652344 10.265625 588.261719 11.207031 587.566406 11.902344 C 586.875 12.59375 585.933594 12.984375 584.949219 12.984375 L 560.820312 12.984375 C 559.835938 12.984375 558.894531 12.59375 558.203125 11.902344 C 557.507812 11.207031 557.117188 10.265625 557.117188 9.285156 L 557.117188 5.582031 C 557.117188 4.601562 557.507812 3.660156 558.203125 2.96875 C 558.894531 2.273438 559.835938 1.882812 560.820312 1.882812 Z M 560.820312 1.882812 " clip-rule="nonzero"/></clipPath><clipPath id="0432e35180"><path d="M 267 3.699219 L 269.933594 3.699219 L 269.933594 11.101562 L 267 11.101562 Z M 267 3.699219 " clip-rule="nonzero"/></clipPath><clipPath id="74a7426cb2"><path d="M 264.011719 3.699219 L 267 3.699219 L 267 11.101562 L 264.011719 11.101562 Z M 264.011719 3.699219 " clip-rule="nonzero"/></clipPath><clipPath id="839e0567a8"><path d="M 7.648438 2.777344 L 16.964844 2.777344 L 16.964844 12.09375 L 7.648438 12.09375 Z M 7.648438 2.777344 " clip-rule="nonzero"/></clipPath><clipPath id="0f197eda24"><path d="M 12.304688 2.777344 C 9.734375 2.777344 7.648438 4.859375 7.648438 7.433594 C 7.648438 10.007812 9.734375 12.09375 12.304688 12.09375 C 14.878906 12.09375 16.964844 10.007812 16.964844 7.433594 C 16.964844 4.859375 14.878906 2.777344 12.304688 2.777344 Z M 12.304688 2.777344 " clip-rule="nonzero"/></clipPath></defs><g clip-path="url(#a3f9bc48f2)"><path fill="#f5e8da" d="M 3.949219 0 L 596.054688 0 L 596.054688 14.867188 L 3.949219 14.867188 Z M 3.949219 0 " fill-opacity="1" fill-rule="nonzero"/></g><g clip-path="url(#fa2e9f58a5)"><path fill="#f5e8da" d="M 596.050781 14.867188 L 596.050781 22.269531 C 595.210938 18.597656 592.320312 15.710938 588.652344 14.867188 Z M 596.050781 14.867188 " fill-opacity="1" fill-rule="nonzero"/></g><g clip-path="url(#4c6bb2b821)"><path fill="#f5e8da" d="M 3.949219 14.867188 L 3.949219 22.269531 C 4.789062 18.597656 7.679688 15.710938 11.347656 14.867188 Z M 3.949219 14.867188 " fill-opacity="1" fill-rule="nonzero"/></g><g clip-path="url(#1f2ee49b04)"><g clip-path="url(#2b5444b23b)"><path fill="#50006c" d="M 22.226562 1.882812 L 127.046875 1.882812 L 127.046875 12.984375 L 22.226562 12.984375 Z M 22.226562 1.882812 " fill-opacity="1" fill-rule="nonzero"/></g></g><g clip-path="url(#8682e02107)"><g clip-path="url(#d05a7b7c03)"><path fill="#50006c" d="M 257.992188 1.882812 L 341.476562 1.882812 L 341.476562 12.984375 L 257.992188 12.984375 Z M 257.992188 1.882812 " fill-opacity="1" fill-rule="nonzero"/></g></g><g clip-path="url(#be59cc725a)"><g clip-path="url(#07e1d8f670)"><path fill="#50006c" d="M 557.117188 1.882812 L 588.644531 1.882812 L 588.644531 12.984375 L 557.117188 12.984375 Z M 557.117188 1.882812 " fill-opacity="1" fill-rule="nonzero"/></g></g><g clip-path="url(#0432e35180)"><path fill="#f5e8da" d="M 268.128906 3.699219 L 269.101562 3.699219 C 269.265625 3.699219 269.402344 3.757812 269.515625 3.871094 C 269.628906 3.984375 269.6875 4.125 269.6875 4.285156 L 269.6875 10.519531 C 269.6875 10.679688 269.628906 10.816406 269.515625 10.929688 C 269.402344 11.042969 269.265625 11.101562 269.101562 11.101562 L 268.128906 11.101562 C 267.96875 11.101562 267.832031 11.042969 267.714844 10.929688 C 267.601562 10.816406 267.546875 10.679688 267.546875 10.519531 L 267.546875 4.285156 C 267.546875 4.125 267.601562 3.984375 267.714844 3.871094 C 267.832031 3.757812 267.96875 3.699219 268.128906 3.699219 Z M 268.128906 3.699219 " fill-opacity="1" fill-rule="nonzero"/></g><g clip-path="url(#74a7426cb2)"><path fill="#f5e8da" d="M 264.625 3.699219 L 265.597656 3.699219 C 265.757812 3.699219 265.894531 3.757812 266.011719 3.871094 C 266.125 3.984375 266.179688 4.125 266.179688 4.285156 L 266.179688 10.519531 C 266.179688 10.679688 266.125 10.816406 266.011719 10.929688 C 265.894531 11.042969 265.757812 11.101562 265.597656 11.101562 L 264.625 11.101562 C 264.460938 11.101562 264.324219 11.042969 264.210938 10.929688 C 264.097656 10.816406 264.039062 10.679688 264.039062 10.519531 L 264.039062 4.285156 C 264.039062 4.125 264.097656 3.984375 264.210938 3.871094 C 264.324219 3.757812 264.460938 3.699219 264.625 3.699219 Z M 264.625 3.699219 " fill-opacity="1" fill-rule="nonzero"/></g><g clip-path="url(#839e0567a8)"><g clip-path="url(#0f197eda24)"><path fill="#50006c" d="M 7.648438 2.777344 L 16.964844 2.777344 L 16.964844 12.09375 L 7.648438 12.09375 Z M 7.648438 2.777344 " fill-opacity="1" fill-rule="nonzero"/></g></g></svg>