<svg xmlns="http://www.w3.org/2000/svg" xmlns:xlink="http://www.w3.org/1999/xlink" width="800" zoomAndPan="magnify" viewBox="0 0 600 37.5" height="50" preserveAspectRatio="xMidYMid meet" version="1.0"><defs><clipPath id="03c4edebcf"><path d="M 3.949219 0 L 596.050781 0 L 596.050781 7.753906 L 3.949219 7.753906 Z M 3.949219 0 " clip-rule="nonzero"/></clipPath><clipPath id="4f06d42b12"><path d="M 3.949219 7.070312 L 11.347656 7.070312 L 11.347656 14.46875 L 3.949219 14.46875 Z M 3.949219 7.070312 " clip-rule="nonzero"/></clipPath><clipPath id="a3037fe516"><path d="M 588.128906 7.070312 L 596.050781 7.070312 L 596.050781 15.210938 L 588.128906 15.210938 Z M 588.128906 7.070312 " clip-rule="nonzero"/></clipPath><clipPath id="583ac7a0ce"><path d="M 235.867188 1.253906 L 364.152344 1.253906 L 364.152344 6.5 L 235.867188 6.5 Z M 235.867188 1.253906 " clip-rule="nonzero"/></clipPath><clipPath id="ebbe37f444"><path d="M 238.488281 1.253906 L 361.511719 1.253906 C 362.207031 1.253906 362.875 1.53125 363.367188 2.023438 C 363.859375 2.515625 364.132812 3.183594 364.132812 3.878906 C 364.132812 4.574219 363.859375 5.238281 363.367188 5.730469 C 362.875 6.222656 362.207031 6.5 361.511719 6.5 L 238.488281 6.5 C 237.792969 6.5 237.125 6.222656 236.632812 5.730469 C 236.140625 5.238281 235.867188 4.574219 235.867188 3.878906 C 235.867188 3.183594 236.140625 2.515625 236.632812 2.023438 C 237.125 1.53125 237.792969 1.253906 238.488281 1.253906 Z M 238.488281 1.253906 " clip-rule="nonzero"/></clipPath></defs><g clip-path="url(#03c4edebcf)"><path fill="#f5e8da" d="M 3.949219 0 L 596.066406 0 L 596.066406 7.753906 L 3.949219 7.753906 Z M 3.949219 0 " fill-opacity="1" fill-rule="nonzero"/></g><g clip-path="url(#4f06d42b12)"><path fill="#f5e8da" d="M 3.949219 7.070312 L 3.949219 14.46875 C 4.789062 10.800781 7.679688 7.910156 11.347656 7.070312 Z M 3.949219 7.070312 " fill-opacity="1" fill-rule="nonzero"/></g><g clip-path="url(#a3037fe516)"><path fill="#f5e8da" d="M 596.570312 7.070312 L 596.570312 15.511719 C 595.609375 11.324219 592.3125 8.03125 588.128906 7.070312 Z M 596.570312 7.070312 " fill-opacity="1" fill-rule="nonzero"/></g><g clip-path="url(#583ac7a0ce)"><g clip-path="url(#ebbe37f444)"><path fill="#50006c" d="M 235.867188 1.253906 L 364.132812 1.253906 L 364.132812 6.5 L 235.867188 6.5 Z M 235.867188 1.253906 " fill-opacity="1" fill-rule="nonzero"/></g></g></svg>