<svg xmlns="http://www.w3.org/2000/svg" xmlns:xlink="http://www.w3.org/1999/xlink" width="800" zoomAndPan="magnify" viewBox="0 0 600 37.5" height="50" preserveAspectRatio="xMidYMid meet" version="1.0"><defs><clipPath id="18fbe3e6a0"><path d="M 56.460938 3.699219 L 543.550781 3.699219 L 543.550781 17.730469 L 56.460938 17.730469 Z M 56.460938 3.699219 " clip-rule="nonzero"/></clipPath><clipPath id="2ce710f779"><path d="M 60.164062 3.699219 L 539.835938 3.699219 C 540.816406 3.699219 541.757812 4.089844 542.453125 4.785156 C 543.148438 5.480469 543.539062 6.417969 543.539062 7.402344 L 543.539062 14.03125 C 543.539062 15.011719 543.148438 15.953125 542.453125 16.648438 C 541.757812 17.34375 540.816406 17.730469 539.835938 17.730469 L 60.164062 17.730469 C 59.183594 17.730469 58.242188 17.34375 57.546875 16.648438 C 56.851562 15.953125 56.460938 15.011719 56.460938 14.03125 L 56.460938 7.402344 C 56.460938 6.417969 56.851562 5.480469 57.546875 4.785156 C 58.242188 4.089844 59.183594 3.699219 60.164062 3.699219 Z M 60.164062 3.699219 " clip-rule="nonzero"/></clipPath><clipPath id="83c9c96d7a"><path d="M 78.640625 5.164062 L 182.679688 5.164062 L 182.679688 16.265625 L 78.640625 16.265625 Z M 78.640625 5.164062 " clip-rule="nonzero"/></clipPath><clipPath id="e9c84e09c0"><path d="M 82.339844 5.164062 L 178.9375 5.164062 C 179.917969 5.164062 180.859375 5.554688 181.554688 6.25 C 182.25 6.941406 182.636719 7.882812 182.636719 8.867188 L 182.636719 12.566406 C 182.636719 13.546875 182.25 14.488281 181.554688 15.183594 C 180.859375 15.878906 179.917969 16.265625 178.9375 16.265625 L 82.339844 16.265625 C 81.359375 16.265625 80.417969 15.878906 79.722656 15.183594 C 79.03125 14.488281 78.640625 13.546875 78.640625 12.566406 L 78.640625 8.867188 C 78.640625 7.882812 79.03125 6.941406 79.722656 6.25 C 80.417969 5.554688 81.359375 5.164062 82.339844 5.164062 Z M 82.339844 5.164062 " clip-rule="nonzero"/></clipPath><clipPath id="aa6fde045a"><path d="M 263.066406 5.164062 L 336.960938 5.164062 L 336.960938 16.265625 L 263.066406 16.265625 Z M 263.066406 5.164062 " clip-rule="nonzero"/></clipPath><clipPath id="d12be1aed7"><path d="M 266.765625 5.164062 L 333.234375 5.164062 C 334.214844 5.164062 335.15625 5.554688 335.851562 6.25 C 336.542969 6.941406 336.933594 7.882812 336.933594 8.867188 L 336.933594 12.566406 C 336.933594 13.546875 336.542969 14.488281 335.851562 15.183594 C 335.15625 15.878906 334.214844 16.265625 333.234375 16.265625 L 266.765625 16.265625 C 265.785156 16.265625 264.84375 15.878906 264.148438 15.183594 C 263.457031 14.488281 263.066406 13.546875 263.066406 12.566406 L 263.066406 8.867188 C 263.066406 7.882812 263.457031 6.941406 264.148438 6.25 C 264.84375 5.554688 265.785156 5.164062 266.765625 5.164062 Z M 266.765625 5.164062 " clip-rule="nonzero"/></clipPath><clipPath id="08142d30e5"><path d="M 499.378906 5.164062 L 540.230469 5.164062 L 540.230469 16.265625 L 499.378906 16.265625 Z M 499.378906 5.164062 " clip-rule="nonzero"/></clipPath><clipPath id="f99dbb10f1"><path d="M 503.078125 5.164062 L 536.488281 5.164062 C 537.46875 5.164062 538.410156 5.554688 539.105469 6.25 C 539.800781 6.941406 540.191406 7.882812 540.191406 8.867188 L 540.191406 12.566406 C 540.191406 13.546875 539.800781 14.488281 539.105469 15.183594 C 538.410156 15.878906 537.46875 16.265625 536.488281 16.265625 L 503.078125 16.265625 C 502.097656 16.265625 501.15625 15.878906 500.460938 15.183594 C 499.769531 14.488281 499.378906 13.546875 499.378906 12.566406 L 499.378906 8.867188 C 499.378906 7.882812 499.769531 6.941406 500.460938 6.25 C 501.15625 5.554688 502.097656 5.164062 503.078125 5.164062 Z M 503.078125 5.164062 " clip-rule="nonzero"/></clipPath><clipPath id="4162dac94d"><path d="M 62.210938 5.164062 L 73.3125 5.164062 L 73.3125 16.265625 L 62.210938 16.265625 Z M 62.210938 5.164062 " clip-rule="nonzero"/></clipPath><clipPath id="d91a863ed8"><path d="M 67.761719 5.164062 C 64.695312 5.164062 62.210938 7.652344 62.210938 10.714844 C 62.210938 13.78125 64.695312 16.265625 67.761719 16.265625 C 70.828125 16.265625 73.3125 13.78125 73.3125 10.714844 C 73.3125 7.652344 70.828125 5.164062 67.761719 5.164062 Z M 67.761719 5.164062 " clip-rule="nonzero"/></clipPath><clipPath id="9bf4e44caa"><path d="M 64.09375 7.046875 L 71.429688 7.046875 L 71.429688 14.382812 L 64.09375 14.382812 Z M 64.09375 7.046875 " clip-rule="nonzero"/></clipPath><clipPath id="03ece1a4d2"><path d="M 67.761719 7.046875 C 65.734375 7.046875 64.09375 8.691406 64.09375 10.714844 C 64.09375 12.742188 65.734375 14.382812 67.761719 14.382812 C 69.785156 14.382812 71.429688 12.742188 71.429688 10.714844 C 71.429688 8.691406 69.785156 7.046875 67.761719 7.046875 Z M 67.761719 7.046875 " clip-rule="nonzero"/></clipPath></defs><g clip-path="url(#18fbe3e6a0)"><g clip-path="url(#2ce710f779)"><path fill="#f5e8da" d="M 56.460938 3.699219 L 543.550781 3.699219 L 543.550781 17.730469 L 56.460938 17.730469 Z M 56.460938 3.699219 " fill-opacity="1" fill-rule="nonzero"/></g></g><g clip-path="url(#83c9c96d7a)"><g clip-path="url(#e9c84e09c0)"><path fill="#50006c" d="M 78.640625 5.164062 L 182.636719 5.164062 L 182.636719 16.265625 L 78.640625 16.265625 Z M 78.640625 5.164062 " fill-opacity="1" fill-rule="nonzero"/></g></g><g clip-path="url(#aa6fde045a)"><g clip-path="url(#d12be1aed7)"><path fill="#50006c" d="M 263.066406 5.164062 L 336.917969 5.164062 L 336.917969 16.265625 L 263.066406 16.265625 Z M 263.066406 5.164062 " fill-opacity="1" fill-rule="nonzero"/></g></g><g clip-path="url(#08142d30e5)"><g clip-path="url(#f99dbb10f1)"><path fill="#50006c" d="M 499.378906 5.164062 L 540.1875 5.164062 L 540.1875 16.265625 L 499.378906 16.265625 Z M 499.378906 5.164062 " fill-opacity="1" fill-rule="nonzero"/></g></g><g clip-path="url(#4162dac94d)"><g clip-path="url(#d91a863ed8)"><path fill="#50006c" d="M 62.210938 5.164062 L 73.3125 5.164062 L 73.3125 16.265625 L 62.210938 16.265625 Z M 62.210938 5.164062 " fill-opacity="1" fill-rule="nonzero"/></g></g><g clip-path="url(#9bf4e44caa)"><g clip-path="url(#03ece1a4d2)"><path fill="#f5e8da" d="M 64.09375 7.046875 L 71.429688 7.046875 L 71.429688 14.382812 L 64.09375 14.382812 Z M 64.09375 7.046875 " fill-opacity="1" fill-rule="nonzero"/></g></g></svg>