<svg xmlns="http://www.w3.org/2000/svg" xmlns:xlink="http://www.w3.org/1999/xlink" width="800" zoomAndPan="magnify" viewBox="0 0 600 37.5" height="50" preserveAspectRatio="xMidYMid meet" version="1.0"><defs><clipPath id="ffbf24ba85"><path d="M 351.515625 4.898438 L 505.550781 4.898438 L 505.550781 21.859375 L 351.515625 21.859375 Z M 351.515625 4.898438 " clip-rule="nonzero"/></clipPath><clipPath id="ee202838b2"><path d="M 355.21875 4.898438 L 501.804688 4.898438 C 502.785156 4.898438 503.726562 5.289062 504.421875 5.980469 C 505.117188 6.675781 505.503906 7.617188 505.503906 8.597656 L 505.503906 18.15625 C 505.503906 19.140625 505.117188 20.082031 504.421875 20.773438 C 503.726562 21.46875 502.785156 21.859375 501.804688 21.859375 L 355.21875 21.859375 C 354.234375 21.859375 353.292969 21.46875 352.601562 20.773438 C 351.90625 20.082031 351.515625 19.140625 351.515625 18.15625 L 351.515625 8.597656 C 351.515625 7.617188 351.90625 6.675781 352.601562 5.980469 C 353.292969 5.289062 354.234375 4.898438 355.21875 4.898438 Z M 355.21875 4.898438 " clip-rule="nonzero"/></clipPath><clipPath id="17bf92226f"><path d="M 94.792969 4.898438 L 248.828125 4.898438 L 248.828125 21.859375 L 94.792969 21.859375 Z M 94.792969 4.898438 " clip-rule="nonzero"/></clipPath><clipPath id="331230780b"><path d="M 98.492188 4.898438 L 245.082031 4.898438 C 246.0625 4.898438 247.003906 5.289062 247.699219 5.980469 C 248.390625 6.675781 248.78125 7.617188 248.78125 8.597656 L 248.78125 18.15625 C 248.78125 19.140625 248.390625 20.082031 247.699219 20.773438 C 247.003906 21.46875 246.0625 21.859375 245.082031 21.859375 L 98.492188 21.859375 C 97.511719 21.859375 96.570312 21.46875 95.875 20.773438 C 95.183594 20.082031 94.792969 19.140625 94.792969 18.15625 L 94.792969 8.597656 C 94.792969 7.617188 95.183594 6.675781 95.875 5.980469 C 96.570312 5.289062 97.511719 4.898438 98.492188 4.898438 Z M 98.492188 4.898438 " clip-rule="nonzero"/></clipPath><clipPath id="9639e4dba8"><path d="M 252.925781 4.898438 L 347.132812 4.898438 L 347.132812 21.859375 L 252.925781 21.859375 Z M 252.925781 4.898438 " clip-rule="nonzero"/></clipPath><clipPath id="28b6b1d6b4"><path d="M 256.625 4.898438 L 343.375 4.898438 C 344.355469 4.898438 345.296875 5.289062 345.992188 5.980469 C 346.6875 6.675781 347.074219 7.617188 347.074219 8.597656 L 347.074219 18.15625 C 347.074219 19.140625 346.6875 20.082031 345.992188 20.773438 C 345.296875 21.46875 344.355469 21.859375 343.375 21.859375 L 256.625 21.859375 C 255.644531 21.859375 254.703125 21.46875 254.007812 20.773438 C 253.3125 20.082031 252.925781 19.140625 252.925781 18.15625 L 252.925781 8.597656 C 252.925781 7.617188 253.3125 6.675781 254.007812 5.980469 C 254.703125 5.289062 255.644531 4.898438 256.625 4.898438 Z M 256.625 4.898438 " clip-rule="nonzero"/></clipPath><clipPath id="5d55ae0f49"><path d="M 261.75 7.308594 L 338.574219 7.308594 L 338.574219 19.449219 L 261.75 19.449219 Z M 261.75 7.308594 " clip-rule="nonzero"/></clipPath><clipPath id="73b82fcbae"><path d="M 265.449219 7.308594 L 334.847656 7.308594 C 335.828125 7.308594 336.769531 7.699219 337.464844 8.390625 C 338.160156 9.085938 338.546875 10.027344 338.546875 11.007812 L 338.546875 15.75 C 338.546875 16.730469 338.160156 17.671875 337.464844 18.363281 C 336.769531 19.058594 335.828125 19.449219 334.847656 19.449219 L 265.449219 19.449219 C 264.46875 19.449219 263.527344 19.058594 262.832031 18.363281 C 262.140625 17.671875 261.75 16.730469 261.75 15.75 L 261.75 11.007812 C 261.75 10.027344 262.140625 9.085938 262.832031 8.390625 C 263.527344 7.699219 264.46875 7.308594 265.449219 7.308594 Z M 265.449219 7.308594 " clip-rule="nonzero"/></clipPath><clipPath id="ab10b8069b"><path d="M 98.5625 6.40625 L 113.871094 6.40625 L 113.871094 20.351562 L 98.5625 20.351562 Z M 98.5625 6.40625 " clip-rule="nonzero"/></clipPath><clipPath id="9102f104ee"><path d="M 102.265625 6.40625 L 110.132812 6.40625 C 111.113281 6.40625 112.054688 6.796875 112.75 7.492188 C 113.445312 8.183594 113.832031 9.125 113.832031 10.105469 L 113.832031 16.648438 C 113.832031 17.632812 113.445312 18.574219 112.75 19.265625 C 112.054688 19.960938 111.113281 20.351562 110.132812 20.351562 L 102.265625 20.351562 C 101.28125 20.351562 100.339844 19.960938 99.648438 19.265625 C 98.953125 18.574219 98.5625 17.632812 98.5625 16.648438 L 98.5625 10.105469 C 98.5625 9.125 98.953125 8.183594 99.648438 7.492188 C 100.339844 6.796875 101.28125 6.40625 102.265625 6.40625 Z M 102.265625 6.40625 " clip-rule="nonzero"/></clipPath><clipPath id="de1b27f118"><path d="M 355.191406 7.308594 L 399.8125 7.308594 L 399.8125 19.449219 L 355.191406 19.449219 Z M 355.191406 7.308594 " clip-rule="nonzero"/></clipPath><clipPath id="82a4beb279"><path d="M 358.890625 7.308594 L 396.066406 7.308594 C 397.046875 7.308594 397.988281 7.699219 398.683594 8.390625 C 399.378906 9.085938 399.765625 10.027344 399.765625 11.007812 L 399.765625 15.75 C 399.765625 16.730469 399.378906 17.671875 398.683594 18.363281 C 397.988281 19.058594 397.046875 19.449219 396.066406 19.449219 L 358.890625 19.449219 C 357.910156 19.449219 356.96875 19.058594 356.273438 18.363281 C 355.578125 17.671875 355.191406 16.730469 355.191406 15.75 L 355.191406 11.007812 C 355.191406 10.027344 355.578125 9.085938 356.273438 8.390625 C 356.96875 7.699219 357.910156 7.308594 358.890625 7.308594 Z M 358.890625 7.308594 " clip-rule="nonzero"/></clipPath><clipPath id="0cdb6cc42f"><path d="M 404.207031 7.308594 L 437.070312 7.308594 L 437.070312 19.449219 L 404.207031 19.449219 Z M 404.207031 7.308594 " clip-rule="nonzero"/></clipPath><clipPath id="8ba8b1020e"><path d="M 407.910156 7.308594 L 433.367188 7.308594 C 434.351562 7.308594 435.292969 7.699219 435.984375 8.390625 C 436.679688 9.085938 437.070312 10.027344 437.070312 11.007812 L 437.070312 15.75 C 437.070312 16.730469 436.679688 17.671875 435.984375 18.363281 C 435.292969 19.058594 434.351562 19.449219 433.367188 19.449219 L 407.910156 19.449219 C 406.925781 19.449219 405.984375 19.058594 405.292969 18.363281 C 404.597656 17.671875 404.207031 16.730469 404.207031 15.75 L 404.207031 11.007812 C 404.207031 10.027344 404.597656 9.085938 405.292969 8.390625 C 405.984375 7.699219 406.925781 7.308594 407.910156 7.308594 Z M 407.910156 7.308594 " clip-rule="nonzero"/></clipPath><clipPath id="828cb7bf25"><path d="M 441.511719 7.308594 L 483.621094 7.308594 L 483.621094 19.449219 L 441.511719 19.449219 Z M 441.511719 7.308594 " clip-rule="nonzero"/></clipPath><clipPath id="d6267b83e9"><path d="M 445.210938 7.308594 L 479.875 7.308594 C 480.859375 7.308594 481.800781 7.699219 482.492188 8.390625 C 483.1875 9.085938 483.578125 10.027344 483.578125 11.007812 L 483.578125 15.75 C 483.578125 16.730469 483.1875 17.671875 482.492188 18.363281 C 481.800781 19.058594 480.859375 19.449219 479.875 19.449219 L 445.210938 19.449219 C 444.230469 19.449219 443.289062 19.058594 442.59375 18.363281 C 441.898438 17.671875 441.511719 16.730469 441.511719 15.75 L 441.511719 11.007812 C 441.511719 10.027344 441.898438 9.085938 442.59375 8.390625 C 443.289062 7.699219 444.230469 7.308594 445.210938 7.308594 Z M 445.210938 7.308594 " clip-rule="nonzero"/></clipPath><clipPath id="16936f39c3"><path d="M 487.277344 7.308594 L 499.414062 7.308594 L 499.414062 19.449219 L 487.277344 19.449219 Z M 487.277344 7.308594 " clip-rule="nonzero"/></clipPath><clipPath id="7affd7edc9"><path d="M 493.34375 7.308594 C 489.992188 7.308594 487.277344 10.027344 487.277344 13.378906 C 487.277344 16.730469 489.992188 19.449219 493.34375 19.449219 C 496.699219 19.449219 499.414062 16.730469 499.414062 13.378906 C 499.414062 10.027344 496.699219 7.308594 493.34375 7.308594 Z M 493.34375 7.308594 " clip-rule="nonzero"/></clipPath><clipPath id="93e4430fcd"><path d="M 230 9.679688 L 232.691406 9.679688 L 232.691406 17.078125 L 230 17.078125 Z M 230 9.679688 " clip-rule="nonzero"/></clipPath><clipPath id="8c34d3bc55"><path d="M 226.769531 9.679688 L 229 9.679688 L 229 17.078125 L 226.769531 17.078125 Z M 226.769531 9.679688 " clip-rule="nonzero"/></clipPath><clipPath id="d9226d3f18"><path d="M 215.945312 9.253906 L 222.609375 9.253906 L 222.609375 17.394531 L 215.945312 17.394531 Z M 215.945312 9.253906 " clip-rule="nonzero"/></clipPath><clipPath id="f4fc66dd2b"><path d="M 236.929688 9.253906 L 243.300781 9.253906 L 243.300781 17.394531 L 236.929688 17.394531 Z M 236.929688 9.253906 " clip-rule="nonzero"/></clipPath></defs><g clip-path="url(#ffbf24ba85)"><g clip-path="url(#ee202838b2)"><path fill="#f5e8da" d="M 351.515625 4.898438 L 505.484375 4.898438 L 505.484375 21.859375 L 351.515625 21.859375 Z M 351.515625 4.898438 " fill-opacity="1" fill-rule="nonzero"/></g></g><g clip-path="url(#17bf92226f)"><g clip-path="url(#331230780b)"><path fill="#f5e8da" d="M 94.792969 4.898438 L 248.761719 4.898438 L 248.761719 21.859375 L 94.792969 21.859375 Z M 94.792969 4.898438 " fill-opacity="1" fill-rule="nonzero"/></g></g><g clip-path="url(#9639e4dba8)"><g clip-path="url(#28b6b1d6b4)"><path fill="#f5e8da" d="M 252.925781 4.898438 L 347.066406 4.898438 L 347.066406 21.859375 L 252.925781 21.859375 Z M 252.925781 4.898438 " fill-opacity="1" fill-rule="nonzero"/></g></g><g clip-path="url(#5d55ae0f49)"><g clip-path="url(#73b82fcbae)"><path fill="#50006c" d="M 261.75 7.308594 L 338.527344 7.308594 L 338.527344 19.449219 L 261.75 19.449219 Z M 261.75 7.308594 " fill-opacity="1" fill-rule="nonzero"/></g></g><g clip-path="url(#ab10b8069b)"><g clip-path="url(#9102f104ee)"><path fill="#50006c" d="M 98.5625 6.40625 L 113.816406 6.40625 L 113.816406 20.351562 L 98.5625 20.351562 Z M 98.5625 6.40625 " fill-opacity="1" fill-rule="nonzero"/></g></g><g clip-path="url(#de1b27f118)"><g clip-path="url(#82a4beb279)"><path fill="#50006c" d="M 355.191406 7.308594 L 399.765625 7.308594 L 399.765625 19.449219 L 355.191406 19.449219 Z M 355.191406 7.308594 " fill-opacity="1" fill-rule="nonzero"/></g></g><g clip-path="url(#0cdb6cc42f)"><g clip-path="url(#8ba8b1020e)"><path fill="#50006c" d="M 404.207031 7.308594 L 437.070312 7.308594 L 437.070312 19.449219 L 404.207031 19.449219 Z M 404.207031 7.308594 " fill-opacity="1" fill-rule="nonzero"/></g></g><g clip-path="url(#828cb7bf25)"><g clip-path="url(#d6267b83e9)"><path fill="#50006c" d="M 441.511719 7.308594 L 483.574219 7.308594 L 483.574219 19.449219 L 441.511719 19.449219 Z M 441.511719 7.308594 " fill-opacity="1" fill-rule="nonzero"/></g></g><g clip-path="url(#16936f39c3)"><g clip-path="url(#7affd7edc9)"><path fill="#50006c" d="M 487.277344 7.308594 L 499.414062 7.308594 L 499.414062 19.449219 L 487.277344 19.449219 Z M 487.277344 7.308594 " fill-opacity="1" fill-rule="nonzero"/></g></g><g clip-path="url(#93e4430fcd)"><path fill="#50006c" d="M 230.886719 9.679688 L 231.859375 9.679688 C 232.023438 9.679688 232.160156 9.734375 232.273438 9.847656 C 232.386719 9.964844 232.445312 10.101562 232.445312 10.261719 L 232.445312 16.496094 C 232.445312 16.65625 232.386719 16.792969 232.273438 16.90625 C 232.160156 17.023438 232.023438 17.078125 231.859375 17.078125 L 230.886719 17.078125 C 230.726562 17.078125 230.585938 17.023438 230.472656 16.90625 C 230.359375 16.792969 230.300781 16.65625 230.300781 16.496094 L 230.300781 10.261719 C 230.300781 10.101562 230.359375 9.964844 230.472656 9.847656 C 230.585938 9.734375 230.726562 9.679688 230.886719 9.679688 Z M 230.886719 9.679688 " fill-opacity="1" fill-rule="nonzero"/></g><g clip-path="url(#8c34d3bc55)"><path fill="#50006c" d="M 227.382812 9.679688 L 228.355469 9.679688 C 228.515625 9.679688 228.652344 9.734375 228.769531 9.847656 C 228.882812 9.964844 228.9375 10.101562 228.9375 10.261719 L 228.9375 16.496094 C 228.9375 16.65625 228.882812 16.792969 228.769531 16.90625 C 228.652344 17.023438 228.515625 17.078125 228.355469 17.078125 L 227.382812 17.078125 C 227.21875 17.078125 227.082031 17.023438 226.96875 16.90625 C 226.855469 16.792969 226.796875 16.65625 226.796875 16.496094 L 226.796875 10.261719 C 226.796875 10.101562 226.855469 9.964844 226.96875 9.847656 C 227.082031 9.734375 227.21875 9.679688 227.382812 9.679688 Z M 227.382812 9.679688 " fill-opacity="1" fill-rule="nonzero"/></g><g clip-path="url(#d9226d3f18)"><path fill="#50006c" d="M 216.484375 9.257812 C 216.359375 9.257812 216.246094 9.285156 216.152344 9.332031 C 216.105469 9.355469 216.066406 9.382812 216.027344 9.433594 C 215.988281 9.480469 215.9375 9.570312 215.9375 9.714844 L 215.9375 16.613281 C 215.9375 16.753906 215.988281 16.84375 216.027344 16.894531 C 216.066406 16.941406 216.105469 16.96875 216.152344 16.996094 C 216.246094 17.042969 216.359375 17.066406 216.484375 17.066406 C 216.609375 17.066406 216.722656 17.042969 216.816406 16.996094 C 216.863281 16.96875 216.902344 16.941406 216.941406 16.894531 C 216.980469 16.84375 217.03125 16.753906 217.03125 16.613281 L 217.03125 13.921875 L 221.921875 17.023438 C 221.964844 17.050781 222.015625 17.0625 222.066406 17.0625 C 222.203125 17.054688 222.308594 16.945312 222.308594 16.808594 L 222.308594 9.535156 C 222.308594 9.394531 222.195312 9.28125 222.054688 9.28125 C 222.007812 9.28125 221.960938 9.296875 221.921875 9.320312 L 217.03125 12.417969 L 217.03125 9.714844 C 217.03125 9.570312 216.980469 9.480469 216.941406 9.433594 C 216.902344 9.382812 216.863281 9.355469 216.816406 9.332031 C 216.722656 9.285156 216.609375 9.257812 216.484375 9.257812 Z M 216.484375 9.257812 " fill-opacity="1" fill-rule="nonzero"/></g><g clip-path="url(#f4fc66dd2b)"><path fill="#50006c" d="M 242.761719 9.257812 C 242.890625 9.257812 243.003906 9.285156 243.09375 9.332031 C 243.140625 9.355469 243.179688 9.382812 243.21875 9.433594 C 243.257812 9.480469 243.308594 9.570312 243.308594 9.714844 L 243.308594 16.613281 C 243.308594 16.753906 243.257812 16.84375 243.21875 16.894531 C 243.179688 16.941406 243.140625 16.96875 243.09375 16.996094 C 243.003906 17.042969 242.890625 17.066406 242.761719 17.066406 C 242.636719 17.066406 242.523438 17.042969 242.433594 16.996094 C 242.386719 16.96875 242.34375 16.941406 242.304688 16.894531 C 242.269531 16.84375 242.21875 16.753906 242.21875 16.613281 L 242.21875 13.921875 L 237.328125 17.023438 C 237.285156 17.050781 237.234375 17.0625 237.183594 17.0625 C 237.046875 17.054688 236.9375 16.945312 236.9375 16.808594 L 236.9375 9.535156 C 236.9375 9.394531 237.050781 9.28125 237.191406 9.28125 C 237.238281 9.28125 237.285156 9.296875 237.328125 9.320312 L 242.21875 12.417969 L 242.21875 9.714844 C 242.21875 9.570312 242.269531 9.480469 242.304688 9.433594 C 242.34375 9.382812 242.386719 9.355469 242.433594 9.332031 C 242.523438 9.285156 242.636719 9.257812 242.761719 9.257812 Z M 242.761719 9.257812 " fill-opacity="1" fill-rule="nonzero"/></g></svg>