<svg xmlns="http://www.w3.org/2000/svg" xmlns:xlink="http://www.w3.org/1999/xlink" width="800" zoomAndPan="magnify" viewBox="0 0 600 37.5" height="50" preserveAspectRatio="xMidYMid meet" version="1.0"><defs><clipPath id="d307e03a71"><path d="M 3.949219 22.136719 L 596.050781 22.136719 L 596.050781 37.007812 L 3.949219 37.007812 Z M 3.949219 22.136719 " clip-rule="nonzero"/></clipPath><clipPath id="8317ee0d27"><path d="M 7.648438 25.734375 L 17 25.734375 L 17 35.355469 L 7.648438 35.355469 Z M 7.648438 25.734375 " clip-rule="nonzero"/></clipPath><clipPath id="c0c0c98126"><path d="M 543.492188 23.503906 L 588.117188 23.503906 L 588.117188 35.644531 L 543.492188 35.644531 Z M 543.492188 23.503906 " clip-rule="nonzero"/></clipPath><clipPath id="c5b85f18cb"><path d="M 547.191406 23.503906 L 584.367188 23.503906 C 585.351562 23.503906 586.292969 23.890625 586.984375 24.585938 C 587.679688 25.28125 588.070312 26.222656 588.070312 27.203125 L 588.070312 31.941406 C 588.070312 32.921875 587.679688 33.863281 586.984375 34.558594 C 586.292969 35.253906 585.351562 35.644531 584.367188 35.644531 L 547.191406 35.644531 C 546.210938 35.644531 545.269531 35.253906 544.574219 34.558594 C 543.882812 33.863281 543.492188 32.921875 543.492188 31.941406 L 543.492188 27.203125 C 543.492188 26.222656 543.882812 25.28125 544.574219 24.585938 C 545.269531 23.890625 546.210938 23.503906 547.191406 23.503906 Z M 547.191406 23.503906 " clip-rule="nonzero"/></clipPath><clipPath id="387ec9884d"><path d="M 496.332031 23.503906 L 540.957031 23.503906 L 540.957031 35.644531 L 496.332031 35.644531 Z M 496.332031 23.503906 " clip-rule="nonzero"/></clipPath><clipPath id="c3ab931887"><path d="M 500.03125 23.503906 L 537.210938 23.503906 C 538.191406 23.503906 539.132812 23.890625 539.828125 24.585938 C 540.519531 25.28125 540.910156 26.222656 540.910156 27.203125 L 540.910156 31.941406 C 540.910156 32.921875 540.519531 33.863281 539.828125 34.558594 C 539.132812 35.253906 538.191406 35.644531 537.210938 35.644531 L 500.03125 35.644531 C 499.050781 35.644531 498.109375 35.253906 497.417969 34.558594 C 496.722656 33.863281 496.332031 32.921875 496.332031 31.941406 L 496.332031 27.203125 C 496.332031 26.222656 496.722656 25.28125 497.417969 24.585938 C 498.109375 23.890625 499.050781 23.503906 500.03125 23.503906 Z M 500.03125 23.503906 " clip-rule="nonzero"/></clipPath></defs><g clip-path="url(#d307e03a71)"><path fill="#f5e8da" d="M 3.949219 22.136719 L 596.054688 22.136719 L 596.054688 37.007812 L 3.949219 37.007812 Z M 3.949219 22.136719 " fill-opacity="1" fill-rule="nonzero"/></g><g clip-path="url(#8317ee0d27)"><path fill="#50006c" d="M 7.648438 27.066406 L 11.449219 26.550781 L 11.449219 30.214844 L 7.652344 30.234375 Z M 11.449219 30.636719 L 11.449219 34.304688 L 7.648438 33.785156 L 7.648438 30.613281 Z M 11.90625 26.484375 L 16.945312 25.746094 L 16.945312 30.164062 L 11.90625 30.210938 Z M 16.945312 30.675781 L 16.945312 35.074219 L 11.90625 34.363281 L 11.898438 30.660156 Z M 16.945312 30.675781 " fill-opacity="1" fill-rule="nonzero"/></g><g clip-path="url(#c0c0c98126)"><g clip-path="url(#c5b85f18cb)"><path fill="#50006c" d="M 543.492188 23.503906 L 588.070312 23.503906 L 588.070312 35.644531 L 543.492188 35.644531 Z M 543.492188 23.503906 " fill-opacity="1" fill-rule="nonzero"/></g></g><g clip-path="url(#387ec9884d)"><g clip-path="url(#c3ab931887)"><path fill="#50006c" d="M 496.332031 23.503906 L 540.910156 23.503906 L 540.910156 35.644531 L 496.332031 35.644531 Z M 496.332031 23.503906 " fill-opacity="1" fill-rule="nonzero"/></g></g></svg>