<svg xmlns="http://www.w3.org/2000/svg" xmlns:xlink="http://www.w3.org/1999/xlink" width="800" zoomAndPan="magnify" viewBox="0 0 600 37.5" height="50" preserveAspectRatio="xMidYMid meet" version="1.0"><defs><clipPath id="a72915cd10"><path d="M 13.195312 10.023438 L 104 10.023438 L 104 26.984375 L 13.195312 26.984375 Z M 13.195312 10.023438 " clip-rule="nonzero"/></clipPath><clipPath id="d1fed3843f"><path d="M 16.894531 10.023438 L 100.296875 10.023438 C 101.28125 10.023438 102.21875 10.414062 102.914062 11.105469 C 103.609375 11.800781 104 12.742188 104 13.722656 L 104 23.28125 C 104 24.265625 103.609375 25.207031 102.914062 25.898438 C 102.21875 26.59375 101.28125 26.984375 100.296875 26.984375 L 16.894531 26.984375 C 15.914062 26.984375 14.972656 26.59375 14.277344 25.898438 C 13.585938 25.207031 13.195312 24.265625 13.195312 23.28125 L 13.195312 13.722656 C 13.195312 12.742188 13.585938 11.800781 14.277344 11.105469 C 14.972656 10.414062 15.914062 10.023438 16.894531 10.023438 Z M 16.894531 10.023438 " clip-rule="nonzero"/></clipPath><clipPath id="cf030e1b27"><path d="M 17.691406 13.84375 L 27.007812 13.84375 L 27.007812 23.160156 L 17.691406 23.160156 Z M 17.691406 13.84375 " clip-rule="nonzero"/></clipPath><clipPath id="9faeadcdf3"><path d="M 22.347656 13.84375 C 19.777344 13.84375 17.691406 15.929688 17.691406 18.503906 C 17.691406 21.074219 19.777344 23.160156 22.347656 23.160156 C 24.921875 23.160156 27.007812 21.074219 27.007812 18.503906 C 27.007812 15.929688 24.921875 13.84375 22.347656 13.84375 Z M 22.347656 13.84375 " clip-rule="nonzero"/></clipPath><clipPath id="5e852b51a0"><path d="M 80.144531 12.433594 L 99.207031 12.433594 L 99.207031 24.574219 L 80.144531 24.574219 Z M 80.144531 12.433594 " clip-rule="nonzero"/></clipPath><clipPath id="b61f591e57"><path d="M 83.84375 12.433594 L 95.496094 12.433594 C 96.476562 12.433594 97.417969 12.824219 98.113281 13.515625 C 98.804688 14.210938 99.195312 15.152344 99.195312 16.132812 L 99.195312 20.871094 C 99.195312 21.855469 98.804688 22.796875 98.113281 23.488281 C 97.417969 24.183594 96.476562 24.574219 95.496094 24.574219 L 83.84375 24.574219 C 82.863281 24.574219 81.921875 24.183594 81.226562 23.488281 C 80.53125 22.796875 80.144531 21.855469 80.144531 20.871094 L 80.144531 16.132812 C 80.144531 15.152344 80.53125 14.210938 81.226562 13.515625 C 81.921875 12.824219 82.863281 12.433594 83.84375 12.433594 Z M 83.84375 12.433594 " clip-rule="nonzero"/></clipPath><clipPath id="5b26c6eb74"><path d="M 35.496094 12.683594 L 75.472656 12.683594 L 75.472656 24.824219 L 35.496094 24.824219 Z M 35.496094 12.683594 " clip-rule="nonzero"/></clipPath><clipPath id="e12d48ab8c"><path d="M 39.195312 12.683594 L 71.769531 12.683594 C 72.75 12.683594 73.691406 13.074219 74.386719 13.769531 C 75.078125 14.464844 75.46875 15.40625 75.46875 16.386719 L 75.46875 21.125 C 75.46875 22.105469 75.078125 23.046875 74.386719 23.742188 C 73.691406 24.4375 72.75 24.824219 71.769531 24.824219 L 39.195312 24.824219 C 38.214844 24.824219 37.273438 24.4375 36.578125 23.742188 C 35.882812 23.046875 35.496094 22.105469 35.496094 21.125 L 35.496094 16.386719 C 35.496094 15.40625 35.882812 14.464844 36.578125 13.769531 C 37.273438 13.074219 38.214844 12.683594 39.195312 12.683594 Z M 39.195312 12.683594 " clip-rule="nonzero"/></clipPath></defs><g clip-path="url(#a72915cd10)"><g clip-path="url(#d1fed3843f)"><path fill="#f5e8da" d="M 13.195312 10.023438 L 104.023438 10.023438 L 104.023438 26.984375 L 13.195312 26.984375 Z M 13.195312 10.023438 " fill-opacity="1" fill-rule="nonzero"/></g></g><g clip-path="url(#cf030e1b27)"><g clip-path="url(#9faeadcdf3)"><path fill="#50006c" d="M 17.691406 13.84375 L 27.007812 13.84375 L 27.007812 23.160156 L 17.691406 23.160156 Z M 17.691406 13.84375 " fill-opacity="1" fill-rule="nonzero"/></g></g><g clip-path="url(#5e852b51a0)"><g clip-path="url(#b61f591e57)"><path fill="#50006c" d="M 80.144531 12.433594 L 99.207031 12.433594 L 99.207031 24.574219 L 80.144531 24.574219 Z M 80.144531 12.433594 " fill-opacity="1" fill-rule="nonzero"/></g></g><g clip-path="url(#5b26c6eb74)"><g clip-path="url(#e12d48ab8c)"><path fill="#50006c" d="M 35.496094 12.683594 L 75.472656 12.683594 L 75.472656 24.824219 L 35.496094 24.824219 Z M 35.496094 12.683594 " fill-opacity="1" fill-rule="nonzero"/></g></g></svg>