<svg xmlns="http://www.w3.org/2000/svg" xmlns:xlink="http://www.w3.org/1999/xlink" width="800" zoomAndPan="magnify" viewBox="0 0 600 37.5" height="50" preserveAspectRatio="xMidYMid meet" version="1.0"><defs><clipPath id="05f453ed43"><path d="M 250.621094 0 L 349.398438 0 L 349.398438 16.960938 L 250.621094 16.960938 Z M 250.621094 0 " clip-rule="nonzero"/></clipPath><clipPath id="b10740d6a0"><path d="M 258.023438 -23.433594 L 341.976562 -23.433594 C 346.0625 -23.433594 349.378906 -20.121094 349.378906 -16.03125 L 349.378906 9.558594 C 349.378906 13.648438 346.0625 16.960938 341.976562 16.960938 L 258.023438 16.960938 C 253.9375 16.960938 250.621094 13.648438 250.621094 9.558594 L 250.621094 -16.03125 C 250.621094 -20.121094 253.9375 -23.433594 258.023438 -23.433594 Z M 258.023438 -23.433594 " clip-rule="nonzero"/></clipPath><clipPath id="1d9cacae8a"><path d="M 29.933594 2.15625 L 141.703125 2.15625 L 141.703125 16.960938 L 29.933594 16.960938 Z M 29.933594 2.15625 " clip-rule="nonzero"/></clipPath><clipPath id="1a84a339c7"><path d="M 37.335938 2.15625 L 134.257812 2.15625 C 138.34375 2.15625 141.660156 5.472656 141.660156 9.558594 C 141.660156 13.648438 138.34375 16.960938 134.257812 16.960938 L 37.335938 16.960938 C 33.246094 16.960938 29.933594 13.648438 29.933594 9.558594 C 29.933594 5.472656 33.246094 2.15625 37.335938 2.15625 Z M 37.335938 2.15625 " clip-rule="nonzero"/></clipPath><clipPath id="25055d4331"><path d="M 439.71875 1.542969 L 522.203125 1.542969 L 522.203125 18.503906 L 439.71875 18.503906 Z M 439.71875 1.542969 " clip-rule="nonzero"/></clipPath><clipPath id="2710278277"><path d="M 448.199219 1.542969 L 513.675781 1.542969 C 518.359375 1.542969 522.15625 5.339844 522.15625 10.023438 C 522.15625 14.707031 518.359375 18.503906 513.675781 18.503906 L 448.199219 18.503906 C 443.515625 18.503906 439.71875 14.707031 439.71875 10.023438 C 439.71875 5.339844 443.515625 1.542969 448.199219 1.542969 Z M 448.199219 1.542969 " clip-rule="nonzero"/></clipPath><clipPath id="e235d065fa"><path d="M 527.71875 1.542969 L 569.191406 1.542969 L 569.191406 18.503906 L 527.71875 18.503906 Z M 527.71875 1.542969 " clip-rule="nonzero"/></clipPath><clipPath id="14cb8ae8ff"><path d="M 536.199219 1.542969 L 560.667969 1.542969 C 565.351562 1.542969 569.144531 5.339844 569.144531 10.023438 C 569.144531 14.707031 565.351562 18.503906 560.667969 18.503906 L 536.199219 18.503906 C 531.515625 18.503906 527.71875 14.707031 527.71875 10.023438 C 527.71875 5.339844 531.515625 1.542969 536.199219 1.542969 Z M 536.199219 1.542969 " clip-rule="nonzero"/></clipPath><clipPath id="b5a7fa79ff"><path d="M 575.066406 1.542969 L 589.871094 1.542969 L 589.871094 16.34375 L 575.066406 16.34375 Z M 575.066406 1.542969 " clip-rule="nonzero"/></clipPath><clipPath id="bb5aebae87"><path d="M 578.109375 5 L 586.988281 5 L 586.988281 13.039062 L 578.109375 13.039062 Z M 578.109375 5 " clip-rule="nonzero"/></clipPath><clipPath id="f3b021fa24"><path d="M 581 4.898438 L 584 4.898438 L 584 9 L 581 9 Z M 581 4.898438 " clip-rule="nonzero"/></clipPath><clipPath id="cb6975587a"><path d="M 231.441406 0 L 244.765625 0 L 244.765625 13.324219 L 231.441406 13.324219 Z M 231.441406 0 " clip-rule="nonzero"/></clipPath><clipPath id="562aa838a5"><path d="M 355.296875 1.542969 L 368.621094 1.542969 L 368.621094 14.867188 L 355.296875 14.867188 Z M 355.296875 1.542969 " clip-rule="nonzero"/></clipPath><clipPath id="0585bfd9d4"><path d="M 7.792969 2.449219 L 21.113281 2.449219 L 21.113281 15.773438 L 7.792969 15.773438 Z M 7.792969 2.449219 " clip-rule="nonzero"/></clipPath><clipPath id="041c6797d8"><path d="M 9.417969 4.074219 L 19.78125 4.074219 L 19.78125 14.4375 L 9.417969 14.4375 Z M 9.417969 4.074219 " clip-rule="nonzero"/></clipPath><clipPath id="67ad542f12"><path d="M 348.636719 0 L 356.039062 0 L 356.039062 7.402344 L 348.636719 7.402344 Z M 348.636719 0 " clip-rule="nonzero"/></clipPath><clipPath id="af0229c782"><path d="M 243.222656 0 L 251.363281 0 L 251.363281 7.371094 L 243.222656 7.371094 Z M 243.222656 0 " clip-rule="nonzero"/></clipPath></defs><g clip-path="url(#05f453ed43)"><g clip-path="url(#b10740d6a0)"><path fill="#f5e8da" d="M 250.621094 -23.433594 L 349.398438 -23.433594 L 349.398438 16.960938 L 250.621094 16.960938 Z M 250.621094 -23.433594 " fill-opacity="1" fill-rule="nonzero"/></g></g><g clip-path="url(#1d9cacae8a)"><g clip-path="url(#1a84a339c7)"><path fill="#f5e8da" d="M 29.933594 2.15625 L 141.648438 2.15625 L 141.648438 16.960938 L 29.933594 16.960938 Z M 29.933594 2.15625 " fill-opacity="1" fill-rule="nonzero"/></g></g><g clip-path="url(#25055d4331)"><g clip-path="url(#2710278277)"><path fill="#f5e8da" d="M 439.71875 1.542969 L 522.136719 1.542969 L 522.136719 18.503906 L 439.71875 18.503906 Z M 439.71875 1.542969 " fill-opacity="1" fill-rule="nonzero"/></g></g><g clip-path="url(#e235d065fa)"><g clip-path="url(#14cb8ae8ff)"><path fill="#f5e8da" d="M 527.71875 1.542969 L 569.125 1.542969 L 569.125 18.503906 L 527.71875 18.503906 Z M 527.71875 1.542969 " fill-opacity="1" fill-rule="nonzero"/></g></g><g clip-path="url(#b5a7fa79ff)"><path fill="#f5e8da" d="M 589.871094 8.945312 C 589.871094 9.429688 589.824219 9.910156 589.726562 10.386719 C 589.632812 10.863281 589.492188 11.328125 589.308594 11.777344 C 589.121094 12.226562 588.894531 12.652344 588.621094 13.054688 C 588.351562 13.460938 588.046875 13.835938 587.703125 14.179688 C 587.359375 14.523438 586.984375 14.828125 586.582031 15.097656 C 586.175781 15.367188 585.75 15.597656 585.300781 15.78125 C 584.851562 15.96875 584.390625 16.109375 583.914062 16.203125 C 583.4375 16.296875 582.953125 16.34375 582.46875 16.34375 C 581.984375 16.34375 581.5 16.296875 581.023438 16.203125 C 580.546875 16.109375 580.085938 15.96875 579.636719 15.78125 C 579.1875 15.597656 578.761719 15.367188 578.355469 15.097656 C 577.953125 14.828125 577.578125 14.523438 577.234375 14.179688 C 576.890625 13.835938 576.585938 13.460938 576.316406 13.054688 C 576.042969 12.652344 575.816406 12.226562 575.628906 11.777344 C 575.445312 11.328125 575.304688 10.863281 575.210938 10.386719 C 575.113281 9.910156 575.066406 9.429688 575.066406 8.945312 C 575.066406 8.457031 575.113281 7.976562 575.210938 7.5 C 575.304688 7.023438 575.445312 6.5625 575.628906 6.113281 C 575.816406 5.664062 576.042969 5.238281 576.316406 4.832031 C 576.585938 4.429688 576.890625 4.054688 577.234375 3.710938 C 577.578125 3.367188 577.953125 3.058594 578.355469 2.789062 C 578.761719 2.519531 579.1875 2.292969 579.636719 2.105469 C 580.085938 1.921875 580.546875 1.78125 581.023438 1.683594 C 581.5 1.589844 581.984375 1.542969 582.46875 1.542969 C 582.953125 1.542969 583.4375 1.589844 583.914062 1.683594 C 584.390625 1.78125 584.851562 1.921875 585.300781 2.105469 C 585.75 2.292969 586.175781 2.519531 586.582031 2.789062 C 586.984375 3.058594 587.359375 3.367188 587.703125 3.710938 C 588.046875 4.054688 588.351562 4.429688 588.621094 4.832031 C 588.894531 5.238281 589.121094 5.664062 589.308594 6.113281 C 589.492188 6.5625 589.632812 7.023438 589.726562 7.5 C 589.824219 7.976562 589.871094 8.457031 589.871094 8.945312 Z M 589.871094 8.945312 " fill-opacity="1" fill-rule="nonzero"/></g><g clip-path="url(#bb5aebae87)"><path fill="#50006c" d="M 584.613281 5.605469 C 584.550781 5.5625 584.480469 5.550781 584.402344 5.574219 C 584.328125 5.59375 584.273438 5.640625 584.242188 5.714844 L 583.890625 6.472656 C 583.832031 6.597656 583.859375 6.703125 583.96875 6.785156 C 584.347656 7.0625 584.636719 7.414062 584.839844 7.835938 C 585.042969 8.257812 585.136719 8.703125 585.117188 9.167969 C 585.0625 10.652344 583.84375 11.851562 582.359375 11.886719 C 582.058594 11.894531 581.761719 11.855469 581.472656 11.765625 C 581.183594 11.679688 580.917969 11.550781 580.667969 11.378906 C 580.421875 11.203125 580.207031 10.996094 580.027344 10.753906 C 579.847656 10.515625 579.707031 10.25 579.609375 9.964844 C 579.515625 9.679688 579.464844 9.386719 579.460938 9.082031 C 579.460938 8.78125 579.503906 8.488281 579.597656 8.199219 C 579.6875 7.910156 579.824219 7.644531 580 7.402344 C 580.175781 7.15625 580.386719 6.945312 580.632812 6.769531 C 580.75 6.683594 580.777344 6.578125 580.710938 6.449219 L 580.335938 5.707031 C 580.300781 5.636719 580.246094 5.59375 580.171875 5.574219 C 580.097656 5.554688 580.03125 5.566406 579.964844 5.609375 C 579.390625 5.996094 578.945312 6.492188 578.617188 7.101562 C 578.292969 7.710938 578.128906 8.359375 578.128906 9.050781 C 578.125 11.316406 579.964844 13.1875 582.230469 13.222656 C 582.679688 13.226562 583.117188 13.164062 583.546875 13.027344 C 583.972656 12.894531 584.367188 12.695312 584.730469 12.429688 C 585.09375 12.167969 585.40625 11.855469 585.667969 11.492188 C 585.929688 11.125 586.128906 10.730469 586.261719 10.304688 C 586.398438 9.875 586.460938 9.4375 586.453125 8.988281 C 586.445312 8.539062 586.367188 8.105469 586.21875 7.679688 C 586.070312 7.257812 585.859375 6.871094 585.582031 6.515625 C 585.308594 6.160156 584.988281 5.859375 584.613281 5.605469 Z M 584.613281 5.605469 " fill-opacity="1" fill-rule="nonzero"/></g><g clip-path="url(#f3b021fa24)"><path fill="#50006c" d="M 581.804688 4.898438 L 582.777344 4.898438 C 582.9375 4.898438 583.019531 4.980469 583.019531 5.140625 L 583.019531 8.617188 C 583.019531 8.777344 582.9375 8.859375 582.777344 8.859375 L 581.804688 8.859375 C 581.644531 8.859375 581.5625 8.777344 581.5625 8.617188 L 581.5625 5.140625 C 581.5625 4.980469 581.644531 4.898438 581.804688 4.898438 Z M 581.804688 4.898438 " fill-opacity="1" fill-rule="nonzero"/></g><g clip-path="url(#cb6975587a)"><path fill="#f5e8da" d="M 244.695312 6.625 C 244.695312 7.0625 244.652344 7.492188 244.566406 7.917969 C 244.484375 8.347656 244.359375 8.761719 244.191406 9.164062 C 244.023438 9.5625 243.820312 9.945312 243.578125 10.308594 C 243.335938 10.667969 243.0625 11.003906 242.753906 11.3125 C 242.445312 11.621094 242.113281 11.894531 241.75 12.136719 C 241.386719 12.378906 241.007812 12.582031 240.605469 12.75 C 240.203125 12.914062 239.789062 13.039062 239.363281 13.125 C 238.933594 13.210938 238.503906 13.253906 238.070312 13.253906 C 237.632812 13.253906 237.203125 13.210938 236.777344 13.125 C 236.347656 13.039062 235.933594 12.914062 235.53125 12.75 C 235.132812 12.582031 234.75 12.378906 234.386719 12.136719 C 234.027344 11.894531 233.691406 11.621094 233.382812 11.3125 C 233.074219 11.003906 232.800781 10.667969 232.558594 10.308594 C 232.316406 9.945312 232.113281 9.5625 231.945312 9.164062 C 231.78125 8.761719 231.65625 8.347656 231.570312 7.917969 C 231.484375 7.492188 231.441406 7.0625 231.441406 6.625 C 231.441406 6.191406 231.484375 5.761719 231.570312 5.332031 C 231.65625 4.90625 231.78125 4.492188 231.945312 4.089844 C 232.113281 3.6875 232.316406 3.308594 232.558594 2.945312 C 232.800781 2.582031 233.074219 2.25 233.382812 1.941406 C 233.691406 1.632812 234.027344 1.359375 234.386719 1.117188 C 234.75 0.875 235.132812 0.671875 235.53125 0.503906 C 235.933594 0.339844 236.347656 0.210938 236.777344 0.128906 C 237.203125 0.0429688 237.632812 0 238.070312 0 C 238.503906 0 238.933594 0.0429688 239.363281 0.128906 C 239.789062 0.210938 240.203125 0.339844 240.605469 0.503906 C 241.007812 0.671875 241.386719 0.875 241.75 1.117188 C 242.113281 1.359375 242.445312 1.632812 242.753906 1.941406 C 243.0625 2.25 243.335938 2.582031 243.578125 2.945312 C 243.820312 3.308594 244.023438 3.6875 244.191406 4.089844 C 244.359375 4.492188 244.484375 4.90625 244.566406 5.332031 C 244.652344 5.761719 244.695312 6.191406 244.695312 6.625 Z M 244.695312 6.625 " fill-opacity="1" fill-rule="nonzero"/></g><g clip-path="url(#562aa838a5)"><path fill="#f5e8da" d="M 368.550781 8.167969 C 368.550781 8.605469 368.507812 9.035156 368.421875 9.460938 C 368.339844 9.890625 368.214844 10.304688 368.046875 10.707031 C 367.878906 11.105469 367.675781 11.488281 367.433594 11.851562 C 367.191406 12.210938 366.917969 12.546875 366.609375 12.855469 C 366.300781 13.164062 365.96875 13.4375 365.605469 13.679688 C 365.246094 13.921875 364.863281 14.125 364.460938 14.292969 C 364.058594 14.457031 363.644531 14.582031 363.21875 14.667969 C 362.789062 14.753906 362.359375 14.796875 361.925781 14.796875 C 361.488281 14.796875 361.058594 14.753906 360.632812 14.667969 C 360.203125 14.582031 359.789062 14.457031 359.386719 14.292969 C 358.988281 14.125 358.605469 13.921875 358.242188 13.679688 C 357.882812 13.4375 357.546875 13.164062 357.238281 12.855469 C 356.929688 12.546875 356.65625 12.210938 356.414062 11.851562 C 356.171875 11.488281 355.96875 11.105469 355.800781 10.707031 C 355.636719 10.304688 355.511719 9.890625 355.425781 9.460938 C 355.339844 9.035156 355.296875 8.605469 355.296875 8.167969 C 355.296875 7.734375 355.339844 7.304688 355.425781 6.875 C 355.511719 6.449219 355.636719 6.035156 355.800781 5.632812 C 355.96875 5.230469 356.171875 4.851562 356.414062 4.488281 C 356.65625 4.125 356.929688 3.792969 357.238281 3.484375 C 357.546875 3.175781 357.882812 2.902344 358.242188 2.660156 C 358.605469 2.417969 358.988281 2.214844 359.386719 2.046875 C 359.789062 1.882812 360.203125 1.753906 360.632812 1.671875 C 361.058594 1.585938 361.488281 1.542969 361.925781 1.542969 C 362.359375 1.542969 362.789062 1.585938 363.21875 1.671875 C 363.644531 1.753906 364.058594 1.882812 364.460938 2.046875 C 364.863281 2.214844 365.246094 2.417969 365.605469 2.660156 C 365.96875 2.902344 366.300781 3.175781 366.609375 3.484375 C 366.917969 3.792969 367.191406 4.125 367.433594 4.488281 C 367.675781 4.851562 367.878906 5.230469 368.046875 5.632812 C 368.214844 6.035156 368.339844 6.449219 368.421875 6.875 C 368.507812 7.304688 368.550781 7.734375 368.550781 8.167969 Z M 368.550781 8.167969 " fill-opacity="1" fill-rule="nonzero"/></g><g clip-path="url(#0585bfd9d4)"><path fill="#f5e8da" d="M 21.042969 9.074219 C 21.042969 9.511719 21.003906 9.941406 20.917969 10.367188 C 20.832031 10.796875 20.707031 11.210938 20.539062 11.613281 C 20.375 12.011719 20.167969 12.394531 19.929688 12.757812 C 19.6875 13.117188 19.410156 13.453125 19.105469 13.761719 C 18.796875 14.070312 18.460938 14.34375 18.101562 14.585938 C 17.738281 14.828125 17.355469 15.03125 16.953125 15.199219 C 16.550781 15.363281 16.136719 15.488281 15.710938 15.574219 C 15.285156 15.660156 14.851562 15.703125 14.417969 15.703125 C 13.984375 15.703125 13.550781 15.660156 13.125 15.574219 C 12.699219 15.488281 12.285156 15.363281 11.882812 15.199219 C 11.480469 15.03125 11.097656 14.828125 10.738281 14.585938 C 10.375 14.34375 10.039062 14.070312 9.734375 13.761719 C 9.425781 13.453125 9.148438 13.117188 8.910156 12.757812 C 8.667969 12.394531 8.460938 12.011719 8.296875 11.613281 C 8.128906 11.210938 8.003906 10.796875 7.917969 10.367188 C 7.835938 9.941406 7.792969 9.511719 7.792969 9.074219 C 7.792969 8.640625 7.835938 8.210938 7.917969 7.78125 C 8.003906 7.355469 8.128906 6.941406 8.296875 6.539062 C 8.460938 6.136719 8.667969 5.757812 8.910156 5.394531 C 9.148438 5.03125 9.425781 4.699219 9.734375 4.390625 C 10.039062 4.082031 10.375 3.808594 10.738281 3.566406 C 11.097656 3.324219 11.480469 3.121094 11.882812 2.953125 C 12.285156 2.789062 12.699219 2.660156 13.125 2.578125 C 13.550781 2.492188 13.984375 2.449219 14.417969 2.449219 C 14.851562 2.449219 15.285156 2.492188 15.710938 2.578125 C 16.136719 2.660156 16.550781 2.789062 16.953125 2.953125 C 17.355469 3.121094 17.738281 3.324219 18.101562 3.566406 C 18.460938 3.808594 18.796875 4.082031 19.105469 4.390625 C 19.410156 4.699219 19.6875 5.03125 19.929688 5.394531 C 20.167969 5.757812 20.375 6.136719 20.539062 6.539062 C 20.707031 6.941406 20.832031 7.355469 20.917969 7.78125 C 21.003906 8.210938 21.042969 8.640625 21.042969 9.074219 Z M 21.042969 9.074219 " fill-opacity="1" fill-rule="nonzero"/></g><g clip-path="url(#041c6797d8)"><path fill="#50006c" d="M 19.421875 9.078125 C 19.421875 9.40625 19.390625 9.730469 19.324219 10.054688 C 19.261719 10.375 19.167969 10.6875 19.039062 10.992188 C 18.914062 11.292969 18.761719 11.582031 18.578125 11.855469 C 18.394531 12.128906 18.1875 12.382812 17.957031 12.613281 C 17.722656 12.847656 17.472656 13.054688 17.199219 13.234375 C 16.925781 13.417969 16.636719 13.570312 16.332031 13.699219 C 16.03125 13.824219 15.71875 13.917969 15.394531 13.984375 C 15.074219 14.046875 14.746094 14.078125 14.417969 14.078125 C 14.089844 14.078125 13.765625 14.046875 13.445312 13.984375 C 13.121094 13.917969 12.808594 13.824219 12.503906 13.699219 C 12.203125 13.570312 11.914062 13.417969 11.640625 13.234375 C 11.367188 13.054688 11.113281 12.847656 10.882812 12.613281 C 10.652344 12.382812 10.441406 12.128906 10.261719 11.855469 C 10.078125 11.582031 9.925781 11.292969 9.796875 10.992188 C 9.671875 10.6875 9.578125 10.375 9.515625 10.054688 C 9.449219 9.730469 9.417969 9.40625 9.417969 9.078125 C 9.417969 8.75 9.449219 8.421875 9.515625 8.101562 C 9.578125 7.777344 9.671875 7.464844 9.796875 7.164062 C 9.925781 6.859375 10.078125 6.570312 10.261719 6.296875 C 10.441406 6.023438 10.652344 5.773438 10.882812 5.539062 C 11.113281 5.308594 11.367188 5.101562 11.640625 4.917969 C 11.914062 4.734375 12.203125 4.582031 12.503906 4.457031 C 12.808594 4.332031 13.121094 4.234375 13.445312 4.171875 C 13.765625 4.105469 14.089844 4.074219 14.417969 4.074219 C 14.746094 4.074219 15.074219 4.105469 15.394531 4.171875 C 15.71875 4.234375 16.03125 4.332031 16.332031 4.457031 C 16.636719 4.582031 16.925781 4.734375 17.199219 4.917969 C 17.472656 5.101562 17.722656 5.308594 17.957031 5.539062 C 18.1875 5.773438 18.394531 6.023438 18.578125 6.296875 C 18.761719 6.570312 18.914062 6.859375 19.039062 7.164062 C 19.167969 7.464844 19.261719 7.777344 19.324219 8.101562 C 19.390625 8.421875 19.421875 8.75 19.421875 9.078125 Z M 19.421875 9.078125 " fill-opacity="1" fill-rule="nonzero"/></g><g clip-path="url(#67ad542f12)"><path fill="#f5e8da" d="M 348.636719 0 L 348.636719 7.402344 C 349.480469 3.730469 352.367188 0.84375 356.039062 0 Z M 348.636719 0 " fill-opacity="1" fill-rule="nonzero"/></g><g clip-path="url(#af0229c782)"><path fill="#f5e8da" d="M 251.386719 -0.773438 L 251.386719 7.394531 C 250.457031 3.34375 247.269531 0.15625 243.222656 -0.773438 Z M 251.386719 -0.773438 " fill-opacity="1" fill-rule="nonzero"/></g></svg>