<svg xmlns="http://www.w3.org/2000/svg" xmlns:xlink="http://www.w3.org/1999/xlink" width="80" zoomAndPan="magnify" viewBox="0 0 60 374.999991" height="500" preserveAspectRatio="xMidYMid meet" version="1.0"><defs><g/><clipPath id="06c8892c7d"><path d="M 21 6 L 39 6 L 39 358.898438 L 21 358.898438 Z M 21 6 " clip-rule="nonzero"/></clipPath><clipPath id="8b368b1ae6"><path d="M 25.5 6 L 34.5 6 C 36.984375 6 39 8.015625 39 10.5 L 39 354.375 C 39 356.859375 36.984375 358.875 34.5 358.875 L 25.5 358.875 C 23.015625 358.875 21 356.859375 21 354.375 L 21 10.5 C 21 8.015625 23.015625 6 25.5 6 Z M 25.5 6 " clip-rule="nonzero"/></clipPath><clipPath id="b6e52abcd9"><path d="M 22.929688 131.625 L 35.765625 131.625 L 35.765625 233.261719 L 22.929688 233.261719 Z M 22.929688 131.625 " clip-rule="nonzero"/></clipPath><clipPath id="dd922854f3"><path d="M 25.929688 131.625 L 32.765625 131.625 C 34.425781 131.625 35.765625 132.96875 35.765625 134.625 L 35.765625 230.25 C 35.765625 231.90625 34.425781 233.25 32.765625 233.25 L 25.929688 233.25 C 24.273438 233.25 22.929688 231.90625 22.929688 230.25 L 22.929688 134.625 C 22.929688 132.96875 24.273438 131.625 25.929688 131.625 Z M 25.929688 131.625 " clip-rule="nonzero"/></clipPath><clipPath id="4175006e31"><path d="M 23.320312 30.785156 L 35.765625 30.785156 L 35.765625 75.558594 L 23.320312 75.558594 Z M 23.320312 30.785156 " clip-rule="nonzero"/></clipPath><clipPath id="ad4bbd5468"><path d="M 26.320312 30.785156 L 32.765625 30.785156 C 34.425781 30.785156 35.765625 32.125 35.765625 33.785156 L 35.765625 72.527344 C 35.765625 74.1875 34.425781 75.527344 32.765625 75.527344 L 26.320312 75.527344 C 24.664062 75.527344 23.320312 74.1875 23.320312 72.527344 L 23.320312 33.785156 C 23.320312 32.125 24.664062 30.785156 26.320312 30.785156 Z M 26.320312 30.785156 " clip-rule="nonzero"/></clipPath><clipPath id="41c3371036"><path d="M 22.539062 10.476562 L 37.460938 10.476562 L 37.460938 25.394531 L 22.539062 25.394531 Z M 22.539062 10.476562 " clip-rule="nonzero"/></clipPath><clipPath id="ce0e91d573"><path d="M 30 10.476562 C 25.878906 10.476562 22.539062 13.816406 22.539062 17.9375 C 22.539062 22.054688 25.878906 25.394531 30 25.394531 C 34.121094 25.394531 37.460938 22.054688 37.460938 17.9375 C 37.460938 13.816406 34.121094 10.476562 30 10.476562 Z M 30 10.476562 " clip-rule="nonzero"/></clipPath><clipPath id="9c8a270e77"><path d="M 24.464844 12.707031 L 34.925781 12.707031 L 34.925781 23.164062 L 24.464844 23.164062 Z M 24.464844 12.707031 " clip-rule="nonzero"/></clipPath><clipPath id="d3be4208a6"><path d="M 29.695312 12.707031 C 26.808594 12.707031 24.464844 15.046875 24.464844 17.9375 C 24.464844 20.824219 26.808594 23.164062 29.695312 23.164062 C 32.585938 23.164062 34.925781 20.824219 34.925781 17.9375 C 34.925781 15.046875 32.585938 12.707031 29.695312 12.707031 Z M 29.695312 12.707031 " clip-rule="nonzero"/></clipPath><clipPath id="b17ecbb0b0"><path d="M 23.972656 315.953125 L 36.417969 315.953125 L 36.417969 354.265625 L 23.972656 354.265625 Z M 23.972656 315.953125 " clip-rule="nonzero"/></clipPath><clipPath id="d74fddb4b6"><path d="M 26.972656 315.953125 L 33.417969 315.953125 C 35.074219 315.953125 36.417969 317.296875 36.417969 318.953125 L 36.417969 351.234375 C 36.417969 352.890625 35.074219 354.234375 33.417969 354.234375 L 26.972656 354.234375 C 25.316406 354.234375 23.972656 352.890625 23.972656 351.234375 L 23.972656 318.953125 C 23.972656 317.296875 25.316406 315.953125 26.972656 315.953125 Z M 26.972656 315.953125 " clip-rule="nonzero"/></clipPath><clipPath id="746b27d170"><path d="M 26 302.222656 L 33.328125 302.222656 L 33.328125 310.472656 L 26 310.472656 Z M 26 302.222656 " clip-rule="nonzero"/></clipPath><clipPath id="cd5816d53e"><path d="M 26.0625 286.875 L 32.0625 286.875 L 32.0625 297.375 L 26.0625 297.375 Z M 26.0625 286.875 " clip-rule="nonzero"/></clipPath><clipPath id="880bb03f21"><path d="M 27.324219 37.4375 L 31.542969 37.4375 L 31.542969 44.1875 L 27.324219 44.1875 Z M 27.324219 37.4375 " clip-rule="nonzero"/></clipPath><clipPath id="d7eb4b03f9"><path d="M 27.625 58.351562 L 32.125 58.351562 L 32.125 65 L 27.625 65 Z M 27.625 58.351562 " clip-rule="nonzero"/></clipPath><clipPath id="97707a7960"><path d="M 29 47.277344 L 31.667969 47.277344 L 31.667969 53.277344 L 29 53.277344 Z M 29 47.277344 " clip-rule="nonzero"/></clipPath><clipPath id="d5ee311cbd"><path d="M 27.167969 47.277344 L 29 47.277344 L 29 53.277344 L 27.167969 53.277344 Z M 27.167969 47.277344 " clip-rule="nonzero"/></clipPath><clipPath id="1235cca1d4"><path d="M 27.769531 14.410156 L 32.269531 14.410156 L 32.269531 23.410156 L 27.769531 23.410156 Z M 27.769531 14.410156 " clip-rule="nonzero"/></clipPath></defs><g clip-path="url(#06c8892c7d)"><g clip-path="url(#8b368b1ae6)"><path fill="#f5e8da" d="M 21 6 L 39 6 L 39 358.898438 L 21 358.898438 Z M 21 6 " fill-opacity="1" fill-rule="nonzero"/></g></g><g clip-path="url(#b6e52abcd9)"><g clip-path="url(#dd922854f3)"><path fill="#50006c" d="M 22.929688 131.625 L 35.765625 131.625 L 35.765625 233.261719 L 22.929688 233.261719 Z M 22.929688 131.625 " fill-opacity="1" fill-rule="nonzero"/></g></g><g clip-path="url(#4175006e31)"><g clip-path="url(#ad4bbd5468)"><path fill="#50006c" d="M 23.320312 30.785156 L 35.765625 30.785156 L 35.765625 75.511719 L 23.320312 75.511719 Z M 23.320312 30.785156 " fill-opacity="1" fill-rule="nonzero"/></g></g><g clip-path="url(#41c3371036)"><g clip-path="url(#ce0e91d573)"><path fill="#50006c" d="M 22.539062 10.476562 L 37.460938 10.476562 L 37.460938 25.394531 L 22.539062 25.394531 Z M 22.539062 10.476562 " fill-opacity="1" fill-rule="nonzero"/></g></g><g clip-path="url(#9c8a270e77)"><g clip-path="url(#d3be4208a6)"><path fill="#f5e8da" d="M 24.464844 12.707031 L 34.925781 12.707031 L 34.925781 23.164062 L 24.464844 23.164062 Z M 24.464844 12.707031 " fill-opacity="1" fill-rule="nonzero"/></g></g><g clip-path="url(#b17ecbb0b0)"><g clip-path="url(#d74fddb4b6)"><path fill="#50006c" d="M 23.972656 315.953125 L 36.417969 315.953125 L 36.417969 354.214844 L 23.972656 354.214844 Z M 23.972656 315.953125 " fill-opacity="1" fill-rule="nonzero"/></g></g><g clip-path="url(#746b27d170)"><path fill="#50006c" d="M 29.710938 310.492188 C 30.046875 310.492188 30.351562 310.296875 30.496094 309.996094 L 33.3125 304.011719 C 33.328125 303.976562 33.335938 303.933594 33.335938 303.894531 C 33.335938 303.617188 33.167969 303.398438 32.96875 303.242188 C 32.765625 303.078125 32.484375 302.945312 32.167969 302.839844 C 31.527344 302.628906 30.660156 302.5 29.710938 302.5 C 28.765625 302.5 27.898438 302.628906 27.257812 302.839844 C 26.941406 302.945312 26.660156 303.078125 26.457031 303.242188 C 26.257812 303.398438 26.089844 303.617188 26.089844 303.894531 C 26.089844 303.933594 26.097656 303.976562 26.113281 304.011719 L 28.929688 309.996094 C 29.074219 310.296875 29.378906 310.492188 29.710938 310.492188 Z M 29.710938 310.492188 " fill-opacity="1" fill-rule="evenodd"/></g><g clip-path="url(#cd5816d53e)"><path fill="#50006c" d="M 29.210938 286.890625 C 29.066406 286.886719 28.941406 286.933594 28.835938 287.035156 C 28.730469 287.136719 28.679688 287.257812 28.679688 287.40625 L 28.679688 290.699219 L 26.980469 289.085938 C 26.875 288.984375 26.753906 288.933594 26.605469 288.9375 C 26.375 288.945312 26.222656 289.054688 26.140625 289.273438 C 26.058594 289.488281 26.101562 289.671875 26.273438 289.828125 L 28.582031 292.023438 L 26.273438 294.21875 C 26.167969 294.316406 26.117188 294.4375 26.113281 294.578125 C 26.109375 294.71875 26.15625 294.84375 26.253906 294.945312 C 26.351562 295.046875 26.472656 295.101562 26.613281 295.105469 C 26.753906 295.109375 26.878906 295.058594 26.980469 294.960938 L 28.679688 293.347656 L 28.679688 296.644531 C 28.679688 296.867188 28.78125 297.023438 28.984375 297.113281 C 29.1875 297.203125 29.371094 297.175781 29.535156 297.027344 L 32.101562 294.714844 C 32.214844 294.617188 32.269531 294.492188 32.273438 294.339844 C 32.273438 294.191406 32.222656 294.066406 32.113281 293.960938 L 30.074219 292.023438 L 32.113281 290.085938 C 32.222656 289.984375 32.273438 289.855469 32.273438 289.707031 C 32.269531 289.558594 32.214844 289.433594 32.101562 289.332031 L 29.535156 287.023438 C 29.445312 286.9375 29.335938 286.894531 29.210938 286.890625 Z M 29.707031 288.558594 L 31.003906 289.726562 L 29.707031 290.957031 Z M 29.707031 293.09375 L 31.003906 294.324219 L 29.707031 295.492188 Z M 29.707031 293.09375 " fill-opacity="1" fill-rule="nonzero"/></g><g clip-path="url(#880bb03f21)"><path fill="#f5e8da" d="M 27.324219 37.460938 C 27.460938 37.460938 27.53125 37.527344 27.53125 37.667969 L 27.53125 40.367188 L 31.441406 37.5 C 31.511719 37.449219 31.582031 37.441406 31.660156 37.480469 C 31.734375 37.519531 31.773438 37.582031 31.773438 37.667969 L 31.773438 43.886719 C 31.773438 43.972656 31.734375 44.035156 31.660156 44.074219 C 31.582031 44.109375 31.511719 44.105469 31.441406 44.054688 L 27.53125 41.1875 L 27.53125 43.886719 C 27.53125 44.027344 27.460938 44.09375 27.324219 44.09375 C 27.183594 44.09375 27.117188 44.027344 27.117188 43.886719 L 27.117188 37.667969 C 27.117188 37.527344 27.183594 37.460938 27.324219 37.460938 Z M 27.324219 37.460938 " fill-opacity="1" fill-rule="nonzero"/></g><g clip-path="url(#d7eb4b03f9)"><path fill="#f5e8da" d="M 32.09375 58.371094 C 31.953125 58.371094 31.886719 58.441406 31.886719 58.578125 L 31.886719 61.261719 L 28.003906 58.410156 C 27.933594 58.363281 27.863281 58.355469 27.789062 58.394531 C 27.710938 58.433594 27.675781 58.492188 27.675781 58.578125 L 27.675781 64.753906 C 27.675781 64.839844 27.710938 64.902344 27.789062 64.9375 C 27.863281 64.976562 27.933594 64.972656 28.003906 64.921875 L 31.886719 62.074219 L 31.886719 64.753906 C 31.886719 64.890625 31.953125 64.960938 32.09375 64.960938 C 32.230469 64.960938 32.296875 64.890625 32.296875 64.753906 L 32.296875 58.578125 C 32.296875 58.441406 32.230469 58.371094 32.09375 58.371094 Z M 32.09375 58.371094 " fill-opacity="1" fill-rule="nonzero"/></g><g clip-path="url(#97707a7960)"><path fill="#f5e8da" d="M 30.433594 47.277344 L 31.207031 47.277344 C 31.335938 47.277344 31.445312 47.324219 31.535156 47.414062 C 31.625 47.503906 31.671875 47.613281 31.671875 47.742188 L 31.671875 52.6875 C 31.671875 52.8125 31.625 52.921875 31.535156 53.015625 C 31.445312 53.105469 31.335938 53.148438 31.207031 53.148438 L 30.433594 53.148438 C 30.304688 53.148438 30.195312 53.105469 30.105469 53.015625 C 30.015625 52.921875 29.96875 52.8125 29.96875 52.6875 L 29.96875 47.742188 C 29.96875 47.613281 30.015625 47.503906 30.105469 47.414062 C 30.195312 47.324219 30.304688 47.277344 30.433594 47.277344 Z M 30.433594 47.277344 " fill-opacity="1" fill-rule="nonzero"/></g><g clip-path="url(#d5ee311cbd)"><path fill="#f5e8da" d="M 27.652344 47.277344 L 28.425781 47.277344 C 28.554688 47.277344 28.664062 47.324219 28.753906 47.414062 C 28.84375 47.503906 28.890625 47.613281 28.890625 47.742188 L 28.890625 52.6875 C 28.890625 52.8125 28.84375 52.921875 28.753906 53.015625 C 28.664062 53.105469 28.554688 53.148438 28.425781 53.148438 L 27.652344 53.148438 C 27.523438 53.148438 27.414062 53.105469 27.324219 53.015625 C 27.234375 52.921875 27.191406 52.8125 27.191406 52.6875 L 27.191406 47.742188 C 27.191406 47.613281 27.234375 47.503906 27.324219 47.414062 C 27.414062 47.324219 27.523438 47.277344 27.652344 47.277344 Z M 27.652344 47.277344 " fill-opacity="1" fill-rule="nonzero"/></g><g clip-path="url(#1235cca1d4)"><path fill="#2b192e" d="M 31.652344 14.460938 L 29.480469 14.460938 C 29.347656 14.460938 29.234375 14.542969 29.1875 14.667969 L 27.84375 18.332031 C 27.769531 18.53125 27.917969 18.746094 28.136719 18.746094 L 29.679688 18.746094 C 29.730469 18.746094 29.777344 18.773438 29.804688 18.8125 C 29.835938 18.851562 29.839844 18.90625 29.824219 18.953125 L 28.300781 22.800781 C 28.230469 22.976562 28.46875 23.109375 28.582031 22.957031 C 29.613281 21.558594 31.449219 19.070312 32.226562 18.015625 C 32.375 17.808594 32.230469 17.523438 31.976562 17.523438 L 30.75 17.523438 C 30.699219 17.523438 30.648438 17.496094 30.621094 17.449219 C 30.59375 17.402344 30.589844 17.34375 30.617188 17.296875 L 31.925781 14.921875 C 32.039062 14.714844 31.886719 14.460938 31.652344 14.460938 " fill-opacity="1" fill-rule="nonzero"/></g><g fill="#f5e8da" fill-opacity="1"><g transform="translate(25.662952, 332.586939)"><g><path d="M 0.40625 0 L 0.40625 -0.5625 L 1.96875 -0.5625 L 1.96875 -4.9375 L 1.875 -4.953125 C 1.625 -4.828125 1.398438 -4.726562 1.203125 -4.65625 C 1.015625 -4.59375 0.773438 -4.53125 0.484375 -4.46875 L 0.484375 -5.09375 C 0.773438 -5.15625 1.0625 -5.238281 1.34375 -5.34375 C 1.632812 -5.445312 1.898438 -5.570312 2.140625 -5.71875 L 2.625 -5.71875 L 2.625 -0.5625 L 4.03125 -0.5625 L 4.03125 0 Z M 0.40625 0 "/></g></g></g><g fill="#f5e8da" fill-opacity="1"><g transform="translate(29.930427, 332.586939)"><g><path d="M 0.34375 -0.265625 C 0.34375 -0.578125 0.375 -0.828125 0.4375 -1.015625 C 0.507812 -1.210938 0.628906 -1.394531 0.796875 -1.5625 C 0.960938 -1.726562 1.226562 -1.945312 1.59375 -2.21875 L 2.234375 -2.671875 C 2.460938 -2.835938 2.648438 -2.992188 2.796875 -3.140625 C 2.941406 -3.285156 3.054688 -3.441406 3.140625 -3.609375 C 3.222656 -3.773438 3.265625 -3.960938 3.265625 -4.171875 C 3.265625 -4.515625 3.175781 -4.769531 3 -4.9375 C 2.820312 -5.113281 2.539062 -5.203125 2.15625 -5.203125 C 1.851562 -5.203125 1.582031 -5.128906 1.34375 -4.984375 C 1.113281 -4.847656 0.925781 -4.648438 0.78125 -4.390625 L 0.703125 -4.375 L 0.296875 -4.796875 C 0.484375 -5.109375 0.734375 -5.351562 1.046875 -5.53125 C 1.367188 -5.707031 1.738281 -5.796875 2.15625 -5.796875 C 2.5625 -5.796875 2.898438 -5.726562 3.171875 -5.59375 C 3.441406 -5.457031 3.640625 -5.265625 3.765625 -5.015625 C 3.890625 -4.773438 3.953125 -4.492188 3.953125 -4.171875 C 3.953125 -3.921875 3.898438 -3.679688 3.796875 -3.453125 C 3.691406 -3.234375 3.539062 -3.023438 3.34375 -2.828125 C 3.144531 -2.640625 2.898438 -2.4375 2.609375 -2.21875 L 1.96875 -1.75 C 1.726562 -1.570312 1.546875 -1.421875 1.421875 -1.296875 C 1.296875 -1.179688 1.203125 -1.0625 1.140625 -0.9375 C 1.078125 -0.820312 1.046875 -0.695312 1.046875 -0.5625 L 3.953125 -0.5625 L 3.953125 0 L 0.34375 0 Z M 0.34375 -0.265625 "/></g></g></g><g fill="#f5e8da" fill-opacity="1"><g transform="translate(25.927287, 342.61208)"><g><path d="M 2.21875 0 C 2.15625 0 2.109375 -0.015625 2.078125 -0.046875 C 2.046875 -0.0859375 2.03125 -0.132812 2.03125 -0.1875 L 2.03125 -4.671875 L 0.703125 -3.640625 C 0.660156 -3.609375 0.613281 -3.59375 0.5625 -3.59375 C 0.507812 -3.601562 0.46875 -3.628906 0.4375 -3.671875 L 0.234375 -3.9375 C 0.203125 -3.988281 0.1875 -4.035156 0.1875 -4.078125 C 0.195312 -4.128906 0.222656 -4.171875 0.265625 -4.203125 L 2.015625 -5.5625 C 2.054688 -5.582031 2.09375 -5.59375 2.125 -5.59375 C 2.15625 -5.601562 2.191406 -5.609375 2.234375 -5.609375 L 2.640625 -5.609375 C 2.691406 -5.609375 2.734375 -5.585938 2.765625 -5.546875 C 2.804688 -5.515625 2.828125 -5.472656 2.828125 -5.421875 L 2.828125 -0.1875 C 2.828125 -0.132812 2.804688 -0.0859375 2.765625 -0.046875 C 2.734375 -0.015625 2.691406 0 2.640625 0 Z M 2.21875 0 "/></g></g></g><g fill="#f5e8da" fill-opacity="1"><g transform="translate(29.359059, 342.61208)"><g><path d="M 0.578125 0 C 0.523438 0 0.476562 -0.015625 0.4375 -0.046875 C 0.40625 -0.0859375 0.390625 -0.132812 0.390625 -0.1875 L 0.390625 -0.4375 C 0.390625 -0.488281 0.398438 -0.539062 0.421875 -0.59375 C 0.453125 -0.65625 0.507812 -0.722656 0.59375 -0.796875 L 2.296875 -2.5 C 2.566406 -2.726562 2.78125 -2.921875 2.9375 -3.078125 C 3.09375 -3.242188 3.203125 -3.398438 3.265625 -3.546875 C 3.335938 -3.703125 3.375 -3.859375 3.375 -4.015625 C 3.375 -4.316406 3.285156 -4.554688 3.109375 -4.734375 C 2.941406 -4.921875 2.691406 -5.015625 2.359375 -5.015625 C 2.140625 -5.015625 1.953125 -4.96875 1.796875 -4.875 C 1.648438 -4.789062 1.53125 -4.671875 1.4375 -4.515625 C 1.351562 -4.359375 1.296875 -4.1875 1.265625 -4 C 1.253906 -3.925781 1.222656 -3.875 1.171875 -3.84375 C 1.128906 -3.820312 1.09375 -3.8125 1.0625 -3.8125 L 0.640625 -3.8125 C 0.585938 -3.8125 0.546875 -3.828125 0.515625 -3.859375 C 0.484375 -3.890625 0.46875 -3.925781 0.46875 -3.96875 C 0.476562 -4.164062 0.519531 -4.367188 0.59375 -4.578125 C 0.675781 -4.785156 0.796875 -4.972656 0.953125 -5.140625 C 1.109375 -5.304688 1.300781 -5.441406 1.53125 -5.546875 C 1.769531 -5.648438 2.046875 -5.703125 2.359375 -5.703125 C 2.773438 -5.703125 3.117188 -5.625 3.390625 -5.46875 C 3.660156 -5.320312 3.859375 -5.117188 3.984375 -4.859375 C 4.117188 -4.609375 4.1875 -4.335938 4.1875 -4.046875 C 4.1875 -3.804688 4.144531 -3.585938 4.0625 -3.390625 C 3.976562 -3.203125 3.859375 -3.015625 3.703125 -2.828125 C 3.554688 -2.640625 3.375 -2.453125 3.15625 -2.265625 L 1.609375 -0.703125 L 4.109375 -0.703125 C 4.171875 -0.703125 4.21875 -0.679688 4.25 -0.640625 C 4.28125 -0.609375 4.296875 -0.566406 4.296875 -0.515625 L 4.296875 -0.1875 C 4.296875 -0.132812 4.28125 -0.0859375 4.25 -0.046875 C 4.21875 -0.015625 4.171875 0 4.109375 0 Z M 0.578125 0 "/></g></g></g></svg>